M48
; DRILL file KiCad 10.0.4 date 2026-08-30T15:54:34
; FORMAT={-:-/ absolute / metric / decimal}
; #@! TF.CreationDate,2026-08-30T15:54:34+08:00
; #@! TF.GenerationSoftware,Kicad,Pcbnew,10.0.4
; #@! TF.FileFunction,Plated,1,2,PTH
FMAT,2
METRIC
; #@! TA.AperFunction,Plated,PTH,ComponentDrill
T1C0.889
; #@! TA.AperFunction,Plated,PTH,ComponentDrill
T2C1.000
; #@! TA.AperFunction,Plated,PTH,ComponentDrill
T3C1.500
%
G90
G05
T1
X142.26Y-102.8
X142.26Y-105.34
X142.26Y-107.88
X142.26Y-110.42
X142.26Y-112.96
X142.26Y-115.5
X142.26Y-118.04
X157.5Y-102.8
X157.5Y-105.34
X157.5Y-107.88
X157.5Y-110.42
X157.5Y-112.96
X157.5Y-115.5
X157.5Y-118.04
T2
X115.22Y-112.5
X117.76Y-112.5
X120.3Y-112.5
X122.84Y-112.5
X125.38Y-112.5
X127.92Y-112.5
X130.46Y-112.5
X133.0Y-112.5
X176.9Y-110.0
X184.5Y-110.0
T3
X117.61Y-127.96
X123.96Y-125.42
X136.61Y-127.96
X142.96Y-125.42
X155.69Y-127.96
X162.04Y-125.42
X174.69Y-127.96
X181.04Y-125.42
M30
