%TF.GenerationSoftware,KiCad,Pcbnew,10.0.4*%
%TF.CreationDate,2026-08-30T15:53:33+08:00*%
%TF.ProjectId,blare,626c6172-652e-46b6-9963-61645f706362,rev?*%
%TF.SameCoordinates,Original*%
%TF.FileFunction,Soldermask,Bot*%
%TF.FilePolarity,Negative*%
%FSLAX46Y46*%
G04 Gerber Fmt 4.6, Leading zero omitted, Abs format (unit mm)*
G04 Created by KiCad (PCBNEW 10.0.4) date 2026-08-30 15:53:33*
%MOMM*%
%LPD*%
G01*
G04 APERTURE LIST*
G04 Aperture macros list*
%AMRoundRect*
0 Rectangle with rounded corners*
0 $1 Rounding radius*
0 $2 $3 $4 $5 $6 $7 $8 $9 X,Y pos of 4 corners*
0 Add a 4 corners polygon primitive as box body*
4,1,4,$2,$3,$4,$5,$6,$7,$8,$9,$2,$3,0*
0 Add four circle primitives for the rounded corners*
1,1,$1+$1,$2,$3*
1,1,$1+$1,$4,$5*
1,1,$1+$1,$6,$7*
1,1,$1+$1,$8,$9*
0 Add four rect primitives between the rounded corners*
20,1,$1+$1,$2,$3,$4,$5,0*
20,1,$1+$1,$4,$5,$6,$7,0*
20,1,$1+$1,$6,$7,$8,$9,0*
20,1,$1+$1,$8,$9,$2,$3,0*%
G04 Aperture macros list end*
%ADD10RoundRect,0.152400X1.063600X0.609600X-1.063600X0.609600X-1.063600X-0.609600X1.063600X-0.609600X0*%
%ADD11C,1.524000*%
%ADD12RoundRect,0.152400X-1.063600X-0.609600X1.063600X-0.609600X1.063600X0.609600X-1.063600X0.609600X0*%
%ADD13C,1.700000*%
%ADD14C,4.000000*%
%ADD15C,2.200000*%
%ADD16C,3.200000*%
%ADD17R,2.000000X2.000000*%
%ADD18C,2.000000*%
%ADD19R,1.700000X1.700000*%
G04 APERTURE END LIST*
D10*
%TO.C,U1*%
X141425000Y-102800000D03*
D11*
X142260000Y-102800000D03*
D10*
X141425000Y-105340000D03*
D11*
X142260000Y-105340000D03*
D10*
X141425000Y-107880000D03*
D11*
X142260000Y-107880000D03*
D10*
X141425000Y-110420000D03*
D11*
X142260000Y-110420000D03*
D10*
X141425000Y-112960000D03*
D11*
X142260000Y-112960000D03*
D10*
X141425000Y-115500000D03*
D11*
X142260000Y-115500000D03*
D10*
X141425000Y-118040000D03*
D11*
X142260000Y-118040000D03*
X157500000Y-118040000D03*
D12*
X158335000Y-118040000D03*
D11*
X157500000Y-115500000D03*
D12*
X158335000Y-115500000D03*
D11*
X157500000Y-112960000D03*
D12*
X158335000Y-112960000D03*
D11*
X157500000Y-110420000D03*
D12*
X158335000Y-110420000D03*
D11*
X157500000Y-107880000D03*
D12*
X158335000Y-107880000D03*
D11*
X157500000Y-105340000D03*
D12*
X158335000Y-105340000D03*
D11*
X157500000Y-102800000D03*
D12*
X158335000Y-102800000D03*
%TD*%
D13*
%TO.C,SW1*%
X173420000Y-130500000D03*
D14*
X178500000Y-130500000D03*
D13*
X183580000Y-130500000D03*
D15*
X181040000Y-125420000D03*
X174690000Y-127960000D03*
%TD*%
D16*
%TO.C,H4*%
X189920000Y-90000000D03*
%TD*%
D13*
%TO.C,SW2*%
X135340000Y-130500000D03*
D14*
X140420000Y-130500000D03*
D13*
X145500000Y-130500000D03*
D15*
X142960000Y-125420000D03*
X136610000Y-127960000D03*
%TD*%
D16*
%TO.C,H3*%
X110000000Y-145000000D03*
%TD*%
%TO.C,H2*%
X189920000Y-145000000D03*
%TD*%
D17*
%TO.C,BZ1*%
X184500000Y-110000000D03*
D18*
X176900000Y-110000000D03*
%TD*%
D16*
%TO.C,H1*%
X110000000Y-90000000D03*
%TD*%
D19*
%TO.C,J1*%
X133000000Y-112500000D03*
D13*
X130460000Y-112500000D03*
X127920000Y-112500000D03*
X125380000Y-112500000D03*
X122840000Y-112500000D03*
X120300000Y-112500000D03*
X117760000Y-112500000D03*
X115220000Y-112500000D03*
%TD*%
%TO.C,SW4*%
X154420000Y-130500000D03*
D14*
X159500000Y-130500000D03*
D13*
X164580000Y-130500000D03*
D15*
X162040000Y-125420000D03*
X155690000Y-127960000D03*
%TD*%
D13*
%TO.C,SW3*%
X116340000Y-130500000D03*
D14*
X121420000Y-130500000D03*
D13*
X126500000Y-130500000D03*
D15*
X123960000Y-125420000D03*
X117610000Y-127960000D03*
%TD*%
M02*
