%TF.GenerationSoftware,KiCad,Pcbnew,10.0.4*%
%TF.CreationDate,2026-08-30T15:53:33+08:00*%
%TF.ProjectId,blare,626c6172-652e-46b6-9963-61645f706362,rev?*%
%TF.SameCoordinates,Original*%
%TF.FileFunction,Soldermask,Top*%
%TF.FilePolarity,Negative*%
%FSLAX46Y46*%
G04 Gerber Fmt 4.6, Leading zero omitted, Abs format (unit mm)*
G04 Created by KiCad (PCBNEW 10.0.4) date 2026-08-30 15:53:33*
%MOMM*%
%LPD*%
G01*
G04 APERTURE LIST*
%ADD10C,1.524000*%
%ADD11C,1.700000*%
%ADD12C,4.000000*%
%ADD13C,2.200000*%
%ADD14C,3.200000*%
%ADD15R,2.000000X2.000000*%
%ADD16C,2.000000*%
%ADD17R,1.700000X1.700000*%
G04 APERTURE END LIST*
D10*
%TO.C,U1*%
X142260000Y-102800000D03*
X142260000Y-105340000D03*
X142260000Y-107880000D03*
X142260000Y-110420000D03*
X142260000Y-112960000D03*
X142260000Y-115500000D03*
X142260000Y-118040000D03*
X157500000Y-118040000D03*
X157500000Y-115500000D03*
X157500000Y-112960000D03*
X157500000Y-110420000D03*
X157500000Y-107880000D03*
X157500000Y-105340000D03*
X157500000Y-102800000D03*
%TD*%
D11*
%TO.C,SW1*%
X173420000Y-130500000D03*
D12*
X178500000Y-130500000D03*
D11*
X183580000Y-130500000D03*
D13*
X181040000Y-125420000D03*
X174690000Y-127960000D03*
%TD*%
D14*
%TO.C,H4*%
X189920000Y-90000000D03*
%TD*%
D11*
%TO.C,SW2*%
X135340000Y-130500000D03*
D12*
X140420000Y-130500000D03*
D11*
X145500000Y-130500000D03*
D13*
X142960000Y-125420000D03*
X136610000Y-127960000D03*
%TD*%
D14*
%TO.C,H3*%
X110000000Y-145000000D03*
%TD*%
%TO.C,H2*%
X189920000Y-145000000D03*
%TD*%
D15*
%TO.C,BZ1*%
X184500000Y-110000000D03*
D16*
X176900000Y-110000000D03*
%TD*%
D14*
%TO.C,H1*%
X110000000Y-90000000D03*
%TD*%
D17*
%TO.C,J1*%
X133000000Y-112500000D03*
D11*
X130460000Y-112500000D03*
X127920000Y-112500000D03*
X125380000Y-112500000D03*
X122840000Y-112500000D03*
X120300000Y-112500000D03*
X117760000Y-112500000D03*
X115220000Y-112500000D03*
%TD*%
%TO.C,SW4*%
X154420000Y-130500000D03*
D12*
X159500000Y-130500000D03*
D11*
X164580000Y-130500000D03*
D13*
X162040000Y-125420000D03*
X155690000Y-127960000D03*
%TD*%
D11*
%TO.C,SW3*%
X116340000Y-130500000D03*
D12*
X121420000Y-130500000D03*
D11*
X126500000Y-130500000D03*
D13*
X123960000Y-125420000D03*
X117610000Y-127960000D03*
%TD*%
M02*
