%TF.GenerationSoftware,KiCad,Pcbnew,10.0.4*%
%TF.CreationDate,2026-08-30T15:53:33+08:00*%
%TF.ProjectId,blare,626c6172-652e-46b6-9963-61645f706362,rev?*%
%TF.SameCoordinates,Original*%
%TF.FileFunction,Legend,Top*%
%TF.FilePolarity,Positive*%
%FSLAX46Y46*%
G04 Gerber Fmt 4.6, Leading zero omitted, Abs format (unit mm)*
G04 Created by KiCad (PCBNEW 10.0.4) date 2026-08-30 15:53:33*
%MOMM*%
%LPD*%
G01*
G04 APERTURE LIST*
%ADD10C,0.300000*%
%ADD11C,0.150000*%
%ADD12C,0.000000*%
%ADD13C,0.120000*%
G04 APERTURE END LIST*
D10*
X148678572Y-116749757D02*
X148535715Y-116678328D01*
X148535715Y-116678328D02*
X148321429Y-116678328D01*
X148321429Y-116678328D02*
X148107143Y-116749757D01*
X148107143Y-116749757D02*
X147964286Y-116892614D01*
X147964286Y-116892614D02*
X147892857Y-117035471D01*
X147892857Y-117035471D02*
X147821429Y-117321185D01*
X147821429Y-117321185D02*
X147821429Y-117535471D01*
X147821429Y-117535471D02*
X147892857Y-117821185D01*
X147892857Y-117821185D02*
X147964286Y-117964042D01*
X147964286Y-117964042D02*
X148107143Y-118106900D01*
X148107143Y-118106900D02*
X148321429Y-118178328D01*
X148321429Y-118178328D02*
X148464286Y-118178328D01*
X148464286Y-118178328D02*
X148678572Y-118106900D01*
X148678572Y-118106900D02*
X148750000Y-118035471D01*
X148750000Y-118035471D02*
X148750000Y-117535471D01*
X148750000Y-117535471D02*
X148464286Y-117535471D01*
X149607143Y-116678328D02*
X149607143Y-117035471D01*
X149250000Y-116892614D02*
X149607143Y-117035471D01*
X149607143Y-117035471D02*
X149964286Y-116892614D01*
X149392857Y-117321185D02*
X149607143Y-117035471D01*
X149607143Y-117035471D02*
X149821429Y-117321185D01*
X150750000Y-116678328D02*
X150750000Y-117035471D01*
X150392857Y-116892614D02*
X150750000Y-117035471D01*
X150750000Y-117035471D02*
X151107143Y-116892614D01*
X150535714Y-117321185D02*
X150750000Y-117035471D01*
X150750000Y-117035471D02*
X150964286Y-117321185D01*
X151892857Y-116678328D02*
X151892857Y-117035471D01*
X151535714Y-116892614D02*
X151892857Y-117035471D01*
X151892857Y-117035471D02*
X152250000Y-116892614D01*
X151678571Y-117321185D02*
X151892857Y-117035471D01*
X151892857Y-117035471D02*
X152107143Y-117321185D01*
D11*
X177166667Y-123033200D02*
X177309524Y-123080819D01*
X177309524Y-123080819D02*
X177547619Y-123080819D01*
X177547619Y-123080819D02*
X177642857Y-123033200D01*
X177642857Y-123033200D02*
X177690476Y-122985580D01*
X177690476Y-122985580D02*
X177738095Y-122890342D01*
X177738095Y-122890342D02*
X177738095Y-122795104D01*
X177738095Y-122795104D02*
X177690476Y-122699866D01*
X177690476Y-122699866D02*
X177642857Y-122652247D01*
X177642857Y-122652247D02*
X177547619Y-122604628D01*
X177547619Y-122604628D02*
X177357143Y-122557009D01*
X177357143Y-122557009D02*
X177261905Y-122509390D01*
X177261905Y-122509390D02*
X177214286Y-122461771D01*
X177214286Y-122461771D02*
X177166667Y-122366533D01*
X177166667Y-122366533D02*
X177166667Y-122271295D01*
X177166667Y-122271295D02*
X177214286Y-122176057D01*
X177214286Y-122176057D02*
X177261905Y-122128438D01*
X177261905Y-122128438D02*
X177357143Y-122080819D01*
X177357143Y-122080819D02*
X177595238Y-122080819D01*
X177595238Y-122080819D02*
X177738095Y-122128438D01*
X178071429Y-122080819D02*
X178309524Y-123080819D01*
X178309524Y-123080819D02*
X178500000Y-122366533D01*
X178500000Y-122366533D02*
X178690476Y-123080819D01*
X178690476Y-123080819D02*
X178928572Y-122080819D01*
X179833333Y-123080819D02*
X179261905Y-123080819D01*
X179547619Y-123080819D02*
X179547619Y-122080819D01*
X179547619Y-122080819D02*
X179452381Y-122223676D01*
X179452381Y-122223676D02*
X179357143Y-122318914D01*
X179357143Y-122318914D02*
X179261905Y-122366533D01*
X189158095Y-86304819D02*
X189158095Y-85304819D01*
X189158095Y-85781009D02*
X189729523Y-85781009D01*
X189729523Y-86304819D02*
X189729523Y-85304819D01*
X190634285Y-85638152D02*
X190634285Y-86304819D01*
X190396190Y-85257200D02*
X190158095Y-85971485D01*
X190158095Y-85971485D02*
X190777142Y-85971485D01*
X139086667Y-123033200D02*
X139229524Y-123080819D01*
X139229524Y-123080819D02*
X139467619Y-123080819D01*
X139467619Y-123080819D02*
X139562857Y-123033200D01*
X139562857Y-123033200D02*
X139610476Y-122985580D01*
X139610476Y-122985580D02*
X139658095Y-122890342D01*
X139658095Y-122890342D02*
X139658095Y-122795104D01*
X139658095Y-122795104D02*
X139610476Y-122699866D01*
X139610476Y-122699866D02*
X139562857Y-122652247D01*
X139562857Y-122652247D02*
X139467619Y-122604628D01*
X139467619Y-122604628D02*
X139277143Y-122557009D01*
X139277143Y-122557009D02*
X139181905Y-122509390D01*
X139181905Y-122509390D02*
X139134286Y-122461771D01*
X139134286Y-122461771D02*
X139086667Y-122366533D01*
X139086667Y-122366533D02*
X139086667Y-122271295D01*
X139086667Y-122271295D02*
X139134286Y-122176057D01*
X139134286Y-122176057D02*
X139181905Y-122128438D01*
X139181905Y-122128438D02*
X139277143Y-122080819D01*
X139277143Y-122080819D02*
X139515238Y-122080819D01*
X139515238Y-122080819D02*
X139658095Y-122128438D01*
X139991429Y-122080819D02*
X140229524Y-123080819D01*
X140229524Y-123080819D02*
X140420000Y-122366533D01*
X140420000Y-122366533D02*
X140610476Y-123080819D01*
X140610476Y-123080819D02*
X140848572Y-122080819D01*
X141181905Y-122176057D02*
X141229524Y-122128438D01*
X141229524Y-122128438D02*
X141324762Y-122080819D01*
X141324762Y-122080819D02*
X141562857Y-122080819D01*
X141562857Y-122080819D02*
X141658095Y-122128438D01*
X141658095Y-122128438D02*
X141705714Y-122176057D01*
X141705714Y-122176057D02*
X141753333Y-122271295D01*
X141753333Y-122271295D02*
X141753333Y-122366533D01*
X141753333Y-122366533D02*
X141705714Y-122509390D01*
X141705714Y-122509390D02*
X141134286Y-123080819D01*
X141134286Y-123080819D02*
X141753333Y-123080819D01*
X109238095Y-141304819D02*
X109238095Y-140304819D01*
X109238095Y-140781009D02*
X109809523Y-140781009D01*
X109809523Y-141304819D02*
X109809523Y-140304819D01*
X110190476Y-140304819D02*
X110809523Y-140304819D01*
X110809523Y-140304819D02*
X110476190Y-140685771D01*
X110476190Y-140685771D02*
X110619047Y-140685771D01*
X110619047Y-140685771D02*
X110714285Y-140733390D01*
X110714285Y-140733390D02*
X110761904Y-140781009D01*
X110761904Y-140781009D02*
X110809523Y-140876247D01*
X110809523Y-140876247D02*
X110809523Y-141114342D01*
X110809523Y-141114342D02*
X110761904Y-141209580D01*
X110761904Y-141209580D02*
X110714285Y-141257200D01*
X110714285Y-141257200D02*
X110619047Y-141304819D01*
X110619047Y-141304819D02*
X110333333Y-141304819D01*
X110333333Y-141304819D02*
X110238095Y-141257200D01*
X110238095Y-141257200D02*
X110190476Y-141209580D01*
X189158095Y-141304819D02*
X189158095Y-140304819D01*
X189158095Y-140781009D02*
X189729523Y-140781009D01*
X189729523Y-141304819D02*
X189729523Y-140304819D01*
X190158095Y-140400057D02*
X190205714Y-140352438D01*
X190205714Y-140352438D02*
X190300952Y-140304819D01*
X190300952Y-140304819D02*
X190539047Y-140304819D01*
X190539047Y-140304819D02*
X190634285Y-140352438D01*
X190634285Y-140352438D02*
X190681904Y-140400057D01*
X190681904Y-140400057D02*
X190729523Y-140495295D01*
X190729523Y-140495295D02*
X190729523Y-140590533D01*
X190729523Y-140590533D02*
X190681904Y-140733390D01*
X190681904Y-140733390D02*
X190110476Y-141304819D01*
X190110476Y-141304819D02*
X190729523Y-141304819D01*
X109238095Y-86304819D02*
X109238095Y-85304819D01*
X109238095Y-85781009D02*
X109809523Y-85781009D01*
X109809523Y-86304819D02*
X109809523Y-85304819D01*
X110809523Y-86304819D02*
X110238095Y-86304819D01*
X110523809Y-86304819D02*
X110523809Y-85304819D01*
X110523809Y-85304819D02*
X110428571Y-85447676D01*
X110428571Y-85447676D02*
X110333333Y-85542914D01*
X110333333Y-85542914D02*
X110238095Y-85590533D01*
X158166667Y-123033200D02*
X158309524Y-123080819D01*
X158309524Y-123080819D02*
X158547619Y-123080819D01*
X158547619Y-123080819D02*
X158642857Y-123033200D01*
X158642857Y-123033200D02*
X158690476Y-122985580D01*
X158690476Y-122985580D02*
X158738095Y-122890342D01*
X158738095Y-122890342D02*
X158738095Y-122795104D01*
X158738095Y-122795104D02*
X158690476Y-122699866D01*
X158690476Y-122699866D02*
X158642857Y-122652247D01*
X158642857Y-122652247D02*
X158547619Y-122604628D01*
X158547619Y-122604628D02*
X158357143Y-122557009D01*
X158357143Y-122557009D02*
X158261905Y-122509390D01*
X158261905Y-122509390D02*
X158214286Y-122461771D01*
X158214286Y-122461771D02*
X158166667Y-122366533D01*
X158166667Y-122366533D02*
X158166667Y-122271295D01*
X158166667Y-122271295D02*
X158214286Y-122176057D01*
X158214286Y-122176057D02*
X158261905Y-122128438D01*
X158261905Y-122128438D02*
X158357143Y-122080819D01*
X158357143Y-122080819D02*
X158595238Y-122080819D01*
X158595238Y-122080819D02*
X158738095Y-122128438D01*
X159071429Y-122080819D02*
X159309524Y-123080819D01*
X159309524Y-123080819D02*
X159500000Y-122366533D01*
X159500000Y-122366533D02*
X159690476Y-123080819D01*
X159690476Y-123080819D02*
X159928572Y-122080819D01*
X160738095Y-122414152D02*
X160738095Y-123080819D01*
X160500000Y-122033200D02*
X160261905Y-122747485D01*
X160261905Y-122747485D02*
X160880952Y-122747485D01*
X120086667Y-123033200D02*
X120229524Y-123080819D01*
X120229524Y-123080819D02*
X120467619Y-123080819D01*
X120467619Y-123080819D02*
X120562857Y-123033200D01*
X120562857Y-123033200D02*
X120610476Y-122985580D01*
X120610476Y-122985580D02*
X120658095Y-122890342D01*
X120658095Y-122890342D02*
X120658095Y-122795104D01*
X120658095Y-122795104D02*
X120610476Y-122699866D01*
X120610476Y-122699866D02*
X120562857Y-122652247D01*
X120562857Y-122652247D02*
X120467619Y-122604628D01*
X120467619Y-122604628D02*
X120277143Y-122557009D01*
X120277143Y-122557009D02*
X120181905Y-122509390D01*
X120181905Y-122509390D02*
X120134286Y-122461771D01*
X120134286Y-122461771D02*
X120086667Y-122366533D01*
X120086667Y-122366533D02*
X120086667Y-122271295D01*
X120086667Y-122271295D02*
X120134286Y-122176057D01*
X120134286Y-122176057D02*
X120181905Y-122128438D01*
X120181905Y-122128438D02*
X120277143Y-122080819D01*
X120277143Y-122080819D02*
X120515238Y-122080819D01*
X120515238Y-122080819D02*
X120658095Y-122128438D01*
X120991429Y-122080819D02*
X121229524Y-123080819D01*
X121229524Y-123080819D02*
X121420000Y-122366533D01*
X121420000Y-122366533D02*
X121610476Y-123080819D01*
X121610476Y-123080819D02*
X121848572Y-122080819D01*
X122134286Y-122080819D02*
X122753333Y-122080819D01*
X122753333Y-122080819D02*
X122420000Y-122461771D01*
X122420000Y-122461771D02*
X122562857Y-122461771D01*
X122562857Y-122461771D02*
X122658095Y-122509390D01*
X122658095Y-122509390D02*
X122705714Y-122557009D01*
X122705714Y-122557009D02*
X122753333Y-122652247D01*
X122753333Y-122652247D02*
X122753333Y-122890342D01*
X122753333Y-122890342D02*
X122705714Y-122985580D01*
X122705714Y-122985580D02*
X122658095Y-123033200D01*
X122658095Y-123033200D02*
X122562857Y-123080819D01*
X122562857Y-123080819D02*
X122277143Y-123080819D01*
X122277143Y-123080819D02*
X122181905Y-123033200D01*
X122181905Y-123033200D02*
X122134286Y-122985580D01*
D12*
%TO.C,G\u002A\u002A\u002A*%
G36*
X167721885Y-90327987D02*
G01*
X167778751Y-90490256D01*
X167801107Y-90591838D01*
X167748635Y-90648238D01*
X167642505Y-90649962D01*
X167561992Y-90598819D01*
X167553672Y-90495204D01*
X167584158Y-90334968D01*
X167642663Y-90129917D01*
X167721885Y-90327987D01*
G37*
G36*
X168267308Y-90752915D02*
G01*
X168293628Y-90787433D01*
X168246582Y-90874283D01*
X168152908Y-90974238D01*
X168051039Y-91056813D01*
X168016048Y-91028001D01*
X168012188Y-90914783D01*
X168041154Y-90771494D01*
X168143948Y-90728096D01*
X168152908Y-90727977D01*
X168267308Y-90752915D01*
G37*
G36*
X167290519Y-90765277D02*
G01*
X167308219Y-90874737D01*
X167308587Y-90931227D01*
X167291414Y-91079124D01*
X167223099Y-91137820D01*
X167078446Y-91113893D01*
X166891718Y-91040070D01*
X166739154Y-90950881D01*
X166724279Y-90873922D01*
X166848117Y-90807324D01*
X167044736Y-90760802D01*
X167216261Y-90736063D01*
X167290519Y-90765277D01*
G37*
G36*
X167786116Y-90787152D02*
G01*
X167842670Y-90886399D01*
X167858678Y-90996424D01*
X167844551Y-91200184D01*
X167775794Y-91360739D01*
X167673238Y-91431228D01*
X167665220Y-91431579D01*
X167576244Y-91394351D01*
X167485127Y-91335207D01*
X167400472Y-91245124D01*
X167392452Y-91121438D01*
X167421542Y-91000997D01*
X167493210Y-90832573D01*
X167599648Y-90768089D01*
X167663021Y-90763158D01*
X167786116Y-90787152D01*
G37*
G36*
X167869003Y-91489508D02*
G01*
X167896202Y-91535270D01*
X167899169Y-91645855D01*
X167875767Y-91675182D01*
X167803572Y-91655090D01*
X167776373Y-91609328D01*
X167773406Y-91498743D01*
X167796808Y-91469416D01*
X167869003Y-91489508D01*
G37*
G36*
X167457100Y-91481588D02*
G01*
X167462839Y-91574740D01*
X167380609Y-91676334D01*
X167277829Y-91761716D01*
X167242254Y-91746395D01*
X167238227Y-91657716D01*
X167276186Y-91510668D01*
X167365021Y-91445528D01*
X167457100Y-91481588D01*
G37*
G36*
X115944111Y-90235457D02*
G01*
X116019715Y-90417879D01*
X115975457Y-90539909D01*
X115817042Y-90587118D01*
X115804986Y-90587257D01*
X115657258Y-90571978D01*
X115595467Y-90535163D01*
X115595470Y-90534487D01*
X115636200Y-90447346D01*
X115732363Y-90310030D01*
X115735672Y-90305817D01*
X115838622Y-90193769D01*
X115904587Y-90188830D01*
X115944111Y-90235457D01*
G37*
G36*
X116426319Y-90765970D02*
G01*
X116438227Y-90798338D01*
X116381238Y-90860760D01*
X116332686Y-90868698D01*
X116239053Y-90830705D01*
X116227146Y-90798338D01*
X116284135Y-90735916D01*
X116332686Y-90727977D01*
X116426319Y-90765970D01*
G37*
G36*
X115243328Y-90736696D02*
G01*
X115302680Y-90781688D01*
X115266978Y-90891214D01*
X115239629Y-90943683D01*
X115147835Y-91060976D01*
X115046302Y-91051431D01*
X114936389Y-90951108D01*
X114837786Y-90820352D01*
X114853722Y-90752457D01*
X114994877Y-90729063D01*
X115066204Y-90727977D01*
X115243328Y-90736696D01*
G37*
G36*
X115999782Y-90760545D02*
G01*
X116112645Y-90856517D01*
X116099555Y-91013298D01*
X115959677Y-91228292D01*
X115932848Y-91259572D01*
X115777240Y-91424826D01*
X115667087Y-91487020D01*
X115560201Y-91453189D01*
X115428840Y-91343628D01*
X115317322Y-91226011D01*
X115295984Y-91122231D01*
X115351702Y-90963731D01*
X115354758Y-90956648D01*
X115431746Y-90812354D01*
X115530932Y-90746162D01*
X115705212Y-90728354D01*
X115761801Y-90727977D01*
X115999782Y-90760545D01*
G37*
G36*
X116124212Y-91320985D02*
G01*
X116169403Y-91448244D01*
X116188261Y-91542115D01*
X116230441Y-91739005D01*
X116270509Y-91884404D01*
X116273980Y-91893916D01*
X116276214Y-91981084D01*
X116190338Y-91975743D01*
X116032040Y-91880398D01*
X115990375Y-91848633D01*
X115839955Y-91693953D01*
X115821201Y-91555677D01*
X115931016Y-91409702D01*
X115933656Y-91407303D01*
X116055001Y-91312300D01*
X116124212Y-91320985D01*
G37*
G36*
X115344339Y-91425806D02*
G01*
X115423882Y-91508432D01*
X115501208Y-91604714D01*
X115504177Y-91679135D01*
X115420666Y-91776241D01*
X115328136Y-91860233D01*
X115149992Y-91999606D01*
X115023444Y-92060653D01*
X114968249Y-92036787D01*
X114978373Y-91976869D01*
X115022238Y-91856641D01*
X115089327Y-91670414D01*
X115105575Y-91625069D01*
X115182784Y-91437375D01*
X115252501Y-91374571D01*
X115344339Y-91425806D01*
G37*
G36*
X191137379Y-90836248D02*
G01*
X191202146Y-90944840D01*
X191286944Y-91141527D01*
X191268948Y-91252330D01*
X191145219Y-91290520D01*
X191125484Y-91290858D01*
X190982423Y-91252948D01*
X190949584Y-91180693D01*
X190981697Y-91032234D01*
X191028739Y-90922624D01*
X191089862Y-90823085D01*
X191137379Y-90836248D01*
G37*
G36*
X191730171Y-91397191D02*
G01*
X191744805Y-91512496D01*
X191707544Y-91614499D01*
X191617451Y-91756784D01*
X191548821Y-91761393D01*
X191514298Y-91631060D01*
X191512465Y-91572299D01*
X191540495Y-91412751D01*
X191606278Y-91361218D01*
X191730171Y-91397191D01*
G37*
G36*
X190634252Y-91524584D02*
G01*
X190640491Y-91613233D01*
X190602525Y-91747280D01*
X190597783Y-91789134D01*
X190556919Y-91850884D01*
X190460392Y-91817005D01*
X190382253Y-91742837D01*
X190326677Y-91643055D01*
X190384176Y-91572550D01*
X190391227Y-91568014D01*
X190539994Y-91506205D01*
X190634252Y-91524584D01*
G37*
G36*
X191278553Y-91438417D02*
G01*
X191348023Y-91484074D01*
X191369964Y-91606264D01*
X191371745Y-91758032D01*
X191346594Y-92014233D01*
X191266266Y-92163054D01*
X191248614Y-92177955D01*
X191104200Y-92259060D01*
X190973778Y-92241782D01*
X190818798Y-92132951D01*
X190701924Y-91997125D01*
X190692423Y-91841377D01*
X190701324Y-91801475D01*
X190788302Y-91575866D01*
X190925126Y-91461921D01*
X191134099Y-91431579D01*
X191278553Y-91438417D01*
G37*
G36*
X191352976Y-92332256D02*
G01*
X191371745Y-92418828D01*
X191336066Y-92539928D01*
X191247743Y-92542456D01*
X191207571Y-92510434D01*
X191165460Y-92405432D01*
X191259192Y-92323589D01*
X191266204Y-92320816D01*
X191352976Y-92332256D01*
G37*
G36*
X190737839Y-92205184D02*
G01*
X190859441Y-92306913D01*
X190850060Y-92423327D01*
X190720914Y-92561311D01*
X190561673Y-92674257D01*
X190477940Y-92678762D01*
X190457063Y-92597101D01*
X190481079Y-92457840D01*
X190526758Y-92312829D01*
X190592655Y-92188068D01*
X190677365Y-92177264D01*
X190737839Y-92205184D01*
G37*
G36*
X139590697Y-91367052D02*
G01*
X139612437Y-91533204D01*
X139602554Y-91625069D01*
X139526997Y-91692567D01*
X139409761Y-91711003D01*
X139319194Y-91676902D01*
X139305263Y-91640183D01*
X139340973Y-91534201D01*
X139426598Y-91382167D01*
X139547933Y-91196986D01*
X139590697Y-91367052D01*
G37*
G36*
X138993443Y-91739320D02*
G01*
X139023822Y-91779227D01*
X138978012Y-91874101D01*
X138876874Y-91871007D01*
X138812099Y-91817785D01*
X138767591Y-91737493D01*
X138841382Y-91713568D01*
X138874487Y-91713019D01*
X138993443Y-91739320D01*
G37*
G36*
X140153760Y-91950228D02*
G01*
X140205407Y-92010216D01*
X140138512Y-92076469D01*
X139957101Y-92121391D01*
X139950675Y-92122048D01*
X139787373Y-92118163D01*
X139728925Y-92054962D01*
X139727423Y-92034097D01*
X139774038Y-91954871D01*
X139928881Y-91925017D01*
X139979547Y-91924099D01*
X140153760Y-91950228D01*
G37*
G36*
X139434230Y-91836177D02*
G01*
X139476582Y-91851998D01*
X139620280Y-91961856D01*
X139659867Y-92109803D01*
X139604219Y-92250045D01*
X139462213Y-92336791D01*
X139380773Y-92346260D01*
X139297951Y-92299478D01*
X139204286Y-92210582D01*
X139117889Y-92032842D01*
X139127762Y-91929142D01*
X139180816Y-91818416D01*
X139269139Y-91790487D01*
X139434230Y-91836177D01*
G37*
G36*
X139715164Y-92472941D02*
G01*
X139727423Y-92522160D01*
X139684564Y-92619065D01*
X139587256Y-92601598D01*
X139563250Y-92580794D01*
X139518431Y-92477810D01*
X139591663Y-92418980D01*
X139621883Y-92416620D01*
X139715164Y-92472941D01*
G37*
G36*
X139098988Y-92247797D02*
G01*
X139185551Y-92337858D01*
X139232385Y-92420652D01*
X139227339Y-92441106D01*
X139074710Y-92550530D01*
X138907448Y-92660740D01*
X138771120Y-92742684D01*
X138713930Y-92768421D01*
X138672022Y-92723956D01*
X138708165Y-92627624D01*
X138794769Y-92480040D01*
X138899091Y-92329849D01*
X138988390Y-92225697D01*
X139020945Y-92205540D01*
X139098988Y-92247797D01*
G37*
G36*
X153883790Y-92572631D02*
G01*
X153962659Y-92718080D01*
X153996986Y-92819407D01*
X154042711Y-93017234D01*
X154009975Y-93130462D01*
X153878381Y-93202678D01*
X153806763Y-93225855D01*
X153703254Y-93249325D01*
X153662501Y-93213793D01*
X153669200Y-93087618D01*
X153686204Y-92976624D01*
X153745030Y-92702172D01*
X153811069Y-92567418D01*
X153883790Y-92572631D01*
G37*
G36*
X154203705Y-93307042D02*
G01*
X154198726Y-93420476D01*
X154147177Y-93528781D01*
X154000338Y-93686413D01*
X153809309Y-93740743D01*
X153652721Y-93744643D01*
X153596990Y-93697386D01*
X153600423Y-93602640D01*
X153680082Y-93457928D01*
X153882620Y-93343790D01*
X153888974Y-93341361D01*
X154101493Y-93281424D01*
X154203705Y-93307042D01*
G37*
G36*
X153440717Y-93599496D02*
G01*
X153447645Y-93647922D01*
X153388196Y-93733661D01*
X153298309Y-93753462D01*
X153196666Y-93738058D01*
X153217080Y-93672386D01*
X153236565Y-93647922D01*
X153338133Y-93559473D01*
X153385900Y-93542382D01*
X153440717Y-93599496D01*
G37*
G36*
X154382008Y-93597382D02*
G01*
X154431650Y-93681165D01*
X154490271Y-93840854D01*
X154442968Y-93911128D01*
X154327146Y-93907469D01*
X154161036Y-93849212D01*
X154131023Y-93760784D01*
X154214344Y-93654494D01*
X154319426Y-93573120D01*
X154382008Y-93597382D01*
G37*
G36*
X153780186Y-93923687D02*
G01*
X153781917Y-94023864D01*
X153682377Y-94195530D01*
X153653018Y-94234039D01*
X153506592Y-94420190D01*
X153529888Y-94175353D01*
X153581544Y-93978453D01*
X153676315Y-93907190D01*
X153780186Y-93923687D01*
G37*
G36*
X128289194Y-93633528D02*
G01*
X128489854Y-93682995D01*
X128638299Y-93748563D01*
X128651984Y-93758673D01*
X128741094Y-93912065D01*
X128727728Y-94097906D01*
X128618148Y-94259328D01*
X128594870Y-94277173D01*
X128410497Y-94366521D01*
X128244417Y-94383036D01*
X128136895Y-94327865D01*
X128117231Y-94263573D01*
X128105525Y-94115021D01*
X128077666Y-93906847D01*
X128071061Y-93865603D01*
X128025666Y-93590763D01*
X128289194Y-93633528D01*
G37*
G36*
X124654992Y-93869574D02*
G01*
X124728811Y-94000108D01*
X124740720Y-94138235D01*
X124731610Y-94291103D01*
X124682701Y-94361954D01*
X124561623Y-94365786D01*
X124347597Y-94320369D01*
X124095573Y-94233801D01*
X123973594Y-94132393D01*
X123984241Y-94026824D01*
X124130098Y-93927771D01*
X124242917Y-93887452D01*
X124498746Y-93834903D01*
X124654992Y-93869574D01*
G37*
G36*
X126865971Y-92467119D02*
G01*
X127030152Y-92540807D01*
X127042646Y-92547159D01*
X127387751Y-92797596D01*
X127669323Y-93149183D01*
X127869201Y-93569867D01*
X127969220Y-94027591D01*
X127977285Y-94196652D01*
X127968135Y-94351566D01*
X127914577Y-94428104D01*
X127777451Y-94462597D01*
X127678254Y-94474058D01*
X127353050Y-94497165D01*
X126952420Y-94508611D01*
X126515614Y-94509056D01*
X126081884Y-94499160D01*
X125690480Y-94479586D01*
X125380654Y-94450993D01*
X125268420Y-94433486D01*
X124846260Y-94351523D01*
X124823999Y-94039694D01*
X124843123Y-93734353D01*
X124899783Y-93507202D01*
X125936842Y-93507202D01*
X125972022Y-93542382D01*
X126007202Y-93507202D01*
X125972022Y-93472022D01*
X125936842Y-93507202D01*
X124899783Y-93507202D01*
X124926273Y-93401001D01*
X125054222Y-93102694D01*
X125113996Y-93014681D01*
X126992243Y-93014681D01*
X127027423Y-93049861D01*
X127062603Y-93014681D01*
X127027423Y-92979501D01*
X126992243Y-93014681D01*
X125113996Y-93014681D01*
X125154920Y-92954424D01*
X125397893Y-92763418D01*
X125755827Y-92605810D01*
X126204898Y-92491729D01*
X126269414Y-92480511D01*
X126537214Y-92441419D01*
X126718862Y-92435472D01*
X126865971Y-92467119D01*
G37*
G36*
X125234732Y-94547719D02*
G01*
X125286010Y-94554081D01*
X126251271Y-94642068D01*
X127116496Y-94632763D01*
X127298654Y-94617156D01*
X127614126Y-94590238D01*
X127813871Y-94586875D01*
X127921053Y-94607968D01*
X127955615Y-94642800D01*
X127944573Y-94789080D01*
X127840991Y-94970236D01*
X127673320Y-95149286D01*
X127470012Y-95289247D01*
X127451121Y-95298575D01*
X127171562Y-95390072D01*
X126808440Y-95451956D01*
X126416742Y-95479208D01*
X126051461Y-95466812D01*
X125883466Y-95441638D01*
X125573732Y-95346285D01*
X125335995Y-95188247D01*
X125123572Y-94943989D01*
X124984595Y-94730778D01*
X124953478Y-94601627D01*
X125035198Y-94544590D01*
X125234732Y-94547719D01*
G37*
G36*
X180160289Y-92711445D02*
G01*
X180430635Y-92747572D01*
X180732709Y-92804713D01*
X181032071Y-92876692D01*
X181294280Y-92957333D01*
X181421593Y-93008288D01*
X181927051Y-93313717D01*
X182351349Y-93720134D01*
X182679422Y-94205789D01*
X182896203Y-94748931D01*
X182983319Y-95262898D01*
X182974257Y-95708320D01*
X182873524Y-96081644D01*
X182665818Y-96419119D01*
X182362894Y-96732884D01*
X182110325Y-96946823D01*
X181882128Y-97099934D01*
X181644690Y-97203493D01*
X181364398Y-97268775D01*
X181007639Y-97307055D01*
X180589058Y-97327897D01*
X180252472Y-97337451D01*
X179973466Y-97340263D01*
X179778379Y-97336449D01*
X179693552Y-97326122D01*
X179691966Y-97324005D01*
X179748085Y-97273692D01*
X179897184Y-97172342D01*
X180110382Y-97039284D01*
X180178021Y-96998745D01*
X180650745Y-96661607D01*
X180991839Y-96286009D01*
X181207429Y-95862218D01*
X181303641Y-95380499D01*
X181310249Y-95199786D01*
X181242130Y-94613311D01*
X181042004Y-94063464D01*
X180716215Y-93561162D01*
X180271107Y-93117324D01*
X179973407Y-92899242D01*
X179866266Y-92802312D01*
X179851333Y-92728266D01*
X179852545Y-92726936D01*
X179956112Y-92702508D01*
X180160289Y-92711445D01*
G37*
G36*
X108623869Y-97542163D02*
G01*
X108672642Y-97678045D01*
X108686020Y-97825752D01*
X108665906Y-97900710D01*
X108582207Y-97975845D01*
X108517937Y-97924797D01*
X108488110Y-97762034D01*
X108487534Y-97728809D01*
X108504871Y-97566033D01*
X108547500Y-97484673D01*
X108556554Y-97482548D01*
X108623869Y-97542163D01*
G37*
G36*
X109153974Y-97986439D02*
G01*
X109228884Y-98017942D01*
X109207138Y-98090393D01*
X109164506Y-98150969D01*
X109083857Y-98246007D01*
X109039090Y-98228498D01*
X109011568Y-98165525D01*
X108992475Y-98025734D01*
X109079749Y-97978019D01*
X109153974Y-97986439D01*
G37*
G36*
X108382951Y-98284593D02*
G01*
X108404743Y-98373809D01*
X108333641Y-98497222D01*
X108195406Y-98498472D01*
X108116664Y-98460997D01*
X108030302Y-98370801D01*
X108068788Y-98295015D01*
X108216560Y-98257399D01*
X108250585Y-98256509D01*
X108382951Y-98284593D01*
G37*
G36*
X108821831Y-98100330D02*
G01*
X108949329Y-98236076D01*
X109022476Y-98421083D01*
X109019859Y-98579757D01*
X108957897Y-98708440D01*
X108844522Y-98735187D01*
X108651704Y-98666074D01*
X108642331Y-98661588D01*
X108531646Y-98578004D01*
X108497102Y-98441928D01*
X108501611Y-98332140D01*
X108537988Y-98151094D01*
X108621672Y-98071153D01*
X108670619Y-98059489D01*
X108821831Y-98100330D01*
G37*
G36*
X109201396Y-98735607D02*
G01*
X109282228Y-98862001D01*
X109322706Y-98991223D01*
X109318828Y-99029454D01*
X109254753Y-99043171D01*
X109173545Y-99000207D01*
X109083753Y-98890980D01*
X109050784Y-98768895D01*
X109083869Y-98687680D01*
X109118300Y-98678670D01*
X109201396Y-98735607D01*
G37*
G36*
X108614488Y-98778584D02*
G01*
X108703652Y-98822087D01*
X108790909Y-98883315D01*
X108796709Y-98963330D01*
X108732400Y-99103527D01*
X108649445Y-99254753D01*
X108597786Y-99304376D01*
X108546967Y-99277239D01*
X108534441Y-99265004D01*
X108503858Y-99175336D01*
X108489444Y-99022367D01*
X108492010Y-98864952D01*
X108512365Y-98761950D01*
X108527340Y-98749030D01*
X108614488Y-98778584D01*
G37*
G36*
X131757744Y-99425544D02*
G01*
X131757705Y-99520466D01*
X131689601Y-99614692D01*
X131607346Y-99652450D01*
X131512452Y-99645413D01*
X131520204Y-99559553D01*
X131559072Y-99444043D01*
X131565650Y-99411697D01*
X131623404Y-99385879D01*
X131676350Y-99382271D01*
X131757744Y-99425544D01*
G37*
G36*
X131217739Y-99845555D02*
G01*
X131185131Y-100007044D01*
X131171142Y-100044938D01*
X131082299Y-100143740D01*
X130936869Y-100116864D01*
X130832006Y-100049181D01*
X130741623Y-99961945D01*
X130757836Y-99897890D01*
X130893765Y-99837318D01*
X130993214Y-99807172D01*
X131157006Y-99783261D01*
X131217739Y-99845555D01*
G37*
G36*
X132066966Y-99830817D02*
G01*
X132239479Y-99861740D01*
X132347828Y-99874790D01*
X132348407Y-99874792D01*
X132411129Y-99906462D01*
X132365887Y-99986702D01*
X132226371Y-100093353D01*
X132205625Y-100105882D01*
X132008930Y-100204498D01*
X131897987Y-100205347D01*
X131852105Y-100102705D01*
X131847091Y-100006717D01*
X131858203Y-99857492D01*
X131920614Y-99811224D01*
X132066966Y-99830817D01*
G37*
G36*
X131623782Y-99765370D02*
G01*
X131722959Y-99822890D01*
X131767640Y-99939988D01*
X131776731Y-100118266D01*
X131754858Y-100344669D01*
X131685212Y-100455522D01*
X131665436Y-100465325D01*
X131528992Y-100501898D01*
X131418078Y-100466848D01*
X131328450Y-100403851D01*
X131242352Y-100266581D01*
X131245135Y-100090782D01*
X131317121Y-99918997D01*
X131438631Y-99793768D01*
X131589988Y-99757637D01*
X131623782Y-99765370D01*
G37*
G36*
X131774686Y-100631935D02*
G01*
X131776731Y-100648753D01*
X131723188Y-100717069D01*
X131706371Y-100719113D01*
X131638055Y-100665571D01*
X131636010Y-100648753D01*
X131689553Y-100580438D01*
X131706371Y-100578393D01*
X131774686Y-100631935D01*
G37*
G36*
X131343871Y-100571562D02*
G01*
X131325855Y-100691708D01*
X131218475Y-100786998D01*
X131058879Y-100855254D01*
X131002911Y-100832944D01*
X131002769Y-100829234D01*
X131025074Y-100747972D01*
X131070877Y-100619497D01*
X131159326Y-100488032D01*
X131246777Y-100481724D01*
X131343871Y-100571562D01*
G37*
G36*
X146921302Y-101267329D02*
G01*
X146941476Y-101283771D01*
X147101629Y-101452575D01*
X147138009Y-101579162D01*
X147054274Y-101649662D01*
X146854083Y-101650205D01*
X146845189Y-101648814D01*
X146730457Y-101608166D01*
X146712165Y-101509127D01*
X146727778Y-101434743D01*
X146778632Y-101267638D01*
X146833512Y-101218635D01*
X146921302Y-101267329D01*
G37*
G36*
X147653930Y-101817620D02*
G01*
X147642936Y-101844875D01*
X147579710Y-101911997D01*
X147568423Y-101915235D01*
X147538202Y-101860798D01*
X147537396Y-101844875D01*
X147591485Y-101777219D01*
X147611908Y-101774515D01*
X147653930Y-101817620D01*
G37*
G36*
X146540624Y-101830927D02*
G01*
X146552354Y-101880055D01*
X146499885Y-101968559D01*
X146388940Y-101980831D01*
X146319733Y-101940601D01*
X146303370Y-101854510D01*
X146383876Y-101786207D01*
X146450966Y-101774515D01*
X146540624Y-101830927D01*
G37*
G36*
X147259746Y-101803567D02*
G01*
X147373063Y-101888165D01*
X147357091Y-102024469D01*
X147252592Y-102165075D01*
X147115690Y-102295118D01*
X147010658Y-102323102D01*
X146884162Y-102250648D01*
X146798075Y-102178879D01*
X146661312Y-102016138D01*
X146657595Y-101887676D01*
X146781322Y-101803728D01*
X147019431Y-101774515D01*
X147259746Y-101803567D01*
G37*
G36*
X147539955Y-102178154D02*
G01*
X147595520Y-102276143D01*
X147667328Y-102442551D01*
X147737415Y-102629235D01*
X147787816Y-102788055D01*
X147800568Y-102870870D01*
X147799231Y-102872974D01*
X147733659Y-102849498D01*
X147592634Y-102761843D01*
X147475795Y-102679358D01*
X147177852Y-102460248D01*
X147335584Y-102292350D01*
X147454721Y-102192971D01*
X147535320Y-102174128D01*
X147539955Y-102178154D01*
G37*
G36*
X146731124Y-102287599D02*
G01*
X146849350Y-102348048D01*
X146948941Y-102423029D01*
X146973468Y-102463001D01*
X146930891Y-102540951D01*
X146822926Y-102686127D01*
X146733894Y-102794736D01*
X146495367Y-103076177D01*
X146565247Y-102689196D01*
X146607290Y-102473435D01*
X146642404Y-102322997D01*
X146658075Y-102278925D01*
X146731124Y-102287599D01*
G37*
G36*
X161688535Y-101375108D02*
G01*
X162087020Y-101428194D01*
X162207479Y-101451994D01*
X162443677Y-101509949D01*
X162568245Y-101564910D01*
X162609037Y-101632516D01*
X162606686Y-101676147D01*
X162588539Y-101815665D01*
X162564907Y-102041164D01*
X162545720Y-102249446D01*
X162523852Y-102457040D01*
X162486447Y-102595033D01*
X162412592Y-102667477D01*
X162281373Y-102678424D01*
X162071877Y-102631929D01*
X161763191Y-102532043D01*
X161521183Y-102448001D01*
X161083250Y-102280773D01*
X160707832Y-102109509D01*
X160413626Y-101944593D01*
X160219330Y-101796409D01*
X160144839Y-101683529D01*
X160186888Y-101570329D01*
X160345531Y-101478425D01*
X160597892Y-101410383D01*
X160921096Y-101368771D01*
X161292269Y-101356157D01*
X161688535Y-101375108D01*
G37*
G36*
X165347453Y-100238148D02*
G01*
X165932613Y-100366917D01*
X166083664Y-100416610D01*
X166520589Y-100642097D01*
X166892473Y-100972874D01*
X167188605Y-101384422D01*
X167398272Y-101852221D01*
X167510762Y-102351751D01*
X167515363Y-102858492D01*
X167401362Y-103347925D01*
X167383906Y-103392797D01*
X167279398Y-103601289D01*
X167156240Y-103703639D01*
X166976400Y-103716198D01*
X166745706Y-103667199D01*
X166500979Y-103603121D01*
X166330243Y-103563296D01*
X166171673Y-103535140D01*
X165963448Y-103506070D01*
X165936565Y-103502502D01*
X165726301Y-103467115D01*
X165422117Y-103406380D01*
X165066588Y-103329160D01*
X164740443Y-103253503D01*
X164340638Y-103159161D01*
X163921078Y-103062623D01*
X163538545Y-102976836D01*
X163308793Y-102927063D01*
X163015571Y-102860314D01*
X162830879Y-102801764D01*
X162724302Y-102737336D01*
X162665424Y-102652953D01*
X162653294Y-102623702D01*
X162617619Y-102381613D01*
X162652172Y-102064980D01*
X162732318Y-101774515D01*
X162797760Y-101562018D01*
X162833200Y-101422714D01*
X162910845Y-101261545D01*
X163067133Y-101049237D01*
X163269664Y-100821091D01*
X163486042Y-100612411D01*
X163683867Y-100458499D01*
X163755401Y-100417832D01*
X164225753Y-100263623D01*
X164767468Y-100203723D01*
X165347453Y-100238148D01*
G37*
G36*
X167925772Y-102783902D02*
G01*
X168152883Y-102847805D01*
X168427014Y-102937563D01*
X168706550Y-103039471D01*
X168949873Y-103139828D01*
X168970086Y-103149010D01*
X169216405Y-103299024D01*
X169426085Y-103492616D01*
X169569438Y-103695994D01*
X169616776Y-103875362D01*
X169615961Y-103884236D01*
X169593695Y-103982932D01*
X169533117Y-104037555D01*
X169399523Y-104062936D01*
X169173130Y-104073478D01*
X168907848Y-104063707D01*
X168565991Y-104027043D01*
X168207559Y-103970498D01*
X168084337Y-103946273D01*
X167795952Y-103883676D01*
X167563840Y-103829027D01*
X167419485Y-103789968D01*
X167388167Y-103777272D01*
X167392250Y-103699737D01*
X167436630Y-103537688D01*
X167467649Y-103447136D01*
X167546266Y-103213549D01*
X167608338Y-103000483D01*
X167619868Y-102953047D01*
X167695922Y-102798559D01*
X167787297Y-102759556D01*
X167925772Y-102783902D01*
G37*
G36*
X162926047Y-102969501D02*
G01*
X163192984Y-103018833D01*
X163576599Y-103101307D01*
X164086309Y-103218672D01*
X164107202Y-103223587D01*
X164382764Y-103285912D01*
X164743591Y-103362965D01*
X165202750Y-103457433D01*
X165773308Y-103572001D01*
X166468333Y-103709355D01*
X166517035Y-103718921D01*
X166799880Y-103783910D01*
X167000823Y-103849232D01*
X167094025Y-103906079D01*
X167097506Y-103916803D01*
X167043366Y-104051225D01*
X166901216Y-104231853D01*
X166701461Y-104428866D01*
X166474505Y-104612445D01*
X166250754Y-104752768D01*
X166239203Y-104758609D01*
X165782241Y-104908041D01*
X165270369Y-104929408D01*
X164707088Y-104822669D01*
X164564542Y-104777952D01*
X163998464Y-104545751D01*
X163537269Y-104259305D01*
X163149456Y-103899034D01*
X163147895Y-103897290D01*
X162975505Y-103673800D01*
X162830611Y-103430743D01*
X162730176Y-103203857D01*
X162691165Y-103028883D01*
X162704548Y-102963277D01*
X162766373Y-102951565D01*
X162926047Y-102969501D01*
G37*
G36*
X188451141Y-102341645D02*
G01*
X188502660Y-102453276D01*
X188540777Y-102643119D01*
X188556253Y-102879966D01*
X188556263Y-102882687D01*
X188552883Y-103097495D01*
X188527681Y-103207034D01*
X188460508Y-103246746D01*
X188346260Y-103252077D01*
X188187462Y-103224334D01*
X188135179Y-103159071D01*
X188156093Y-103047315D01*
X188208102Y-102859591D01*
X188275110Y-102646592D01*
X188341017Y-102459010D01*
X188389728Y-102347539D01*
X188395457Y-102339433D01*
X188451141Y-102341645D01*
G37*
G36*
X187435231Y-103286234D02*
G01*
X187519529Y-103295069D01*
X187732111Y-103324314D01*
X187879069Y-103352102D01*
X187917938Y-103365535D01*
X187915867Y-103443293D01*
X187863198Y-103573280D01*
X187790886Y-103693042D01*
X187732117Y-103740458D01*
X187644844Y-103702345D01*
X187488571Y-103611163D01*
X187413988Y-103563534D01*
X187221784Y-103420858D01*
X187160677Y-103328558D01*
X187231535Y-103284421D01*
X187435231Y-103286234D01*
G37*
G36*
X189070897Y-103494151D02*
G01*
X189112993Y-103577106D01*
X189022245Y-103696980D01*
X188997091Y-103717014D01*
X188847406Y-103804259D01*
X188774249Y-103784420D01*
X188768420Y-103750353D01*
X188745212Y-103632439D01*
X188725713Y-103574452D01*
X188726135Y-103495459D01*
X188828474Y-103465278D01*
X188901613Y-103463158D01*
X189070897Y-103494151D01*
G37*
G36*
X188464550Y-103405619D02*
G01*
X188554308Y-103463523D01*
X188597056Y-103586288D01*
X188636908Y-103758016D01*
X188663675Y-103860238D01*
X188632934Y-103958662D01*
X188530606Y-104086220D01*
X188402822Y-104194947D01*
X188301220Y-104237119D01*
X188207878Y-104190167D01*
X188079193Y-104076450D01*
X188072385Y-104069272D01*
X187966012Y-103918859D01*
X187947163Y-103750839D01*
X187962411Y-103647111D01*
X188004853Y-103481606D01*
X188080253Y-103409870D01*
X188237550Y-103393008D01*
X188282390Y-103392797D01*
X188464550Y-103405619D01*
G37*
G36*
X188692795Y-104255636D02*
G01*
X188698060Y-104375363D01*
X188676012Y-104543776D01*
X188606973Y-104580933D01*
X188501052Y-104504487D01*
X188423134Y-104385562D01*
X188474356Y-104289606D01*
X188557340Y-104237119D01*
X188655298Y-104200373D01*
X188692795Y-104255636D01*
G37*
G36*
X187896466Y-104113387D02*
G01*
X188012516Y-104181944D01*
X188109393Y-104273782D01*
X188135179Y-104330855D01*
X188088104Y-104427031D01*
X187967503Y-104576981D01*
X187868362Y-104680180D01*
X187662605Y-104866096D01*
X187540233Y-104940774D01*
X187501938Y-104908145D01*
X187526078Y-104827683D01*
X187586267Y-104664515D01*
X187664163Y-104464999D01*
X187741422Y-104275494D01*
X187799702Y-104142359D01*
X187818424Y-104108288D01*
X187896466Y-104113387D01*
G37*
G36*
X175999369Y-106102775D02*
G01*
X176015482Y-106239430D01*
X175964359Y-106352246D01*
X175933674Y-106371074D01*
X175822773Y-106378626D01*
X175792627Y-106357060D01*
X175777274Y-106246703D01*
X175813323Y-106115172D01*
X175877582Y-106024964D01*
X175919069Y-106016346D01*
X175999369Y-106102775D01*
G37*
G36*
X175599350Y-106615415D02*
G01*
X175611080Y-106664543D01*
X175558611Y-106753046D01*
X175447666Y-106765319D01*
X175378459Y-106725089D01*
X175362096Y-106638997D01*
X175442601Y-106570695D01*
X175509692Y-106559002D01*
X175599350Y-106615415D01*
G37*
G36*
X176629956Y-106447138D02*
G01*
X176658382Y-106544447D01*
X176593646Y-106704348D01*
X176496657Y-106824752D01*
X176413570Y-106805649D01*
X176359028Y-106682133D01*
X176322536Y-106511917D01*
X176349434Y-106436858D01*
X176458884Y-106418524D01*
X176490581Y-106418282D01*
X176629956Y-106447138D01*
G37*
G36*
X176171546Y-106558058D02*
G01*
X176234015Y-106709057D01*
X176249806Y-106760646D01*
X176302827Y-107032254D01*
X176272960Y-107197244D01*
X176167058Y-107249602D01*
X175991971Y-107183318D01*
X175869251Y-107094592D01*
X175726375Y-106939159D01*
X175689953Y-106770716D01*
X175693351Y-106727731D01*
X175733488Y-106580900D01*
X175839554Y-106517247D01*
X175941221Y-106502078D01*
X176088022Y-106500858D01*
X176171546Y-106558058D01*
G37*
G36*
X176458149Y-107335001D02*
G01*
X176521151Y-107480363D01*
X176475782Y-107542174D01*
X176453193Y-107544044D01*
X176368004Y-107487691D01*
X176338960Y-107435469D01*
X176326664Y-107314474D01*
X176379337Y-107271141D01*
X176458149Y-107335001D01*
G37*
G36*
X175862025Y-107202931D02*
G01*
X175964375Y-107299584D01*
X176011006Y-107395566D01*
X175985596Y-107521816D01*
X175920220Y-107657211D01*
X175804998Y-107855290D01*
X175732907Y-107922406D01*
X175694882Y-107855753D01*
X175681854Y-107652529D01*
X175681440Y-107583376D01*
X175701867Y-107323478D01*
X175762424Y-107196300D01*
X175862025Y-107202931D01*
G37*
G36*
X113485754Y-107657277D02*
G01*
X113504267Y-107736070D01*
X113551131Y-107928290D01*
X113591242Y-108054155D01*
X113588018Y-108146780D01*
X113474693Y-108170214D01*
X113254432Y-108128784D01*
X113150356Y-108052636D01*
X113149276Y-107898971D01*
X113239838Y-107678970D01*
X113340739Y-107532718D01*
X113421987Y-107525331D01*
X113485754Y-107657277D01*
G37*
G36*
X112837602Y-108233606D02*
G01*
X112849861Y-108282825D01*
X112807002Y-108379730D01*
X112709693Y-108362262D01*
X112685687Y-108341459D01*
X112640869Y-108238475D01*
X112714101Y-108179645D01*
X112744321Y-108177285D01*
X112837602Y-108233606D01*
G37*
G36*
X114097142Y-108492961D02*
G01*
X114097337Y-108567303D01*
X114005048Y-108627098D01*
X113880144Y-108665075D01*
X113838561Y-108628601D01*
X113834902Y-108564266D01*
X113893561Y-108478314D01*
X113975623Y-108458725D01*
X114097142Y-108492961D01*
G37*
G36*
X113426422Y-108270656D02*
G01*
X113558088Y-108320481D01*
X113667462Y-108447817D01*
X113694983Y-108627753D01*
X113641044Y-108798704D01*
X113554515Y-108880322D01*
X113450888Y-108909857D01*
X113338222Y-108867419D01*
X113176818Y-108736816D01*
X113155854Y-108717720D01*
X112983435Y-108528921D01*
X112935224Y-108390253D01*
X112941512Y-108364007D01*
X113040518Y-108280248D01*
X113219592Y-108247900D01*
X113426422Y-108270656D01*
G37*
G36*
X113811776Y-109000998D02*
G01*
X113834902Y-109091966D01*
X113829189Y-109204459D01*
X113782572Y-109215027D01*
X113676592Y-109156691D01*
X113567439Y-109057480D01*
X113580366Y-108979122D01*
X113694182Y-108951246D01*
X113811776Y-109000998D01*
G37*
G36*
X112992183Y-108716344D02*
G01*
X113115659Y-108829118D01*
X113122896Y-108836759D01*
X113279740Y-109003712D01*
X112964321Y-109188559D01*
X112770323Y-109294150D01*
X112620816Y-109361063D01*
X112572296Y-109373407D01*
X112559296Y-109317630D01*
X112604642Y-109173259D01*
X112673961Y-109021606D01*
X112780741Y-108829278D01*
X112869544Y-108701497D01*
X112909142Y-108669806D01*
X112992183Y-108716344D01*
G37*
G36*
X135716897Y-108488042D02*
G01*
X135660246Y-108584966D01*
X135605493Y-108599446D01*
X135523433Y-108558536D01*
X135521941Y-108515893D01*
X135591973Y-108422978D01*
X135676284Y-108411164D01*
X135716897Y-108488042D01*
G37*
G36*
X135138840Y-108720898D02*
G01*
X135155425Y-108818437D01*
X135059156Y-108942382D01*
X134960234Y-108976198D01*
X134848243Y-108892854D01*
X134845038Y-108889331D01*
X134766445Y-108788143D01*
X134787332Y-108737287D01*
X134840113Y-108713679D01*
X135026201Y-108678112D01*
X135138840Y-108720898D01*
G37*
G36*
X136075294Y-108884416D02*
G01*
X136169704Y-108976555D01*
X136138619Y-109057152D01*
X135995419Y-109091965D01*
X135994185Y-109091966D01*
X135879550Y-109040203D01*
X135857617Y-108951246D01*
X135872606Y-108837625D01*
X135940071Y-108822118D01*
X136075294Y-108884416D01*
G37*
G36*
X135657900Y-108759533D02*
G01*
X135712149Y-108841950D01*
X135716897Y-108917808D01*
X135666326Y-109080494D01*
X135536416Y-109164068D01*
X135306135Y-109227053D01*
X135180935Y-109199888D01*
X135154016Y-109122521D01*
X135209845Y-108902636D01*
X135361609Y-108768905D01*
X135508292Y-108740166D01*
X135657900Y-108759533D01*
G37*
G36*
X135630401Y-109354989D02*
G01*
X135640990Y-109461706D01*
X135584149Y-109544380D01*
X135493122Y-109532027D01*
X135444039Y-109489289D01*
X135404247Y-109375554D01*
X135487695Y-109309793D01*
X135552723Y-109303047D01*
X135630401Y-109354989D01*
G37*
G36*
X158582073Y-108191910D02*
G01*
X158582856Y-108230055D01*
X158557211Y-108353588D01*
X158513573Y-108388365D01*
X158446002Y-108347963D01*
X158444290Y-108335595D01*
X158479445Y-108236935D01*
X158513573Y-108177285D01*
X158564897Y-108122028D01*
X158582073Y-108191910D01*
G37*
G36*
X158193356Y-108556328D02*
G01*
X158219436Y-108652216D01*
X158204170Y-108774755D01*
X158103092Y-108799570D01*
X157906618Y-108728820D01*
X157897922Y-108724652D01*
X157763652Y-108632777D01*
X157761020Y-108562055D01*
X157888487Y-108529602D01*
X157915512Y-108529086D01*
X158070570Y-108522650D01*
X158144182Y-108511495D01*
X158193356Y-108556328D01*
G37*
G36*
X158983077Y-108612362D02*
G01*
X159130955Y-108654060D01*
X159195980Y-108710452D01*
X159159095Y-108787009D01*
X159045965Y-108864563D01*
X158917156Y-108911178D01*
X158837213Y-108899633D01*
X158801475Y-108801090D01*
X158795013Y-108723766D01*
X158827606Y-108627349D01*
X158948832Y-108608959D01*
X158983077Y-108612362D01*
G37*
G36*
X158612699Y-108589545D02*
G01*
X158674011Y-108731461D01*
X158705023Y-108895638D01*
X158688378Y-109022883D01*
X158685007Y-109028833D01*
X158579632Y-109089375D01*
X158441168Y-109047604D01*
X158371123Y-108984343D01*
X158329413Y-108847609D01*
X158363737Y-108687115D01*
X158452096Y-108562714D01*
X158538449Y-108529086D01*
X158612699Y-108589545D01*
G37*
G36*
X158370331Y-109136761D02*
G01*
X158357045Y-109237114D01*
X158278320Y-109341984D01*
X158232132Y-109373407D01*
X158123538Y-109416058D01*
X158091412Y-109406437D01*
X158128556Y-109291211D01*
X158210582Y-109165423D01*
X158293380Y-109094028D01*
X158304968Y-109091966D01*
X158370331Y-109136761D01*
G37*
G36*
X182224324Y-113243213D02*
G01*
X182279879Y-113409063D01*
X182206779Y-113527247D01*
X182066620Y-113573948D01*
X181927612Y-113575570D01*
X181874694Y-113544650D01*
X181915495Y-113455711D01*
X182011801Y-113317514D01*
X182014897Y-113313573D01*
X182117886Y-113201459D01*
X182184117Y-113196363D01*
X182224324Y-113243213D01*
G37*
G36*
X182617361Y-113676744D02*
G01*
X182699835Y-113705843D01*
X182662003Y-113763902D01*
X182629132Y-113791920D01*
X182521997Y-113843983D01*
X182470409Y-113804829D01*
X182452609Y-113703516D01*
X182549496Y-113668810D01*
X182617361Y-113676744D01*
G37*
G36*
X181549560Y-113840182D02*
G01*
X181546773Y-113911634D01*
X181466264Y-114011109D01*
X181361950Y-113974940D01*
X181357155Y-113970267D01*
X181312113Y-113869638D01*
X181391405Y-113811325D01*
X181448761Y-113806094D01*
X181549560Y-113840182D01*
G37*
G36*
X182284445Y-113724627D02*
G01*
X182327405Y-113788298D01*
X182314002Y-113927804D01*
X182190289Y-114069738D01*
X182011891Y-114195291D01*
X181863679Y-114215558D01*
X181717291Y-114153642D01*
X181637547Y-114075155D01*
X181655849Y-113955530D01*
X181673097Y-113915484D01*
X181792347Y-113771480D01*
X181964509Y-113685737D01*
X182143801Y-113667153D01*
X182284445Y-113724627D01*
G37*
G36*
X182356312Y-114235427D02*
G01*
X182353355Y-114406062D01*
X182330934Y-114537346D01*
X182286556Y-114541816D01*
X182205565Y-114457763D01*
X182123667Y-114347455D01*
X182141352Y-114273217D01*
X182189675Y-114228317D01*
X182303369Y-114169648D01*
X182356312Y-114235427D01*
G37*
G36*
X181719667Y-114318544D02*
G01*
X181727148Y-114327456D01*
X181763522Y-114418354D01*
X181688859Y-114509785D01*
X181649748Y-114538536D01*
X181493958Y-114632847D01*
X181430130Y-114624634D01*
X181448149Y-114508234D01*
X181472506Y-114439335D01*
X181549969Y-114275430D01*
X181624202Y-114238749D01*
X181719667Y-114318544D01*
G37*
G36*
X146200553Y-114896676D02*
G01*
X146165373Y-114931856D01*
X146130193Y-114896676D01*
X146165373Y-114861495D01*
X146200553Y-114896676D01*
G37*
G36*
X145762759Y-115055915D02*
G01*
X145765962Y-115119515D01*
X145700867Y-115236794D01*
X145600939Y-115266957D01*
X145534428Y-115217010D01*
X145522856Y-115096223D01*
X145615250Y-115013263D01*
X145682164Y-115002216D01*
X145762759Y-115055915D01*
G37*
G36*
X146511419Y-115185644D02*
G01*
X146613275Y-115263142D01*
X146578359Y-115357879D01*
X146481994Y-115424376D01*
X146378756Y-115461699D01*
X146343916Y-115397164D01*
X146341274Y-115321312D01*
X146350075Y-115181516D01*
X146403067Y-115150576D01*
X146511419Y-115185644D01*
G37*
G36*
X146161396Y-115095057D02*
G01*
X146192596Y-115187663D01*
X146187211Y-115336426D01*
X146153603Y-115520804D01*
X146077897Y-115604821D01*
X146013702Y-115621890D01*
X145872032Y-115607277D01*
X145813435Y-115564873D01*
X145798889Y-115429756D01*
X145858924Y-115263948D01*
X145962921Y-115125608D01*
X146072617Y-115072576D01*
X146161396Y-115095057D01*
G37*
G36*
X145684579Y-115658910D02*
G01*
X145693000Y-115742411D01*
X145684579Y-115752724D01*
X145642750Y-115743065D01*
X145637673Y-115705817D01*
X145663416Y-115647902D01*
X145684579Y-115658910D01*
G37*
G36*
X146106740Y-115799630D02*
G01*
X146115161Y-115883131D01*
X146106740Y-115893444D01*
X146064911Y-115883785D01*
X146059833Y-115846537D01*
X146085577Y-115788623D01*
X146106740Y-115799630D01*
G37*
G36*
X171459833Y-116022437D02*
G01*
X171519555Y-116121970D01*
X171530193Y-116198338D01*
X171496918Y-116331297D01*
X171459833Y-116374238D01*
X171410250Y-116346463D01*
X171389538Y-116208739D01*
X171389473Y-116198338D01*
X171408209Y-116055315D01*
X171456484Y-116020571D01*
X171459833Y-116022437D01*
G37*
G36*
X172010840Y-116374847D02*
G01*
X172022714Y-116405265D01*
X171976160Y-116497143D01*
X171885920Y-116519146D01*
X171856628Y-116501319D01*
X171813826Y-116399183D01*
X171889134Y-116341100D01*
X171917174Y-116339058D01*
X172010840Y-116374847D01*
G37*
G36*
X171233984Y-116676225D02*
G01*
X171248753Y-116728247D01*
X171192383Y-116819602D01*
X171143213Y-116831579D01*
X171049522Y-116797585D01*
X171037673Y-116768746D01*
X171093666Y-116691829D01*
X171143213Y-116665414D01*
X171233984Y-116676225D01*
G37*
G36*
X171710089Y-116512921D02*
G01*
X171779148Y-116641622D01*
X171781555Y-116650953D01*
X171796857Y-116860600D01*
X171739081Y-116999498D01*
X171631802Y-117046180D01*
X171498598Y-116979177D01*
X171463047Y-116940992D01*
X171396279Y-116779658D01*
X171422765Y-116617056D01*
X171528126Y-116508059D01*
X171580476Y-116492800D01*
X171710089Y-116512921D01*
G37*
G36*
X171950309Y-117096201D02*
G01*
X171952354Y-117113019D01*
X171898812Y-117181335D01*
X171881994Y-117183379D01*
X171813678Y-117129837D01*
X171811634Y-117113019D01*
X171865176Y-117044704D01*
X171881994Y-117042659D01*
X171950309Y-117096201D01*
G37*
G36*
X171561449Y-117177030D02*
G01*
X171573702Y-117289922D01*
X171526613Y-117411156D01*
X171452305Y-117464820D01*
X171405059Y-117404563D01*
X171389473Y-117288919D01*
X171420283Y-117149562D01*
X171492449Y-117114159D01*
X171561449Y-117177030D01*
G37*
G36*
X190657681Y-117450740D02*
G01*
X190667066Y-117464820D01*
X190734072Y-117644526D01*
X190691249Y-117782816D01*
X190597783Y-117837007D01*
X190487875Y-117835009D01*
X190458126Y-117727532D01*
X190458141Y-117722083D01*
X190490590Y-117546950D01*
X190528501Y-117464820D01*
X190594732Y-117394656D01*
X190657681Y-117450740D01*
G37*
G36*
X191203762Y-117838305D02*
G01*
X191228803Y-117850427D01*
X191272839Y-117934629D01*
X191263200Y-117962202D01*
X191157993Y-118023441D01*
X191029864Y-118000181D01*
X190984457Y-117956843D01*
X190995592Y-117881834D01*
X191088381Y-117833747D01*
X191203762Y-117838305D01*
G37*
G36*
X190245983Y-118197737D02*
G01*
X190189332Y-118294662D01*
X190134579Y-118309141D01*
X190052519Y-118268231D01*
X190051027Y-118225588D01*
X190121059Y-118132673D01*
X190205370Y-118120859D01*
X190245983Y-118197737D01*
G37*
G36*
X190855035Y-118009604D02*
G01*
X190920857Y-118133021D01*
X190876135Y-118277535D01*
X190871822Y-118282879D01*
X190740700Y-118361341D01*
X190576718Y-118373017D01*
X190444321Y-118319283D01*
X190411803Y-118273065D01*
X190419390Y-118126875D01*
X190528457Y-118007795D01*
X190700507Y-117957364D01*
X190704411Y-117957340D01*
X190855035Y-118009604D01*
G37*
G36*
X191078397Y-118417493D02*
G01*
X191090304Y-118449861D01*
X191033315Y-118512283D01*
X190984764Y-118520221D01*
X190891131Y-118482229D01*
X190879224Y-118449861D01*
X190936212Y-118387439D01*
X190984764Y-118379501D01*
X191078397Y-118417493D01*
G37*
G36*
X190514856Y-118512454D02*
G01*
X190550787Y-118579463D01*
X190470198Y-118684085D01*
X190458726Y-118694617D01*
X190355945Y-118779998D01*
X190320370Y-118764678D01*
X190316343Y-118675999D01*
X190351875Y-118521450D01*
X190449210Y-118484452D01*
X190514856Y-118512454D01*
G37*
G36*
X110422001Y-117971803D02*
G01*
X110445146Y-118029394D01*
X110472126Y-118193646D01*
X110431169Y-118255293D01*
X110304563Y-118304438D01*
X110250566Y-118234662D01*
X110247614Y-118186011D01*
X110285825Y-118016203D01*
X110314361Y-117959034D01*
X110370740Y-117906404D01*
X110422001Y-117971803D01*
G37*
G36*
X110851072Y-118426902D02*
G01*
X110917060Y-118493337D01*
X110910401Y-118527594D01*
X110825466Y-118581616D01*
X110719696Y-118583194D01*
X110668697Y-118531948D01*
X110720319Y-118427960D01*
X110848299Y-118425856D01*
X110851072Y-118426902D01*
G37*
G36*
X110010650Y-118494930D02*
G01*
X110035456Y-118555401D01*
X109979411Y-118635088D01*
X109857873Y-118662447D01*
X109740743Y-118623510D01*
X109732476Y-118615948D01*
X109714097Y-118531309D01*
X109800149Y-118465659D01*
X109898889Y-118449861D01*
X110010650Y-118494930D01*
G37*
G36*
X110369667Y-118392418D02*
G01*
X110520366Y-118442811D01*
X110580997Y-118575908D01*
X110585421Y-118608171D01*
X110582255Y-118748986D01*
X110504973Y-118798104D01*
X110438837Y-118801662D01*
X110289258Y-118783962D01*
X110223083Y-118754755D01*
X110186447Y-118654405D01*
X110176177Y-118539001D01*
X110198372Y-118418675D01*
X110293410Y-118386748D01*
X110369667Y-118392418D01*
G37*
G36*
X110298673Y-118903523D02*
G01*
X110294468Y-118992956D01*
X110232465Y-119069030D01*
X110112689Y-119148304D01*
X110046400Y-119099608D01*
X110035456Y-119012742D01*
X110085209Y-118895149D01*
X110176177Y-118872022D01*
X110298673Y-118903523D01*
G37*
G36*
X128570897Y-123975281D02*
G01*
X128637550Y-124161353D01*
X128679376Y-124324930D01*
X128748382Y-124639495D01*
X128774082Y-124843550D01*
X128754125Y-124961213D01*
X128686158Y-125016602D01*
X128610526Y-125031076D01*
X128421661Y-125031241D01*
X128311452Y-125015154D01*
X128251600Y-124990154D01*
X128222175Y-124937624D01*
X128225160Y-124833032D01*
X128262537Y-124651847D01*
X128336289Y-124369535D01*
X128375099Y-124227601D01*
X128446370Y-124010547D01*
X128509403Y-123925726D01*
X128570897Y-123975281D01*
G37*
G36*
X129574380Y-125152034D02*
G01*
X129748588Y-125201431D01*
X129806648Y-125270392D01*
X129755006Y-125331806D01*
X129626767Y-125441557D01*
X129461960Y-125569235D01*
X129300610Y-125684433D01*
X129182749Y-125756743D01*
X129152520Y-125767313D01*
X129111186Y-125708716D01*
X129077033Y-125609002D01*
X129041162Y-125405234D01*
X129033647Y-125292382D01*
X129052060Y-125189080D01*
X129134848Y-125143764D01*
X129308372Y-125134072D01*
X129574380Y-125152034D01*
G37*
G36*
X127220449Y-124998263D02*
G01*
X127438064Y-125045560D01*
X127625020Y-125064789D01*
X127843686Y-125091394D01*
X127945411Y-125181314D01*
X127944063Y-125354873D01*
X127908700Y-125480492D01*
X127842230Y-125655043D01*
X127786875Y-125755218D01*
X127772533Y-125764773D01*
X127703938Y-125719329D01*
X127562339Y-125602090D01*
X127377289Y-125437619D01*
X127361634Y-125423286D01*
X127131548Y-125199112D01*
X127015638Y-125051943D01*
X127012715Y-124978202D01*
X127121591Y-124974312D01*
X127220449Y-124998263D01*
G37*
G36*
X128679138Y-125146323D02*
G01*
X128821235Y-125177471D01*
X128853180Y-125198597D01*
X128886404Y-125303218D01*
X128923092Y-125490621D01*
X128936169Y-125577644D01*
X128955933Y-125764896D01*
X128931697Y-125879685D01*
X128836798Y-125971123D01*
X128665590Y-126076000D01*
X128445939Y-126198163D01*
X128303568Y-126246036D01*
X128196674Y-126220298D01*
X128083451Y-126121632D01*
X128049618Y-126086033D01*
X127959769Y-125983172D01*
X127922906Y-125893615D01*
X127935644Y-125770784D01*
X127994600Y-125568095D01*
X128008721Y-125523152D01*
X128131102Y-125134072D01*
X128472202Y-125134072D01*
X128679138Y-125146323D01*
G37*
G36*
X127989027Y-126171102D02*
G01*
X128079182Y-126276606D01*
X128089171Y-126361011D01*
X128004718Y-126449852D01*
X127811551Y-126568664D01*
X127746474Y-126605003D01*
X127524948Y-126716053D01*
X127409144Y-126741760D01*
X127391971Y-126680897D01*
X127453131Y-126554216D01*
X127583164Y-126350330D01*
X127700258Y-126184826D01*
X127830342Y-126013573D01*
X127989027Y-126171102D01*
G37*
G36*
X129012354Y-126075328D02*
G01*
X129049911Y-126180162D01*
X129076447Y-126378101D01*
X129090299Y-126621838D01*
X129089810Y-126864068D01*
X129073317Y-127057487D01*
X129049776Y-127141478D01*
X129003233Y-127191310D01*
X128939438Y-127170454D01*
X128837894Y-127063271D01*
X128684546Y-126862849D01*
X128542256Y-126653359D01*
X128447736Y-126481018D01*
X128420238Y-126381255D01*
X128421186Y-126378235D01*
X128500928Y-126291639D01*
X128649448Y-126194319D01*
X128817817Y-126111346D01*
X128957109Y-126067790D01*
X129012354Y-126075328D01*
G37*
G36*
X195030470Y-108529086D02*
G01*
X195030344Y-110237392D01*
X195029970Y-111908970D01*
X195029360Y-113538364D01*
X195028523Y-115120116D01*
X195027469Y-116648770D01*
X195026208Y-118118869D01*
X195024750Y-119524956D01*
X195023105Y-120861574D01*
X195021283Y-122123267D01*
X195019294Y-123304577D01*
X195017147Y-124400049D01*
X195014854Y-125404225D01*
X195012423Y-126311648D01*
X195009865Y-127116861D01*
X195007189Y-127814409D01*
X195004406Y-128398834D01*
X195001526Y-128864678D01*
X194998558Y-129206487D01*
X194995513Y-129418802D01*
X194992400Y-129496167D01*
X194992219Y-129496399D01*
X194921090Y-129452690D01*
X194794071Y-129344727D01*
X194763549Y-129316314D01*
X194499851Y-129119312D01*
X194179961Y-128987902D01*
X193765801Y-128907027D01*
X193711988Y-128900468D01*
X193369183Y-128823713D01*
X193108601Y-128668717D01*
X192896794Y-128410831D01*
X192792140Y-128222538D01*
X192586050Y-127963359D01*
X192276665Y-127781253D01*
X191884823Y-127687002D01*
X191737936Y-127676927D01*
X191508432Y-127663051D01*
X191351573Y-127620607D01*
X191212562Y-127523710D01*
X191036602Y-127346477D01*
X191035205Y-127344991D01*
X190764909Y-127099742D01*
X190494579Y-126928313D01*
X190255310Y-126848376D01*
X190160240Y-126847750D01*
X189996534Y-126914989D01*
X189866443Y-127036447D01*
X189823822Y-127144639D01*
X189792379Y-127297141D01*
X189717870Y-127458636D01*
X189630026Y-127573409D01*
X189582601Y-127596676D01*
X189480589Y-127559742D01*
X189316410Y-127466896D01*
X189246231Y-127421050D01*
X188977093Y-127275771D01*
X188723566Y-127204992D01*
X188519209Y-127214537D01*
X188418798Y-127277430D01*
X188284871Y-127368988D01*
X188205540Y-127385595D01*
X188048747Y-127442650D01*
X187937574Y-127620832D01*
X187896433Y-127758363D01*
X187849363Y-127955231D01*
X187376620Y-127542579D01*
X186759476Y-127038612D01*
X186189612Y-126647300D01*
X185805881Y-126431976D01*
X185390352Y-126290715D01*
X184903566Y-126240280D01*
X184382977Y-126282149D01*
X184035308Y-126362167D01*
X183808157Y-126422426D01*
X183633973Y-126456526D01*
X183562672Y-126458722D01*
X183497074Y-126394204D01*
X183373316Y-126238528D01*
X183211321Y-126017607D01*
X183089136Y-125842821D01*
X182859809Y-125527571D01*
X182641159Y-125279123D01*
X182388781Y-125052800D01*
X182058268Y-124803924D01*
X182052227Y-124799604D01*
X181769102Y-124600570D01*
X181567479Y-124471973D01*
X181416235Y-124399887D01*
X181284245Y-124370386D01*
X181140385Y-124369543D01*
X181097252Y-124372295D01*
X180917171Y-124376899D01*
X180778632Y-124346946D01*
X180637168Y-124262576D01*
X180448314Y-124103929D01*
X180400434Y-124061080D01*
X180184614Y-123878343D01*
X180021035Y-123776523D01*
X179865969Y-123733624D01*
X179736085Y-123726869D01*
X179413269Y-123781127D01*
X179067587Y-123927593D01*
X178754850Y-124141808D01*
X178721560Y-124171481D01*
X178560296Y-124319831D01*
X178400147Y-124118985D01*
X178239998Y-123918139D01*
X177857810Y-124044385D01*
X177614632Y-124133567D01*
X177404920Y-124225540D01*
X177317312Y-124273463D01*
X177196806Y-124403641D01*
X177160130Y-124553144D01*
X177218729Y-124669496D01*
X177229362Y-124676731D01*
X177298108Y-124764659D01*
X177236643Y-124847051D01*
X177106232Y-124895705D01*
X176904583Y-124979882D01*
X176758610Y-125081285D01*
X176627708Y-125172603D01*
X176491937Y-125176404D01*
X176381436Y-125143358D01*
X176068174Y-125103379D01*
X175740527Y-125177222D01*
X175443680Y-125351219D01*
X175329581Y-125461508D01*
X175172120Y-125695367D01*
X175128564Y-125927897D01*
X175199647Y-126187301D01*
X175355537Y-126457120D01*
X175494288Y-126683371D01*
X175541730Y-126829979D01*
X175499382Y-126923062D01*
X175386088Y-126982537D01*
X175271838Y-127072882D01*
X175161446Y-127230024D01*
X175158877Y-127234940D01*
X175100719Y-127489366D01*
X175153540Y-127769991D01*
X175304423Y-128024376D01*
X175386534Y-128167509D01*
X175359134Y-128300378D01*
X175212777Y-128444419D01*
X175079235Y-128535487D01*
X174874076Y-128691767D01*
X174709164Y-128863006D01*
X174657837Y-128940057D01*
X174532836Y-129096006D01*
X174409657Y-129144598D01*
X174159354Y-129208779D01*
X173868283Y-129396682D01*
X173617719Y-129627306D01*
X173388090Y-129843494D01*
X173213505Y-129943135D01*
X173068006Y-129924749D01*
X172925635Y-129786857D01*
X172791002Y-129580180D01*
X172665768Y-129423465D01*
X172544314Y-129359374D01*
X172531324Y-129359612D01*
X172338416Y-129362480D01*
X172249864Y-129310893D01*
X172233794Y-129230614D01*
X172194790Y-129081077D01*
X172119351Y-128942159D01*
X171993216Y-128823414D01*
X171825551Y-128814831D01*
X171808153Y-128818120D01*
X171672777Y-128826865D01*
X171577728Y-128764963D01*
X171478062Y-128602521D01*
X171474887Y-128596464D01*
X171393352Y-128452807D01*
X171311321Y-128374785D01*
X171185281Y-128342366D01*
X170971720Y-128335520D01*
X170907914Y-128335457D01*
X170666878Y-128330724D01*
X170519267Y-128302992D01*
X170417813Y-128231957D01*
X170315248Y-128097316D01*
X170299356Y-128074065D01*
X170001306Y-127754346D01*
X169626405Y-127550090D01*
X169185933Y-127467057D01*
X169107147Y-127465408D01*
X168828328Y-127484839D01*
X168583118Y-127534618D01*
X168482159Y-127573156D01*
X168330158Y-127629054D01*
X168235901Y-127622410D01*
X168231521Y-127617511D01*
X168097773Y-127493177D01*
X167875469Y-127352632D01*
X167610150Y-127222336D01*
X167437274Y-127156033D01*
X167228041Y-127093794D01*
X167086307Y-127084401D01*
X166948737Y-127128886D01*
X166874393Y-127165190D01*
X166738449Y-127228292D01*
X166634701Y-127241017D01*
X166516142Y-127194256D01*
X166335765Y-127078896D01*
X166298060Y-127053485D01*
X165995155Y-126886137D01*
X165726858Y-126823901D01*
X165683594Y-126822714D01*
X165522639Y-126813171D01*
X165416293Y-126763643D01*
X165324418Y-126642788D01*
X165232865Y-126470719D01*
X165070442Y-126217056D01*
X164878169Y-126011522D01*
X164810390Y-125960608D01*
X164661225Y-125849893D01*
X164589312Y-125735139D01*
X164566812Y-125559490D01*
X164565413Y-125460272D01*
X164529571Y-125175663D01*
X164436403Y-124900341D01*
X164305343Y-124675564D01*
X164155827Y-124542592D01*
X164127882Y-124531409D01*
X164015474Y-124444337D01*
X163900238Y-124280370D01*
X163876557Y-124234075D01*
X163663195Y-123932114D01*
X163361838Y-123739346D01*
X162975097Y-123657294D01*
X162883085Y-123654272D01*
X162573727Y-123630164D01*
X162371676Y-123552432D01*
X162249076Y-123406615D01*
X162209106Y-123304439D01*
X162108482Y-123080200D01*
X161944049Y-122921021D01*
X161798939Y-122836220D01*
X161643597Y-122770217D01*
X161529202Y-122784566D01*
X161406834Y-122863201D01*
X161186424Y-123002238D01*
X161005478Y-123044112D01*
X160806692Y-122992785D01*
X160648827Y-122915616D01*
X160311122Y-122779320D01*
X160022854Y-122750415D01*
X159801700Y-122830168D01*
X159773858Y-122852976D01*
X159641111Y-122925460D01*
X159509093Y-122888156D01*
X159259553Y-122816416D01*
X159027645Y-122858912D01*
X158901799Y-122951532D01*
X158746490Y-123059249D01*
X158538824Y-123133310D01*
X158521503Y-123136694D01*
X158187884Y-123228587D01*
X157922898Y-123384821D01*
X157835676Y-123458863D01*
X157647874Y-123559650D01*
X157335324Y-123639927D01*
X157167255Y-123666843D01*
X156765464Y-123748017D01*
X156486753Y-123865546D01*
X156433689Y-123901876D01*
X156144323Y-124039997D01*
X155960915Y-124058200D01*
X155757299Y-124064591D01*
X155648265Y-124122469D01*
X155588592Y-124267275D01*
X155566371Y-124367415D01*
X155497372Y-124573516D01*
X155384036Y-124671403D01*
X155206062Y-124666655D01*
X154943147Y-124564853D01*
X154908616Y-124548187D01*
X154597289Y-124415225D01*
X154363323Y-124366597D01*
X154174584Y-124398244D01*
X154085144Y-124444140D01*
X153942210Y-124492979D01*
X153772158Y-124446849D01*
X153766168Y-124444140D01*
X153540390Y-124370729D01*
X153359632Y-124398042D01*
X153178855Y-124537497D01*
X153111519Y-124610071D01*
X152962103Y-124762634D01*
X152841255Y-124825512D01*
X152694556Y-124822664D01*
X152647290Y-124814457D01*
X152433993Y-124819547D01*
X152313574Y-124929272D01*
X152289321Y-125139750D01*
X152301443Y-125222771D01*
X152306032Y-125364542D01*
X152265124Y-125415512D01*
X152169282Y-125457505D01*
X152019266Y-125562335D01*
X151968274Y-125603731D01*
X151823559Y-125746053D01*
X151772324Y-125876572D01*
X151782739Y-126027046D01*
X151790213Y-126207187D01*
X151719808Y-126322207D01*
X151649226Y-126374619D01*
X151507660Y-126538370D01*
X151490488Y-126743414D01*
X151580750Y-126932397D01*
X151652044Y-127131987D01*
X151645631Y-127285115D01*
X151637194Y-127430453D01*
X151692123Y-127543965D01*
X151836625Y-127673118D01*
X151876653Y-127703556D01*
X152047341Y-127838749D01*
X152169652Y-127948296D01*
X152197675Y-127979937D01*
X152251246Y-128092240D01*
X152199654Y-128117365D01*
X152049567Y-128053551D01*
X152008239Y-128029915D01*
X151778214Y-127914449D01*
X151543979Y-127825583D01*
X151524859Y-127820080D01*
X151251133Y-127811478D01*
X150998215Y-127940070D01*
X150770451Y-128203295D01*
X150713184Y-128298268D01*
X150613825Y-128466118D01*
X150543959Y-128567784D01*
X150528191Y-128581717D01*
X150495752Y-128520495D01*
X150439199Y-128362691D01*
X150391965Y-128212327D01*
X150251146Y-127831259D01*
X150071542Y-127475929D01*
X149875286Y-127184814D01*
X149698035Y-127006028D01*
X149439726Y-126892032D01*
X149126110Y-126861320D01*
X148814696Y-126913070D01*
X148593912Y-127021845D01*
X148442709Y-127122796D01*
X148338478Y-127173211D01*
X148329105Y-127174515D01*
X148255315Y-127124654D01*
X148126749Y-126996184D01*
X148020360Y-126874914D01*
X147783827Y-126628227D01*
X147520510Y-126434496D01*
X147207602Y-126285083D01*
X146822292Y-126171351D01*
X146341775Y-126084664D01*
X145756527Y-126017625D01*
X145544300Y-125970981D01*
X145376338Y-125889734D01*
X145360683Y-125876881D01*
X145126701Y-125751190D01*
X144833617Y-125715261D01*
X144534322Y-125773646D01*
X144471323Y-125800343D01*
X144328486Y-125861506D01*
X144204696Y-125885530D01*
X144053610Y-125872103D01*
X143828890Y-125820915D01*
X143729472Y-125795371D01*
X143473374Y-125731908D01*
X143315726Y-125706035D01*
X143219482Y-125717348D01*
X143147598Y-125765445D01*
X143123460Y-125788767D01*
X143054737Y-125843761D01*
X142983983Y-125845023D01*
X142882779Y-125778516D01*
X142722704Y-125630204D01*
X142642091Y-125551021D01*
X142415923Y-125344554D01*
X142231377Y-125224210D01*
X142045051Y-125163984D01*
X141978187Y-125153190D01*
X141767166Y-125139685D01*
X141642606Y-125178542D01*
X141584205Y-125238327D01*
X141515809Y-125314345D01*
X141436622Y-125324989D01*
X141296736Y-125270873D01*
X141236530Y-125242602D01*
X140981449Y-125174960D01*
X140646307Y-125158618D01*
X140281042Y-125191006D01*
X139935593Y-125269553D01*
X139807334Y-125316146D01*
X139569257Y-125415621D01*
X139610432Y-125836887D01*
X139661834Y-126108918D01*
X139751833Y-126362279D01*
X139863158Y-126561512D01*
X139978538Y-126671160D01*
X140022095Y-126681994D01*
X140077638Y-126735909D01*
X140079224Y-126752354D01*
X140019180Y-126805847D01*
X139908736Y-126822714D01*
X139732863Y-126872023D01*
X139563432Y-126998470D01*
X139421669Y-127169836D01*
X139328804Y-127353902D01*
X139306062Y-127518451D01*
X139374673Y-127631264D01*
X139375623Y-127631856D01*
X139443263Y-127721372D01*
X139403558Y-127795427D01*
X139345841Y-127807756D01*
X139230522Y-127850361D01*
X139071186Y-127955858D01*
X139033076Y-127986667D01*
X138867938Y-128102855D01*
X138721709Y-128130265D01*
X138587927Y-128105731D01*
X138415980Y-128033757D01*
X138342531Y-127911547D01*
X138333138Y-127856460D01*
X138297438Y-127725689D01*
X138201970Y-127674198D01*
X138074410Y-127667036D01*
X137836526Y-127731860D01*
X137627954Y-127904226D01*
X137475754Y-128150972D01*
X137406991Y-128438939D01*
X137405540Y-128486618D01*
X137395869Y-128676148D01*
X137347330Y-128771669D01*
X137230628Y-128819566D01*
X137189233Y-128829125D01*
X136958441Y-128926491D01*
X136728222Y-129096722D01*
X136544974Y-129299089D01*
X136459925Y-129469349D01*
X136403774Y-129598364D01*
X136303384Y-129616596D01*
X136258997Y-129605232D01*
X136116140Y-129578782D01*
X135879340Y-129551233D01*
X135595234Y-129527840D01*
X135540997Y-129524373D01*
X135242631Y-129511559D01*
X135037662Y-129521692D01*
X134879660Y-129561860D01*
X134722197Y-129639151D01*
X134698011Y-129653071D01*
X134510685Y-129783057D01*
X134373671Y-129915548D01*
X134346210Y-129956688D01*
X134164802Y-130251547D01*
X133968224Y-130468914D01*
X133782373Y-130580452D01*
X133774137Y-130582665D01*
X133648906Y-130632259D01*
X133613826Y-130725550D01*
X133629898Y-130854339D01*
X133674393Y-131068337D01*
X133717102Y-131237811D01*
X133718794Y-131363398D01*
X133638475Y-131398711D01*
X133498482Y-131347887D01*
X133321154Y-131215063D01*
X133256926Y-131152578D01*
X132950919Y-130902555D01*
X132621690Y-130745002D01*
X132297153Y-130686272D01*
X132005219Y-130732718D01*
X131837296Y-130829484D01*
X131731029Y-130927914D01*
X131711504Y-131013014D01*
X131771397Y-131145692D01*
X131794321Y-131186987D01*
X131892024Y-131385005D01*
X131904744Y-131493088D01*
X131831640Y-131534093D01*
X131781472Y-131536842D01*
X131645159Y-131588634D01*
X131598539Y-131731792D01*
X131643159Y-131947991D01*
X131730941Y-132135545D01*
X131819240Y-132320042D01*
X131854720Y-132451449D01*
X131844156Y-132488517D01*
X131744198Y-132510048D01*
X131551117Y-132525418D01*
X131374631Y-132530346D01*
X131036879Y-132561183D01*
X130754500Y-132660338D01*
X130665005Y-132708670D01*
X130486049Y-132819126D01*
X130402813Y-132910447D01*
X130388135Y-133032068D01*
X130406669Y-133178854D01*
X130420258Y-133403001D01*
X130367102Y-133568638D01*
X130299576Y-133666326D01*
X130104355Y-133827239D01*
X129885422Y-133851634D01*
X129651808Y-133739850D01*
X129536818Y-133637624D01*
X129365944Y-133429937D01*
X129222220Y-133201812D01*
X129202870Y-133162693D01*
X129042134Y-132874573D01*
X128885401Y-132705102D01*
X128770827Y-132662604D01*
X128655851Y-132702835D01*
X128489517Y-132803325D01*
X128433924Y-132843809D01*
X128234109Y-132965213D01*
X128021084Y-133010613D01*
X127858148Y-133010709D01*
X127578563Y-133003364D01*
X127387346Y-133021926D01*
X127232387Y-133083997D01*
X127061578Y-133207178D01*
X126917070Y-133328612D01*
X126688909Y-133508065D01*
X126528113Y-133582498D01*
X126406723Y-133550405D01*
X126296777Y-133410279D01*
X126233635Y-133291796D01*
X126149751Y-133146440D01*
X126055096Y-133075029D01*
X125899156Y-133051526D01*
X125763744Y-133049584D01*
X125545701Y-133059220D01*
X125411198Y-133106231D01*
X125303426Y-133217774D01*
X125248886Y-133295704D01*
X125088737Y-133509549D01*
X124956609Y-133603414D01*
X124819970Y-133579372D01*
X124646287Y-133439494D01*
X124548352Y-133340327D01*
X124330647Y-133135350D01*
X124155298Y-133037344D01*
X123986350Y-133036362D01*
X123787850Y-133122456D01*
X123778970Y-133127466D01*
X123682530Y-133176189D01*
X123592723Y-133192366D01*
X123479144Y-133168140D01*
X123311386Y-133095650D01*
X123059044Y-132967035D01*
X122962405Y-132916386D01*
X122616022Y-132748871D01*
X122326887Y-132637366D01*
X122123330Y-132592631D01*
X122108845Y-132592243D01*
X121935017Y-132566918D01*
X121792478Y-132469965D01*
X121672591Y-132328393D01*
X121436801Y-132045681D01*
X121216196Y-131852828D01*
X120966906Y-131711962D01*
X120949095Y-131703896D01*
X120758521Y-131648254D01*
X120506208Y-131611261D01*
X120242801Y-131596002D01*
X120018948Y-131605562D01*
X119890627Y-131639443D01*
X119802327Y-131622910D01*
X119644222Y-131536542D01*
X119496845Y-131433388D01*
X119306719Y-131297868D01*
X119154086Y-131206180D01*
X119088931Y-131181466D01*
X118970543Y-131170744D01*
X118777692Y-131148465D01*
X118717112Y-131140855D01*
X118513550Y-131136062D01*
X118224509Y-131155679D01*
X117902319Y-131195627D01*
X117798035Y-131212508D01*
X117483923Y-131257636D01*
X117193177Y-131283615D01*
X116974388Y-131286618D01*
X116923004Y-131281404D01*
X116593208Y-131294321D01*
X116285887Y-131424952D01*
X116045794Y-131652351D01*
X116008778Y-131709293D01*
X115868086Y-131894503D01*
X115722834Y-131953506D01*
X115541687Y-131898246D01*
X115529643Y-131891906D01*
X115322172Y-131819980D01*
X115029296Y-131765127D01*
X114705910Y-131733562D01*
X114406911Y-131731506D01*
X114257626Y-131747819D01*
X113956293Y-131852939D01*
X113787557Y-131987577D01*
X113669250Y-132113194D01*
X113571688Y-132156534D01*
X113450457Y-132117765D01*
X113261139Y-131997053D01*
X113250167Y-131989603D01*
X113037595Y-131874931D01*
X112865367Y-131836382D01*
X112761791Y-131876928D01*
X112744321Y-131936513D01*
X112708843Y-132050848D01*
X112697981Y-132063975D01*
X112674093Y-132177687D01*
X112728423Y-132354267D01*
X112842569Y-132554275D01*
X112998130Y-132738274D01*
X113023545Y-132761741D01*
X113205433Y-132947003D01*
X113269661Y-133071323D01*
X113215951Y-133129718D01*
X113044026Y-133117206D01*
X113043351Y-133117061D01*
X112820874Y-133052924D01*
X112638781Y-132978780D01*
X112471554Y-132914919D01*
X112229663Y-132845903D01*
X112056861Y-132806065D01*
X111657948Y-132673572D01*
X111426843Y-132517793D01*
X111079630Y-132263602D01*
X110728656Y-132123583D01*
X110527501Y-132099723D01*
X110279857Y-132040742D01*
X110092985Y-131923822D01*
X109959276Y-131828333D01*
X109812979Y-131774452D01*
X109608060Y-131750692D01*
X109379227Y-131745684D01*
X109022603Y-131725798D01*
X108791850Y-131670693D01*
X108737937Y-131640144D01*
X108531400Y-131556901D01*
X108270941Y-131544363D01*
X108023839Y-131601733D01*
X107935606Y-131649666D01*
X107786786Y-131719049D01*
X107594445Y-131727454D01*
X107445020Y-131707697D01*
X107239543Y-131674217D01*
X107095205Y-131651957D01*
X107062734Y-131647643D01*
X106979918Y-131604009D01*
X106833705Y-131500400D01*
X106766716Y-131448295D01*
X106468998Y-131245725D01*
X106220771Y-131158737D01*
X106002028Y-131180552D01*
X105989750Y-131185041D01*
X105861836Y-131215598D01*
X105813850Y-131194594D01*
X105754303Y-131123921D01*
X105612107Y-131047349D01*
X105441927Y-130989749D01*
X105328923Y-130973961D01*
X105184890Y-130924645D01*
X105085974Y-130845290D01*
X105074792Y-130826049D01*
X105064346Y-130790785D01*
X105054610Y-130734879D01*
X105045559Y-130653710D01*
X105037169Y-130542657D01*
X105029415Y-130397100D01*
X105022272Y-130212418D01*
X105015715Y-129983990D01*
X105009720Y-129707198D01*
X105004261Y-129377419D01*
X104999314Y-128990033D01*
X104994855Y-128540420D01*
X104990858Y-128023959D01*
X104987298Y-127436030D01*
X104984151Y-126772012D01*
X104981393Y-126027285D01*
X104978997Y-125197228D01*
X104978091Y-124791809D01*
X126756539Y-124791809D01*
X126776615Y-124895472D01*
X126894812Y-125068439D01*
X127107877Y-125303696D01*
X127360848Y-125547129D01*
X127534033Y-125718488D01*
X127655053Y-125861879D01*
X127695844Y-125940036D01*
X127657745Y-126037192D01*
X127557762Y-126210555D01*
X127417368Y-126422957D01*
X127414404Y-126427194D01*
X127233326Y-126700271D01*
X127146425Y-126875026D01*
X127158271Y-126955373D01*
X127273435Y-126945225D01*
X127496489Y-126848497D01*
X127749981Y-126714542D01*
X127981780Y-126590226D01*
X128142741Y-126530669D01*
X128267111Y-126546493D01*
X128389135Y-126648319D01*
X128543059Y-126846768D01*
X128648093Y-126993095D01*
X128839221Y-127237615D01*
X128977700Y-127359719D01*
X129071592Y-127363939D01*
X129126946Y-127262465D01*
X129193299Y-126969339D01*
X129211401Y-126714821D01*
X129186256Y-126416559D01*
X129180807Y-126375657D01*
X129154407Y-126135507D01*
X129162316Y-125988333D01*
X129211733Y-125889028D01*
X129267819Y-125830366D01*
X129390953Y-125732181D01*
X129465666Y-125696953D01*
X129546655Y-125654199D01*
X129689743Y-125545786D01*
X129770504Y-125477280D01*
X129928363Y-125309576D01*
X129961483Y-125188557D01*
X129866502Y-125110231D01*
X129640055Y-125070606D01*
X129422090Y-125063712D01*
X128984403Y-125063712D01*
X128839853Y-124518421D01*
X128764634Y-124231087D01*
X128698596Y-123972502D01*
X128654408Y-123792384D01*
X128650319Y-123774641D01*
X128592765Y-123640962D01*
X128519981Y-123603880D01*
X128461993Y-123654570D01*
X128397271Y-123781129D01*
X128319464Y-124000583D01*
X128222217Y-124329956D01*
X128149085Y-124597925D01*
X128038397Y-125011639D01*
X127650849Y-124966090D01*
X127379928Y-124920691D01*
X127125353Y-124856274D01*
X127023769Y-124820459D01*
X126837839Y-124764466D01*
X126756539Y-124791809D01*
X104978091Y-124791809D01*
X104976940Y-124277221D01*
X104975196Y-123262643D01*
X104973742Y-122148874D01*
X104972551Y-120931293D01*
X104971600Y-119605279D01*
X104971061Y-118551874D01*
X109425535Y-118551874D01*
X109466840Y-118616541D01*
X109482241Y-118622841D01*
X109735723Y-118715420D01*
X109880607Y-118780163D01*
X109941977Y-118833177D01*
X109944917Y-118890571D01*
X109936769Y-118914716D01*
X109885621Y-119071516D01*
X109851629Y-119195179D01*
X109851841Y-119329301D01*
X109936346Y-119362290D01*
X110091825Y-119294373D01*
X110233705Y-119188642D01*
X110398917Y-119060451D01*
X110511824Y-119025532D01*
X110623833Y-119082044D01*
X110724954Y-119171052D01*
X110895821Y-119329363D01*
X110847995Y-119039569D01*
X110827510Y-118845559D01*
X110863334Y-118726577D01*
X110976654Y-118621388D01*
X110998155Y-118605553D01*
X111126769Y-118490024D01*
X111130444Y-118409044D01*
X111002986Y-118347958D01*
X110876576Y-118317903D01*
X110713473Y-118255618D01*
X110610553Y-118123657D01*
X110562876Y-118004203D01*
X110495926Y-117825572D01*
X110443083Y-117711972D01*
X110433609Y-117698799D01*
X110349824Y-117690674D01*
X110257247Y-117803346D01*
X110170519Y-118018858D01*
X110169248Y-118023080D01*
X110098095Y-118204472D01*
X109995695Y-118293853D01*
X109824646Y-118336117D01*
X109630400Y-118389923D01*
X109488709Y-118469088D01*
X109425535Y-118551874D01*
X104971061Y-118551874D01*
X104970863Y-118166213D01*
X104970444Y-116972542D01*
X122678574Y-116972542D01*
X122708253Y-117034621D01*
X122817816Y-117174629D01*
X122988654Y-117369993D01*
X123145647Y-117539104D01*
X123448525Y-117860403D01*
X123679662Y-118113893D01*
X123865919Y-118332164D01*
X124034157Y-118547804D01*
X124211237Y-118793404D01*
X124377717Y-119033937D01*
X124713266Y-119578371D01*
X125062978Y-120251479D01*
X125421774Y-121042535D01*
X125784574Y-121940816D01*
X125900740Y-122249307D01*
X126116594Y-122822261D01*
X126293111Y-123268422D01*
X126433558Y-123595112D01*
X126541206Y-123809650D01*
X126619324Y-123919361D01*
X126654721Y-123937950D01*
X126665436Y-123884044D01*
X126616655Y-123750596D01*
X126597574Y-123712002D01*
X126536785Y-123576502D01*
X126437076Y-123333720D01*
X126308237Y-123008395D01*
X126160056Y-122625266D01*
X126002323Y-122209074D01*
X125992049Y-122181670D01*
X125731444Y-121498392D01*
X125501703Y-120926163D01*
X125291839Y-120441681D01*
X125090864Y-120021642D01*
X124887790Y-119642743D01*
X124671630Y-119281681D01*
X124499721Y-119016674D01*
X124331013Y-118780270D01*
X124115841Y-118503197D01*
X123870590Y-118203846D01*
X123611647Y-117900611D01*
X123355396Y-117611884D01*
X123118226Y-117356059D01*
X122916522Y-117151526D01*
X122766670Y-117016680D01*
X122685057Y-116969912D01*
X122678574Y-116972542D01*
X104970444Y-116972542D01*
X104970316Y-116609473D01*
X104969934Y-114930440D01*
X104969759Y-113628905D01*
X122854012Y-113628905D01*
X122880879Y-113694005D01*
X122980978Y-113840939D01*
X123136324Y-114044386D01*
X123241310Y-114174247D01*
X124087434Y-115262496D01*
X124849195Y-116367609D01*
X125517808Y-117474049D01*
X126084487Y-118566282D01*
X126540447Y-119628774D01*
X126852882Y-120560664D01*
X126947510Y-120888412D01*
X127011923Y-121100379D01*
X127053825Y-121216296D01*
X127080921Y-121255898D01*
X127100916Y-121238917D01*
X127109612Y-121218173D01*
X127104918Y-121117384D01*
X127066003Y-120918526D01*
X127000449Y-120657899D01*
X126969997Y-120549752D01*
X126635612Y-119567813D01*
X126190640Y-118536327D01*
X125645992Y-117476741D01*
X125012581Y-116410503D01*
X124444535Y-115563786D01*
X126722966Y-115563786D01*
X126745640Y-115645845D01*
X126822778Y-115834160D01*
X126945610Y-116109271D01*
X127105364Y-116451721D01*
X127293269Y-116842053D01*
X127366100Y-116990512D01*
X127817872Y-117942825D01*
X128191652Y-118812051D01*
X128498017Y-119624456D01*
X128747545Y-120406301D01*
X128761602Y-120455124D01*
X128839688Y-120765213D01*
X128889257Y-121069033D01*
X128915795Y-121414444D01*
X128924787Y-121849301D01*
X128924890Y-121879869D01*
X128930873Y-122295953D01*
X128946172Y-122575086D01*
X128970614Y-122716448D01*
X129004029Y-122719217D01*
X129046244Y-122582570D01*
X129059071Y-122521953D01*
X129107192Y-122014124D01*
X129066166Y-121413368D01*
X128935350Y-120716577D01*
X128714104Y-119920642D01*
X128401785Y-119022453D01*
X128261969Y-118660941D01*
X128150596Y-118394658D01*
X128096690Y-118273778D01*
X189837841Y-118273778D01*
X189886871Y-118362459D01*
X189978020Y-118391658D01*
X190084419Y-118429659D01*
X190138592Y-118530805D01*
X190162078Y-118713712D01*
X190200600Y-118926053D01*
X190279231Y-119005510D01*
X190403167Y-118953256D01*
X190551806Y-118801662D01*
X190703871Y-118646230D01*
X190833899Y-118602505D01*
X190990676Y-118664919D01*
X191101084Y-118738977D01*
X191269256Y-118839298D01*
X191344532Y-118833964D01*
X191327547Y-118722461D01*
X191271392Y-118600614D01*
X191181126Y-118389479D01*
X191181819Y-118233728D01*
X191280450Y-118075831D01*
X191343684Y-118004784D01*
X191463993Y-117856015D01*
X191472036Y-117772317D01*
X191358031Y-117737295D01*
X191181640Y-117733172D01*
X191006450Y-117722708D01*
X190902618Y-117660627D01*
X190818212Y-117510105D01*
X190796499Y-117460073D01*
X190684609Y-117256908D01*
X190581136Y-117193777D01*
X190485228Y-117270860D01*
X190396031Y-117488334D01*
X190379292Y-117547316D01*
X190291077Y-117798377D01*
X190176121Y-117954303D01*
X190070083Y-118027940D01*
X189900941Y-118154254D01*
X189837841Y-118273778D01*
X128096690Y-118273778D01*
X128004792Y-118067706D01*
X127834128Y-117699345D01*
X127648175Y-117308837D01*
X127456504Y-116915442D01*
X127416322Y-116834782D01*
X170771652Y-116834782D01*
X170866360Y-116899071D01*
X171002492Y-116932477D01*
X171138150Y-116968205D01*
X171218784Y-117032771D01*
X171255759Y-117156214D01*
X171260439Y-117368572D01*
X171250491Y-117587950D01*
X171262494Y-117755808D01*
X171330859Y-117815452D01*
X171348902Y-117816620D01*
X171446217Y-117789221D01*
X171460096Y-117763850D01*
X171493886Y-117674584D01*
X171577194Y-117520216D01*
X171601172Y-117480124D01*
X171703557Y-117333741D01*
X171787841Y-117291844D01*
X171889903Y-117328332D01*
X172042345Y-117369871D01*
X172116663Y-117301240D01*
X172103512Y-117135038D01*
X172081751Y-117069720D01*
X172037250Y-116791135D01*
X172099620Y-116527447D01*
X172199260Y-116383644D01*
X172258164Y-116278727D01*
X172189351Y-116217731D01*
X172000298Y-116205527D01*
X171933915Y-116210792D01*
X171784388Y-116210313D01*
X171683392Y-116149614D01*
X171584954Y-115996767D01*
X171561397Y-115952077D01*
X171460708Y-115786810D01*
X171375244Y-115694525D01*
X171349574Y-115686889D01*
X171307795Y-115759964D01*
X171269004Y-115931352D01*
X171248753Y-116092603D01*
X171218614Y-116326607D01*
X171165326Y-116469052D01*
X171064328Y-116569091D01*
X170984902Y-116620607D01*
X170811353Y-116745281D01*
X170771652Y-116834782D01*
X127416322Y-116834782D01*
X127268687Y-116538424D01*
X127094293Y-116197041D01*
X127073512Y-116157718D01*
X145171924Y-116157718D01*
X145244232Y-116159351D01*
X145418418Y-116064615D01*
X145472633Y-116028692D01*
X145677237Y-115900177D01*
X145810714Y-115860416D01*
X145912800Y-115911491D01*
X146023228Y-116055485D01*
X146024653Y-116057617D01*
X146149813Y-116219984D01*
X146227051Y-116251496D01*
X146264330Y-116150447D01*
X146270916Y-116004847D01*
X146293609Y-115811816D01*
X146383749Y-115664097D01*
X146517176Y-115544507D01*
X146700852Y-115365677D01*
X146751303Y-115224809D01*
X146668969Y-115115868D01*
X146552354Y-115062033D01*
X146447882Y-115013942D01*
X181099168Y-115013942D01*
X181135666Y-115070805D01*
X181248390Y-115024701D01*
X181442190Y-114872993D01*
X181569680Y-114757948D01*
X181749364Y-114596934D01*
X181888908Y-114482801D01*
X181955667Y-114441327D01*
X182030281Y-114485462D01*
X182160683Y-114598516D01*
X182214106Y-114650415D01*
X182353040Y-114780646D01*
X182449122Y-114854896D01*
X182465778Y-114861495D01*
X182487138Y-114797541D01*
X182501842Y-114631233D01*
X182506371Y-114436962D01*
X182511071Y-114198480D01*
X182538169Y-114055577D01*
X182607160Y-113963141D01*
X182737540Y-113876058D01*
X182752631Y-113867131D01*
X182937122Y-113732370D01*
X182989386Y-113628143D01*
X182909490Y-113560915D01*
X182749168Y-113538066D01*
X182526239Y-113515782D01*
X182410428Y-113453461D01*
X182368877Y-113325485D01*
X182365650Y-113239061D01*
X182329080Y-113076441D01*
X182231686Y-113027276D01*
X182091948Y-113088773D01*
X181928344Y-113258139D01*
X181890051Y-113310945D01*
X181698441Y-113523787D01*
X181487127Y-113660970D01*
X181463633Y-113669828D01*
X181259628Y-113773718D01*
X181192243Y-113896277D01*
X181263164Y-114033287D01*
X181303678Y-114070109D01*
X181389449Y-114149090D01*
X181417593Y-114227047D01*
X181390418Y-114350463D01*
X181326230Y-114524050D01*
X181243511Y-114724990D01*
X181173990Y-114868229D01*
X181149310Y-114905168D01*
X181099657Y-115005281D01*
X181099168Y-115013942D01*
X146447882Y-115013942D01*
X146419684Y-115000962D01*
X146358407Y-114908851D01*
X146341654Y-114736905D01*
X146341274Y-114678712D01*
X146324880Y-114462234D01*
X146275987Y-114382646D01*
X146195026Y-114440023D01*
X146083218Y-114632825D01*
X145974541Y-114811468D01*
X145847115Y-114895050D01*
X145708647Y-114919990D01*
X145494748Y-114967624D01*
X145407392Y-115066736D01*
X145437459Y-115231421D01*
X145466910Y-115293591D01*
X145543257Y-115462812D01*
X145550857Y-115589019D01*
X145479440Y-115722509D01*
X145346869Y-115881632D01*
X145204975Y-116063788D01*
X145171924Y-116157718D01*
X127073512Y-116157718D01*
X126942894Y-115910557D01*
X126824062Y-115698231D01*
X126747368Y-115579326D01*
X126722966Y-115563786D01*
X124444535Y-115563786D01*
X124398211Y-115494736D01*
X124198309Y-115214315D01*
X124026828Y-114977102D01*
X123900491Y-114805991D01*
X123836020Y-114723876D01*
X123832872Y-114720775D01*
X123769991Y-114651100D01*
X123647699Y-114504315D01*
X123509810Y-114333795D01*
X123244271Y-114007003D01*
X123053249Y-113785619D01*
X122928754Y-113661056D01*
X122862796Y-113624725D01*
X122854012Y-113628905D01*
X104969759Y-113628905D01*
X104969691Y-113124492D01*
X104969565Y-111187009D01*
X104969536Y-109562863D01*
X112286980Y-109562863D01*
X112336328Y-109585202D01*
X112488740Y-109538947D01*
X112750767Y-109421768D01*
X112924428Y-109336108D01*
X113417644Y-109087729D01*
X113679043Y-109335498D01*
X113857579Y-109497574D01*
X113968758Y-109570257D01*
X114019482Y-109543225D01*
X114016659Y-109406153D01*
X113967194Y-109148719D01*
X113925920Y-108966411D01*
X113922764Y-108856672D01*
X113995660Y-108776489D01*
X114103524Y-108726400D01*
X134611066Y-108726400D01*
X134643985Y-108811750D01*
X134756987Y-108940758D01*
X134886576Y-109125659D01*
X134885968Y-109292247D01*
X134752726Y-109465437D01*
X134701291Y-109510296D01*
X134614121Y-109609408D01*
X134637499Y-109655498D01*
X134749931Y-109644194D01*
X134929923Y-109571124D01*
X134949717Y-109560831D01*
X135237133Y-109408587D01*
X135424245Y-109637046D01*
X135549905Y-109778676D01*
X135639840Y-109858930D01*
X135656138Y-109865717D01*
X135692404Y-109803385D01*
X135732032Y-109645718D01*
X135747316Y-109556532D01*
X135787239Y-109360693D01*
X135852632Y-109260986D01*
X135978295Y-109213133D01*
X136024521Y-109203836D01*
X136228590Y-109144149D01*
X136386081Y-109064929D01*
X136451721Y-109004243D01*
X136437200Y-108952150D01*
X136323516Y-108885579D01*
X136187225Y-108823520D01*
X135992482Y-108729674D01*
X135894980Y-108644110D01*
X135874255Y-108569744D01*
X157523927Y-108569744D01*
X157583260Y-108668925D01*
X157771961Y-108790735D01*
X157809972Y-108810526D01*
X157979807Y-108913655D01*
X158079986Y-109006350D01*
X158091412Y-109034937D01*
X158058832Y-109135674D01*
X157974297Y-109314781D01*
X157880332Y-109489782D01*
X157741113Y-109745067D01*
X157678112Y-109892510D01*
X157697920Y-109935433D01*
X157807132Y-109877158D01*
X158012339Y-109721007D01*
X158137904Y-109619573D01*
X158337617Y-109469292D01*
X158499153Y-109370368D01*
X158589937Y-109342505D01*
X158593350Y-109344047D01*
X158667670Y-109424060D01*
X158781302Y-109580893D01*
X158844861Y-109678082D01*
X158971985Y-109844740D01*
X159048929Y-109885007D01*
X159060595Y-109808770D01*
X158991882Y-109625913D01*
X158975187Y-109592751D01*
X158879708Y-109355768D01*
X158889834Y-109180008D01*
X159016750Y-109029651D01*
X159186072Y-108917396D01*
X159360863Y-108798144D01*
X159465206Y-108693812D01*
X159479574Y-108647863D01*
X159399199Y-108586541D01*
X159230368Y-108530696D01*
X159157794Y-108515983D01*
X158956673Y-108474300D01*
X158813131Y-108431442D01*
X158789337Y-108420037D01*
X158752145Y-108328378D01*
X158732404Y-108132293D01*
X158732426Y-107906442D01*
X158732066Y-107672527D01*
X158714846Y-107507978D01*
X158684489Y-107448197D01*
X158684252Y-107448230D01*
X158630332Y-107514818D01*
X158551820Y-107679935D01*
X158466522Y-107905570D01*
X158372298Y-108155652D01*
X158290362Y-108297827D01*
X158200956Y-108361210D01*
X158149901Y-108372161D01*
X157804471Y-108424943D01*
X157596738Y-108489610D01*
X157523927Y-108569744D01*
X135874255Y-108569744D01*
X135861235Y-108523023D01*
X135857617Y-108392322D01*
X135836229Y-108189120D01*
X135769370Y-108115600D01*
X135652996Y-108171336D01*
X135485227Y-108353187D01*
X135329229Y-108517295D01*
X135174119Y-108588353D01*
X135027886Y-108600523D01*
X134825897Y-108618374D01*
X134675068Y-108660649D01*
X134662731Y-108667553D01*
X134611066Y-108726400D01*
X114103524Y-108726400D01*
X114174387Y-108693493D01*
X114178467Y-108691888D01*
X114353498Y-108612671D01*
X114456547Y-108545807D01*
X114468143Y-108526949D01*
X114404995Y-108466363D01*
X114236675Y-108387268D01*
X113994873Y-108303889D01*
X113927577Y-108284301D01*
X113834899Y-108227963D01*
X113752517Y-108098970D01*
X113666018Y-107870868D01*
X113618297Y-107716702D01*
X113538166Y-107469300D01*
X113465659Y-107284756D01*
X113413981Y-107195760D01*
X113406438Y-107192243D01*
X113351268Y-107251456D01*
X113261511Y-107406387D01*
X113160818Y-107614404D01*
X113048986Y-107850126D01*
X112958591Y-107982348D01*
X112858183Y-108037977D01*
X112716313Y-108043916D01*
X112663091Y-108040198D01*
X112507031Y-108065023D01*
X112463734Y-108161360D01*
X112536685Y-108312066D01*
X112594324Y-108378683D01*
X112776320Y-108568646D01*
X112531650Y-109054942D01*
X112415892Y-109287610D01*
X112329702Y-109465780D01*
X112288483Y-109557479D01*
X112286980Y-109562863D01*
X104969536Y-109562863D01*
X104969529Y-109139196D01*
X104969529Y-106621374D01*
X175227844Y-106621374D01*
X175253495Y-106688914D01*
X175368032Y-106844933D01*
X175436647Y-106912021D01*
X175496356Y-106992980D01*
X175529508Y-107132534D01*
X175540820Y-107361340D01*
X175538648Y-107574655D01*
X175533581Y-107845828D01*
X175531416Y-108061049D01*
X175532474Y-108182929D01*
X175533339Y-108194875D01*
X175579692Y-108251486D01*
X175679931Y-108188766D01*
X175825561Y-108013526D01*
X175906217Y-107895845D01*
X176037867Y-107708574D01*
X176144891Y-107580969D01*
X176195118Y-107544044D01*
X176282770Y-107583380D01*
X176432823Y-107682092D01*
X176495276Y-107728295D01*
X176645817Y-107828750D01*
X176721001Y-107834868D01*
X176724536Y-107737299D01*
X176660130Y-107526690D01*
X176619043Y-107416197D01*
X176552084Y-107223625D01*
X176541159Y-107089703D01*
X176591360Y-106947390D01*
X176665296Y-106807433D01*
X176774945Y-106556723D01*
X176777428Y-106391390D01*
X176669231Y-106301634D01*
X176475199Y-106277372D01*
X176294675Y-106261251D01*
X176179640Y-106188714D01*
X176073363Y-106022997D01*
X176068420Y-106013776D01*
X175966400Y-105851056D01*
X175879016Y-105758315D01*
X175857340Y-105750116D01*
X175800597Y-105811824D01*
X175737642Y-105968362D01*
X175711388Y-106063461D01*
X175640516Y-106278215D01*
X175536241Y-106402904D01*
X175410414Y-106469027D01*
X175263120Y-106544499D01*
X175227844Y-106621374D01*
X104969529Y-106621374D01*
X104969529Y-101826361D01*
X145955783Y-101826361D01*
X146020102Y-101902264D01*
X146135981Y-101979189D01*
X146303753Y-102072709D01*
X146422276Y-102123194D01*
X146439067Y-102126052D01*
X146465266Y-102191074D01*
X146464408Y-102369744D01*
X146438283Y-102637979D01*
X146388682Y-102971696D01*
X146367160Y-103093767D01*
X146355231Y-103263705D01*
X146405081Y-103311527D01*
X146518403Y-103236753D01*
X146696889Y-103038898D01*
X146737614Y-102988227D01*
X146887299Y-102799895D01*
X147003980Y-102653843D01*
X147053317Y-102592803D01*
X147128514Y-102603448D01*
X147282408Y-102686622D01*
X147485005Y-102825474D01*
X147536070Y-102864077D01*
X147744764Y-103016046D01*
X147909713Y-103120131D01*
X148001438Y-103158158D01*
X148009074Y-103155652D01*
X148003656Y-103076024D01*
X147953172Y-102900399D01*
X147867702Y-102662243D01*
X147837034Y-102584326D01*
X147624081Y-102053913D01*
X147831050Y-101906538D01*
X147959902Y-101804433D01*
X147981606Y-101778812D01*
X160024550Y-101778812D01*
X160029414Y-101792398D01*
X160125271Y-101897453D01*
X160329079Y-102032288D01*
X160614401Y-102184943D01*
X160954801Y-102343454D01*
X161323842Y-102495863D01*
X161695089Y-102630206D01*
X162042104Y-102734523D01*
X162189859Y-102769896D01*
X162402756Y-102828830D01*
X162515967Y-102905604D01*
X162570177Y-103027940D01*
X162570504Y-103029265D01*
X162770069Y-103555960D01*
X163090402Y-104015407D01*
X163526212Y-104402894D01*
X164072203Y-104713707D01*
X164718673Y-104941956D01*
X165312570Y-105040710D01*
X165860465Y-105006629D01*
X166240623Y-104894066D01*
X166409539Y-104793242D01*
X166629911Y-104618553D01*
X166861420Y-104402811D01*
X166925181Y-104336937D01*
X167350916Y-103885441D01*
X167980582Y-104019376D01*
X168578312Y-104133450D01*
X169050139Y-104193241D01*
X169400453Y-104197634D01*
X169633641Y-104145517D01*
X169754090Y-104035774D01*
X169766189Y-103867291D01*
X169674324Y-103638954D01*
X169649536Y-103595546D01*
X169455909Y-103362134D01*
X169288091Y-103242167D01*
X186865033Y-103242167D01*
X186931997Y-103349423D01*
X187127505Y-103506061D01*
X187263733Y-103598572D01*
X187475065Y-103740831D01*
X187611058Y-103857763D01*
X187674794Y-103977759D01*
X187669355Y-104129207D01*
X187597824Y-104340494D01*
X187463284Y-104640012D01*
X187393065Y-104789712D01*
X187250972Y-105103434D01*
X187174431Y-105303102D01*
X187161439Y-105398107D01*
X187209994Y-105397839D01*
X187273268Y-105351310D01*
X187383382Y-105257977D01*
X187565797Y-105102804D01*
X187785798Y-104915330D01*
X187844021Y-104865666D01*
X188291643Y-104483762D01*
X188500780Y-104729831D01*
X188644359Y-104917182D01*
X188751789Y-105089687D01*
X188772607Y-105134210D01*
X188850026Y-105256290D01*
X188914927Y-105292520D01*
X188963059Y-105241262D01*
X188953339Y-105185109D01*
X188928104Y-105066602D01*
X188898675Y-104850281D01*
X188870672Y-104578710D01*
X188865777Y-104521990D01*
X188819433Y-103966282D01*
X189181213Y-103743677D01*
X189365981Y-103617688D01*
X189482705Y-103513881D01*
X189506399Y-103461858D01*
X189421296Y-103420668D01*
X189242021Y-103378438D01*
X189094375Y-103355739D01*
X188718946Y-103308833D01*
X188635596Y-102630594D01*
X188594226Y-102333734D01*
X188551147Y-102090108D01*
X188512770Y-101933275D01*
X188495101Y-101895212D01*
X188442657Y-101926277D01*
X188359524Y-102087418D01*
X188248467Y-102372027D01*
X188112251Y-102773496D01*
X188063480Y-102926585D01*
X187977792Y-103199153D01*
X187458278Y-103165813D01*
X187125886Y-103155450D01*
X186928900Y-103179205D01*
X186865033Y-103242167D01*
X169288091Y-103242167D01*
X169156899Y-103148383D01*
X168739585Y-102946388D01*
X168350567Y-102801046D01*
X167704504Y-102580648D01*
X167591139Y-102124811D01*
X167457344Y-101673449D01*
X167294745Y-101315046D01*
X167078224Y-101001893D01*
X166890159Y-100793306D01*
X166503101Y-100492783D01*
X166016221Y-100275832D01*
X165448225Y-100150179D01*
X165293056Y-100133709D01*
X165071477Y-100107828D01*
X164905994Y-100075448D01*
X164856923Y-100057454D01*
X164751176Y-100051128D01*
X164551983Y-100082222D01*
X164298297Y-100140480D01*
X164029070Y-100215648D01*
X163783255Y-100297468D01*
X163599804Y-100375685D01*
X163559410Y-100399076D01*
X163383929Y-100542236D01*
X163177544Y-100749860D01*
X162979850Y-100977785D01*
X162830441Y-101181847D01*
X162785877Y-101261871D01*
X162745810Y-101344038D01*
X162697651Y-101392962D01*
X162613491Y-101410708D01*
X162465420Y-101399339D01*
X162225530Y-101360922D01*
X161995397Y-101320345D01*
X161521882Y-101260099D01*
X161084115Y-101248547D01*
X160699040Y-101281622D01*
X160383602Y-101355254D01*
X160154744Y-101465376D01*
X160029412Y-101607918D01*
X160024550Y-101778812D01*
X147981606Y-101778812D01*
X148014489Y-101739994D01*
X148013145Y-101734291D01*
X147934405Y-101711094D01*
X147765914Y-101682236D01*
X147686180Y-101671461D01*
X147488813Y-101627442D01*
X147320010Y-101533097D01*
X147131800Y-101359195D01*
X147075702Y-101299439D01*
X146902916Y-101121489D01*
X146794454Y-101039234D01*
X146726742Y-101038483D01*
X146696093Y-101070914D01*
X146639790Y-101222266D01*
X146623792Y-101355872D01*
X146570843Y-101569451D01*
X146417431Y-101684688D01*
X146274432Y-101705232D01*
X146096134Y-101730036D01*
X145995261Y-101769449D01*
X145955783Y-101826361D01*
X104969529Y-101826361D01*
X104969529Y-99876937D01*
X130541060Y-99876937D01*
X130556857Y-99945911D01*
X130619231Y-100019315D01*
X130765418Y-100140714D01*
X130871329Y-100194358D01*
X130978344Y-100292323D01*
X130992509Y-100473183D01*
X130912722Y-100713138D01*
X130896796Y-100744746D01*
X130798758Y-100974880D01*
X130794833Y-101102150D01*
X130880872Y-101124424D01*
X131052726Y-101039571D01*
X131224535Y-100913147D01*
X131508409Y-100685019D01*
X131674375Y-100877967D01*
X131793277Y-101005036D01*
X131871998Y-101069073D01*
X131878896Y-101070914D01*
X131902032Y-101008029D01*
X131915790Y-100849166D01*
X131917451Y-100758665D01*
X131927427Y-100570240D01*
X131976968Y-100441597D01*
X132095494Y-100322596D01*
X132234071Y-100219037D01*
X132451435Y-100044060D01*
X132541086Y-99915297D01*
X132499765Y-99823472D01*
X132324210Y-99759307D01*
X132058171Y-99718589D01*
X131944559Y-99687018D01*
X131887482Y-99598702D01*
X131861586Y-99412735D01*
X131860635Y-99399861D01*
X131825869Y-99191948D01*
X131757093Y-99115615D01*
X131648153Y-99170471D01*
X131492896Y-99356128D01*
X131478932Y-99375712D01*
X131299331Y-99577326D01*
X131097966Y-99679641D01*
X131022886Y-99697075D01*
X130811856Y-99748459D01*
X130643520Y-99808897D01*
X130628837Y-99816277D01*
X130541060Y-99876937D01*
X104969529Y-99876937D01*
X104969529Y-98370556D01*
X107868814Y-98370556D01*
X107960191Y-98484403D01*
X108118143Y-98581322D01*
X108286139Y-98684861D01*
X108367256Y-98799863D01*
X108398485Y-98985283D01*
X108401839Y-99033456D01*
X108433573Y-99330529D01*
X108485603Y-99491003D01*
X108562733Y-99518144D01*
X108669767Y-99415219D01*
X108759652Y-99276731D01*
X108885711Y-99097544D01*
X109002032Y-99041966D01*
X109147398Y-99101518D01*
X109242296Y-99171191D01*
X109422351Y-99286177D01*
X109522680Y-99289929D01*
X109541626Y-99188294D01*
X109477531Y-98987115D01*
X109361418Y-98751187D01*
X109179901Y-98417680D01*
X109326238Y-98144646D01*
X109415815Y-97964574D01*
X109467529Y-97835562D01*
X109472576Y-97810173D01*
X109413571Y-97780686D01*
X109259070Y-97801865D01*
X109042845Y-97868764D01*
X109024235Y-97875811D01*
X108940288Y-97861838D01*
X108842207Y-97746175D01*
X108721601Y-97524310D01*
X108613171Y-97319049D01*
X108523125Y-97176663D01*
X108476065Y-97130748D01*
X108431064Y-97191869D01*
X108386556Y-97339226D01*
X108354557Y-97518807D01*
X108347083Y-97676598D01*
X108349454Y-97699844D01*
X108355803Y-97933343D01*
X108279433Y-98079420D01*
X108100553Y-98176569D01*
X107915688Y-98269947D01*
X107868814Y-98370556D01*
X104969529Y-98370556D01*
X104969529Y-94109339D01*
X123847023Y-94109339D01*
X123958065Y-94251284D01*
X124137116Y-94364273D01*
X124292276Y-94422776D01*
X124499691Y-94465422D01*
X124617589Y-94489708D01*
X124763387Y-94582333D01*
X124914415Y-94787650D01*
X124941889Y-94837553D01*
X125126722Y-95132887D01*
X125337701Y-95342248D01*
X125599915Y-95476796D01*
X125938454Y-95547695D01*
X126378409Y-95566107D01*
X126570083Y-95561914D01*
X126942463Y-95540547D01*
X127214244Y-95501169D01*
X127425125Y-95436613D01*
X127526786Y-95389214D01*
X127843212Y-95159199D01*
X128039496Y-94858872D01*
X128085352Y-94718306D01*
X128187933Y-94558823D01*
X128319069Y-94504801D01*
X128551164Y-94416115D01*
X128748375Y-94267978D01*
X128870859Y-94095518D01*
X128891966Y-93999723D01*
X128841883Y-93859253D01*
X152872526Y-93859253D01*
X152944561Y-93904615D01*
X153104894Y-93928350D01*
X153149602Y-93929363D01*
X153316325Y-93945882D01*
X153400974Y-93986860D01*
X153403828Y-93999723D01*
X153388675Y-94108370D01*
X153360964Y-94296985D01*
X153349189Y-94375599D01*
X153334563Y-94572886D01*
X153371120Y-94650036D01*
X153463409Y-94606085D01*
X153615978Y-94440071D01*
X153727976Y-94295389D01*
X153973127Y-93967187D01*
X154343627Y-94010732D01*
X154549324Y-94024327D01*
X154683738Y-94012909D01*
X154713864Y-93991820D01*
X154679836Y-93896238D01*
X154595723Y-93737083D01*
X154568952Y-93692099D01*
X154424303Y-93454835D01*
X154569215Y-93300583D01*
X154673488Y-93163955D01*
X154714127Y-93062916D01*
X154711324Y-93002513D01*
X154676210Y-92986173D01*
X154568720Y-93010854D01*
X154455623Y-93043283D01*
X154299869Y-93074929D01*
X154216162Y-93029356D01*
X154150641Y-92884973D01*
X154089804Y-92725521D01*
X179208541Y-92725521D01*
X179229006Y-92760111D01*
X179318423Y-92769966D01*
X179564304Y-92826606D01*
X179858302Y-92975269D01*
X180169181Y-93191766D01*
X180465704Y-93451909D01*
X180716634Y-93731508D01*
X180875609Y-93975761D01*
X181014490Y-94298100D01*
X181132045Y-94665356D01*
X181212191Y-95019732D01*
X181239054Y-95281788D01*
X181191155Y-95564712D01*
X181061472Y-95892899D01*
X180873726Y-96218491D01*
X180651638Y-96493633D01*
X180625744Y-96519133D01*
X180422025Y-96684724D01*
X180146568Y-96870643D01*
X179855788Y-97039085D01*
X179829468Y-97052778D01*
X179543466Y-97204921D01*
X179361754Y-97318546D01*
X179290102Y-97398225D01*
X179334282Y-97448530D01*
X179500062Y-97474032D01*
X179793214Y-97479305D01*
X180219507Y-97468918D01*
X180348935Y-97464361D01*
X180783430Y-97446262D01*
X181106203Y-97425682D01*
X181346244Y-97398449D01*
X181532540Y-97360390D01*
X181694080Y-97307331D01*
X181823045Y-97252162D01*
X182166654Y-97046677D01*
X182506262Y-96761440D01*
X182796536Y-96439354D01*
X182973041Y-96163808D01*
X183058889Y-95914697D01*
X183099096Y-95587699D01*
X183104059Y-95371745D01*
X183092937Y-95051714D01*
X183049202Y-94798630D01*
X182956502Y-94539663D01*
X182878804Y-94368513D01*
X182621747Y-93929245D01*
X182289794Y-93516201D01*
X181918755Y-93169098D01*
X181610041Y-92961313D01*
X181289356Y-92826997D01*
X180881192Y-92712644D01*
X180438434Y-92628227D01*
X180013968Y-92583717D01*
X179660679Y-92589088D01*
X179645570Y-92590877D01*
X179439108Y-92628705D01*
X179286003Y-92677652D01*
X179208541Y-92725521D01*
X154089804Y-92725521D01*
X154048518Y-92617311D01*
X153977195Y-92456204D01*
X153921387Y-92375242D01*
X153865812Y-92348020D01*
X153838846Y-92346260D01*
X153751072Y-92410181D01*
X153674945Y-92577316D01*
X153665740Y-92610110D01*
X153602540Y-92852958D01*
X153542903Y-93082655D01*
X153539898Y-93094253D01*
X153425415Y-93306714D01*
X153201080Y-93528122D01*
X153170569Y-93551845D01*
X153001579Y-93693627D01*
X152894211Y-93809666D01*
X152872526Y-93859253D01*
X128841883Y-93859253D01*
X128826572Y-93816308D01*
X128650248Y-93654925D01*
X128392781Y-93538630D01*
X128254766Y-93506533D01*
X128053766Y-93450339D01*
X127923570Y-93337851D01*
X127883339Y-93269822D01*
X138252440Y-93269822D01*
X138276633Y-93330896D01*
X138281983Y-93331302D01*
X138346667Y-93287402D01*
X138481258Y-93173676D01*
X138616194Y-93051835D01*
X138829616Y-92870605D01*
X139045669Y-92712207D01*
X139151641Y-92647265D01*
X139384999Y-92522160D01*
X139608981Y-92768456D01*
X139773424Y-92959956D01*
X139914873Y-93142217D01*
X139948402Y-93190617D01*
X140049121Y-93316028D01*
X140099603Y-93324763D01*
X140095018Y-93233339D01*
X140030537Y-93058272D01*
X140003647Y-93001661D01*
X139911386Y-92778376D01*
X139854035Y-92570563D01*
X139847361Y-92520664D01*
X139855549Y-92393026D01*
X139927034Y-92310463D01*
X140096159Y-92237294D01*
X140131994Y-92224951D01*
X140315408Y-92141771D01*
X140420313Y-92052789D01*
X140431024Y-92021568D01*
X140414958Y-91948751D01*
X140346038Y-91898676D01*
X140193188Y-91857159D01*
X139991274Y-91820853D01*
X139818165Y-91780340D01*
X139743989Y-91708043D01*
X139727490Y-91559996D01*
X139727423Y-91539685D01*
X139702157Y-91262739D01*
X139632998Y-91111435D01*
X139529906Y-91089778D01*
X139402841Y-91201773D01*
X139301577Y-91368443D01*
X139194289Y-91549276D01*
X139099214Y-91623468D01*
X139001116Y-91622152D01*
X138710806Y-91556664D01*
X138531156Y-91521158D01*
X138435608Y-91514407D01*
X138397609Y-91535184D01*
X138390601Y-91582262D01*
X138390581Y-91593942D01*
X138448997Y-91703481D01*
X138522022Y-91745254D01*
X138672973Y-91830028D01*
X138772957Y-91919011D01*
X138836851Y-92003868D01*
X138847096Y-92090635D01*
X138798007Y-92222049D01*
X138710000Y-92392145D01*
X138577754Y-92631979D01*
X138447353Y-92856947D01*
X138393848Y-92944321D01*
X138294885Y-93129293D01*
X138252440Y-93269822D01*
X127883339Y-93269822D01*
X127837103Y-93191638D01*
X127650314Y-92921526D01*
X127388927Y-92663209D01*
X127099155Y-92456218D01*
X126847655Y-92345218D01*
X126431295Y-92297915D01*
X126004635Y-92361923D01*
X125598406Y-92522214D01*
X125243339Y-92763760D01*
X124970165Y-93071532D01*
X124841181Y-93326424D01*
X124762181Y-93525681D01*
X124678266Y-93640093D01*
X124544410Y-93708412D01*
X124330740Y-93765732D01*
X124034480Y-93863219D01*
X123872572Y-93978627D01*
X123847023Y-94109339D01*
X104969529Y-94109339D01*
X104969529Y-90775925D01*
X114697842Y-90775925D01*
X114797643Y-90941165D01*
X114899129Y-91053703D01*
X115119034Y-91280588D01*
X114936400Y-91753166D01*
X114851528Y-91992812D01*
X114798926Y-92181679D01*
X114788985Y-92281870D01*
X114790524Y-92285220D01*
X114871041Y-92294324D01*
X115026486Y-92218479D01*
X115232411Y-92072365D01*
X115434789Y-91898406D01*
X115662654Y-91686976D01*
X115853775Y-91858308D01*
X116010217Y-91999026D01*
X116133776Y-92110948D01*
X116141047Y-92117590D01*
X116279942Y-92194185D01*
X116345340Y-92205540D01*
X116416945Y-92172806D01*
X116413971Y-92053216D01*
X116404275Y-92012050D01*
X116346482Y-91748607D01*
X116302223Y-91480117D01*
X116277458Y-91251201D01*
X116278147Y-91106478D01*
X116281469Y-91092709D01*
X116359562Y-91002638D01*
X116508665Y-90903870D01*
X116514943Y-90900591D01*
X116540567Y-90884161D01*
X166481147Y-90884161D01*
X166556172Y-90961889D01*
X166717127Y-91067813D01*
X166838666Y-91133289D01*
X167039470Y-91248005D01*
X167138783Y-91363226D01*
X167149312Y-91518232D01*
X167083759Y-91752300D01*
X167060297Y-91818559D01*
X166980478Y-92060413D01*
X166963049Y-92184465D01*
X167015118Y-92193178D01*
X167143794Y-92089014D01*
X167322683Y-91909428D01*
X167470557Y-91757246D01*
X167572569Y-91683177D01*
X167660023Y-91695041D01*
X167764222Y-91800657D01*
X167916467Y-92007842D01*
X167960100Y-92068639D01*
X168024737Y-92152941D01*
X168058093Y-92164871D01*
X168065301Y-92084820D01*
X168051493Y-91893183D01*
X168039718Y-91764527D01*
X168028753Y-91621785D01*
X190187763Y-91621785D01*
X190230076Y-91756860D01*
X190309936Y-91829027D01*
X190417236Y-91938976D01*
X190450008Y-92086970D01*
X190410331Y-92305459D01*
X190352001Y-92485626D01*
X190296615Y-92679358D01*
X190280087Y-92818823D01*
X190287066Y-92848332D01*
X190363707Y-92850638D01*
X190522790Y-92791448D01*
X190697617Y-92701326D01*
X191068040Y-92489391D01*
X191232157Y-92664086D01*
X191359023Y-92782616D01*
X191449064Y-92838197D01*
X191454369Y-92838781D01*
X191486336Y-92775186D01*
X191507437Y-92611299D01*
X191512465Y-92455953D01*
X191525688Y-92234604D01*
X191559678Y-92074614D01*
X191590004Y-92025203D01*
X191674669Y-91919049D01*
X191775873Y-91711826D01*
X191876763Y-91439165D01*
X191895758Y-91378809D01*
X191913217Y-91273312D01*
X191855155Y-91229220D01*
X191695582Y-91220498D01*
X191467518Y-91169360D01*
X191336364Y-91016230D01*
X191301384Y-90807116D01*
X191261114Y-90659631D01*
X191165586Y-90605032D01*
X191068018Y-90651759D01*
X190994087Y-90764039D01*
X190903965Y-90950475D01*
X190871617Y-91029091D01*
X190773319Y-91229621D01*
X190648546Y-91341069D01*
X190483201Y-91402698D01*
X190274477Y-91497974D01*
X190187763Y-91621785D01*
X168028753Y-91621785D01*
X168019924Y-91506838D01*
X168026462Y-91344331D01*
X168069083Y-91232449D01*
X168157536Y-91126633D01*
X168185477Y-91098380D01*
X168384484Y-90874812D01*
X168464780Y-90719194D01*
X168428333Y-90627101D01*
X168401151Y-90613462D01*
X168241624Y-90594788D01*
X168154444Y-90607242D01*
X168044574Y-90614190D01*
X167956998Y-90553640D01*
X167874181Y-90403031D01*
X167778590Y-90139801D01*
X167769401Y-90111781D01*
X167679904Y-89883853D01*
X167604643Y-89795567D01*
X167542000Y-89846742D01*
X167490355Y-90037194D01*
X167483158Y-90079615D01*
X167436340Y-90361742D01*
X167395019Y-90532895D01*
X167340861Y-90620786D01*
X167255532Y-90653127D01*
X167120696Y-90657632D01*
X167100746Y-90657617D01*
X166845362Y-90678576D01*
X166635742Y-90733369D01*
X166505038Y-90809877D01*
X166481147Y-90884161D01*
X116540567Y-90884161D01*
X116675702Y-90797512D01*
X116700712Y-90719936D01*
X116588204Y-90661573D01*
X116439064Y-90630732D01*
X116263569Y-90591712D01*
X116166686Y-90519260D01*
X116105495Y-90370376D01*
X116078911Y-90269939D01*
X116016196Y-90082782D01*
X115948185Y-89969568D01*
X115919763Y-89954169D01*
X115839006Y-90008379D01*
X115716937Y-90147452D01*
X115629085Y-90269243D01*
X115491042Y-90456809D01*
X115374081Y-90551269D01*
X115232559Y-90583412D01*
X115159909Y-90585710D01*
X114874772Y-90605741D01*
X114722150Y-90666631D01*
X114697842Y-90775925D01*
X104969529Y-90775925D01*
X104969529Y-87561773D01*
X149999999Y-87561773D01*
X195030470Y-87561773D01*
X195030470Y-108529086D01*
G37*
G36*
X161740432Y-122940833D02*
G01*
X161900478Y-123092178D01*
X162051054Y-123301325D01*
X162111051Y-123413918D01*
X162227018Y-123618533D01*
X162351584Y-123725111D01*
X162480742Y-123765158D01*
X162657016Y-123790758D01*
X162771389Y-123794189D01*
X162772918Y-123793908D01*
X163101691Y-123796385D01*
X163411554Y-123920202D01*
X163670183Y-124146619D01*
X163824745Y-124403711D01*
X163917555Y-124560257D01*
X164018024Y-124639248D01*
X164034285Y-124641551D01*
X164174166Y-124706263D01*
X164294155Y-124877960D01*
X164379043Y-125122985D01*
X164413623Y-125407682D01*
X164412712Y-125479019D01*
X164409349Y-125702349D01*
X164439890Y-125839619D01*
X164530404Y-125945270D01*
X164692771Y-126063920D01*
X164972424Y-126320526D01*
X165173024Y-126656906D01*
X165305042Y-127093499D01*
X165346483Y-127339907D01*
X165386872Y-127632940D01*
X165425681Y-127906848D01*
X165452967Y-128092075D01*
X165458773Y-128247188D01*
X165420061Y-128419908D01*
X165325519Y-128646260D01*
X165202811Y-128888792D01*
X165077966Y-129140937D01*
X164990183Y-129347954D01*
X164952460Y-129477737D01*
X164954715Y-129501564D01*
X165043264Y-129540122D01*
X165221804Y-129563515D01*
X165327000Y-129566759D01*
X165585358Y-129593380D01*
X165791488Y-129662262D01*
X165822057Y-129680973D01*
X165923972Y-129773683D01*
X165958435Y-129891138D01*
X165941154Y-130088347D01*
X165940202Y-130094731D01*
X165917661Y-130282691D01*
X165943029Y-130376372D01*
X166043296Y-130420653D01*
X166148976Y-130441868D01*
X166494467Y-130446778D01*
X166789381Y-130331579D01*
X167010660Y-130105725D01*
X167024666Y-130082862D01*
X167131390Y-129924438D01*
X167230349Y-129864442D01*
X167374165Y-129874196D01*
X167398689Y-129879048D01*
X167711369Y-129940647D01*
X167911417Y-129971957D01*
X168023509Y-129973500D01*
X168072319Y-129945801D01*
X168082548Y-129893553D01*
X168146541Y-129765257D01*
X168315435Y-129673656D01*
X168554603Y-129637171D01*
X168564531Y-129637119D01*
X168727821Y-129669682D01*
X168881865Y-129785340D01*
X168997229Y-129918559D01*
X169220134Y-130200000D01*
X170522196Y-130200000D01*
X170982796Y-130200939D01*
X171323297Y-130205112D01*
X171564312Y-130214551D01*
X171726458Y-130231287D01*
X171830348Y-130257353D01*
X171896598Y-130294780D01*
X171941076Y-130339854D01*
X172000057Y-130400280D01*
X172073478Y-130436469D01*
X172189505Y-130450417D01*
X172376303Y-130444117D01*
X172662040Y-130419566D01*
X172831855Y-130402952D01*
X173320802Y-130353871D01*
X173689518Y-130317651D01*
X173958008Y-130295480D01*
X174146277Y-130288546D01*
X174274329Y-130298038D01*
X174362169Y-130325144D01*
X174429803Y-130371053D01*
X174497234Y-130436954D01*
X174565594Y-130505953D01*
X174752640Y-130727102D01*
X174923682Y-130992587D01*
X174974066Y-131091979D01*
X175072233Y-131305005D01*
X175152539Y-131474680D01*
X175181067Y-131532231D01*
X175274983Y-131602099D01*
X175460593Y-131674341D01*
X175615840Y-131714858D01*
X176013918Y-131813407D01*
X176292660Y-131925676D01*
X176473143Y-132074621D01*
X176576448Y-132283202D01*
X176623653Y-132574377D01*
X176634339Y-132824140D01*
X176650810Y-133148018D01*
X176684403Y-133464853D01*
X176728202Y-133711292D01*
X176733333Y-133731333D01*
X176781824Y-133954926D01*
X176776317Y-134114595D01*
X176713831Y-134277560D01*
X176708636Y-134288045D01*
X176632181Y-134471975D01*
X176633455Y-134541324D01*
X176700723Y-134489445D01*
X176803147Y-134341591D01*
X176900684Y-134168407D01*
X176938041Y-134033609D01*
X176918390Y-133881101D01*
X176844901Y-133654789D01*
X176842382Y-133647645D01*
X176787430Y-133414376D01*
X176749780Y-133101476D01*
X176736842Y-132789852D01*
X176727534Y-132505323D01*
X176702915Y-132261755D01*
X176667940Y-132104856D01*
X176660886Y-132089268D01*
X176539743Y-131966520D01*
X176322000Y-131832653D01*
X176048423Y-131707077D01*
X175759781Y-131609205D01*
X175562759Y-131566373D01*
X175367980Y-131523018D01*
X175321475Y-131488144D01*
X182224930Y-131488144D01*
X182277472Y-131519120D01*
X182348060Y-131502257D01*
X182499566Y-131459068D01*
X182706813Y-131419247D01*
X182732485Y-131415447D01*
X182912584Y-131403272D01*
X183011943Y-131450495D01*
X183077989Y-131563100D01*
X183177879Y-131697422D01*
X183285074Y-131747922D01*
X183391351Y-131798961D01*
X183547230Y-131932121D01*
X183702492Y-132099723D01*
X183914383Y-132324718D01*
X184083250Y-132430347D01*
X184229256Y-132422975D01*
X184370914Y-132310803D01*
X184566306Y-132182861D01*
X184785817Y-132174494D01*
X184997853Y-132276053D01*
X185170823Y-132477890D01*
X185215591Y-132568768D01*
X185294763Y-132731362D01*
X185382424Y-132793374D01*
X185534039Y-132786870D01*
X185580299Y-132779621D01*
X185830989Y-132778423D01*
X186068425Y-132879200D01*
X186076296Y-132884030D01*
X186256949Y-133033007D01*
X186471293Y-133263556D01*
X186685386Y-133533848D01*
X186865290Y-133802050D01*
X186950716Y-133961754D01*
X187033022Y-134091873D01*
X187109916Y-134143127D01*
X187149413Y-134096424D01*
X187150138Y-134080802D01*
X187107562Y-133970502D01*
X186995326Y-133785952D01*
X186836668Y-133558601D01*
X186654828Y-133319898D01*
X186473043Y-133101290D01*
X186314553Y-132934227D01*
X186279664Y-132902801D01*
X186070078Y-132747553D01*
X185879487Y-132676746D01*
X185691501Y-132662604D01*
X185493441Y-132652119D01*
X185382694Y-132599961D01*
X185306252Y-132475075D01*
X185284266Y-132424014D01*
X185141257Y-132221466D01*
X184934005Y-132088389D01*
X184701375Y-132033482D01*
X184482232Y-132065445D01*
X184315442Y-132192978D01*
X184307024Y-132205263D01*
X184203889Y-132330929D01*
X184122914Y-132381163D01*
X184048270Y-132328176D01*
X183924493Y-132190645D01*
X183806549Y-132036647D01*
X183645584Y-131843067D01*
X183486666Y-131700626D01*
X183393139Y-131650493D01*
X183232633Y-131561810D01*
X183111443Y-131432128D01*
X182978432Y-131302541D01*
X182843955Y-131255401D01*
X182670293Y-131278341D01*
X182477150Y-131334886D01*
X182313492Y-131406626D01*
X182228285Y-131475151D01*
X182224930Y-131488144D01*
X175321475Y-131488144D01*
X175269044Y-131448826D01*
X175223666Y-131323787D01*
X175124370Y-131069164D01*
X174948028Y-130782109D01*
X174731032Y-130513456D01*
X174509775Y-130314043D01*
X174492280Y-130302141D01*
X174258812Y-130184629D01*
X174022147Y-130161148D01*
X173957617Y-130166909D01*
X173771700Y-130185899D01*
X173487739Y-130212375D01*
X173147954Y-130242485D01*
X172871018Y-130266041D01*
X172521712Y-130293393D01*
X172285864Y-130305061D01*
X172136898Y-130299247D01*
X172048238Y-130274151D01*
X171993309Y-130227976D01*
X171976432Y-130205501D01*
X171929181Y-130156856D01*
X171851836Y-130122097D01*
X171722523Y-130098822D01*
X171519369Y-130084632D01*
X171220498Y-130077124D01*
X170804038Y-130073900D01*
X170776327Y-130073796D01*
X170380155Y-130072076D01*
X170020827Y-130069993D01*
X169727792Y-130067757D01*
X169530498Y-130065578D01*
X169474996Y-130064523D01*
X169272493Y-129994174D01*
X169036666Y-129791473D01*
X169023943Y-129777839D01*
X168763733Y-129562975D01*
X168510901Y-129488222D01*
X168266381Y-129553676D01*
X168101396Y-129682234D01*
X167978922Y-129792560D01*
X167870793Y-129833269D01*
X167718882Y-129816027D01*
X167590503Y-129784760D01*
X167319704Y-129735500D01*
X167132603Y-129764776D01*
X166987574Y-129887118D01*
X166893382Y-130028110D01*
X166739025Y-130208060D01*
X166551969Y-130315281D01*
X166365974Y-130345327D01*
X166214799Y-130293751D01*
X166132206Y-130156107D01*
X166127947Y-130128921D01*
X166087740Y-129863950D01*
X166022688Y-129697271D01*
X165905419Y-129586475D01*
X165717446Y-129492953D01*
X165501013Y-129411525D01*
X165319157Y-129362318D01*
X165262310Y-129355678D01*
X165146497Y-129317388D01*
X165140209Y-129233513D01*
X165195780Y-129181016D01*
X165262101Y-129096706D01*
X165356251Y-128927852D01*
X165413890Y-128807473D01*
X165479809Y-128646287D01*
X165520145Y-128491909D01*
X165538364Y-128308056D01*
X165537930Y-128058446D01*
X165522308Y-127706794D01*
X165521123Y-127684626D01*
X165504396Y-127340867D01*
X165499881Y-127113763D01*
X165510008Y-126979591D01*
X165537208Y-126914625D01*
X165583910Y-126895143D01*
X165602044Y-126894620D01*
X165807841Y-126940209D01*
X166057054Y-127052274D01*
X166291482Y-127199947D01*
X166444742Y-127341576D01*
X166594337Y-127492776D01*
X166703986Y-127511802D01*
X166771799Y-127419085D01*
X166890442Y-127290376D01*
X167096651Y-127236935D01*
X167353964Y-127267549D01*
X167375073Y-127273712D01*
X167585948Y-127355517D01*
X167806384Y-127467764D01*
X167998502Y-127587591D01*
X168124422Y-127692139D01*
X168152908Y-127743134D01*
X168207375Y-127797926D01*
X168328626Y-127801123D01*
X168453431Y-127754975D01*
X168482562Y-127731398D01*
X168600283Y-127679271D01*
X168810081Y-127637209D01*
X169063406Y-127610194D01*
X169311706Y-127603208D01*
X169506432Y-127621235D01*
X169521692Y-127624756D01*
X169722910Y-127720876D01*
X169952064Y-127895883D01*
X170162857Y-128109115D01*
X170305595Y-128313239D01*
X170371922Y-128424361D01*
X170451301Y-128482965D01*
X170584595Y-128502861D01*
X170812663Y-128497855D01*
X170847291Y-128496285D01*
X171087836Y-128488700D01*
X171228511Y-128504158D01*
X171309951Y-128557972D01*
X171372795Y-128665459D01*
X171389473Y-128700620D01*
X171484615Y-128853265D01*
X171615654Y-128924308D01*
X171776454Y-128946880D01*
X171962956Y-128974758D01*
X172051526Y-129038033D01*
X172082226Y-129144598D01*
X172156464Y-129370536D01*
X172305649Y-129481315D01*
X172420683Y-129496399D01*
X172578544Y-129550052D01*
X172724067Y-129723478D01*
X172736711Y-129744477D01*
X172894873Y-129968508D01*
X173050840Y-130078543D01*
X173223584Y-130073421D01*
X173432076Y-129951981D01*
X173695288Y-129713062D01*
X173723965Y-129684074D01*
X173985145Y-129451191D01*
X174209925Y-129330995D01*
X174425456Y-129310623D01*
X174489445Y-129321405D01*
X174635967Y-129339104D01*
X174690768Y-129289417D01*
X174696398Y-129225947D01*
X174752306Y-129052921D01*
X174896014Y-128853626D01*
X175091495Y-128668652D01*
X175302724Y-128538587D01*
X175308764Y-128536026D01*
X175478301Y-128429960D01*
X175535021Y-128286937D01*
X175481981Y-128085226D01*
X175395262Y-127921067D01*
X175278969Y-127620949D01*
X175291532Y-127354566D01*
X175422442Y-127136170D01*
X175661190Y-126980010D01*
X175997267Y-126900338D01*
X176153338Y-126893074D01*
X176358280Y-126882502D01*
X176478280Y-126854903D01*
X176494087Y-126828387D01*
X176402639Y-126784270D01*
X176235872Y-126765959D01*
X176226084Y-126765998D01*
X175951087Y-126763516D01*
X175773959Y-126736109D01*
X175651945Y-126664059D01*
X175542293Y-126527647D01*
X175471826Y-126418144D01*
X175315156Y-126116290D01*
X175270897Y-125870883D01*
X175338551Y-125654385D01*
X175455246Y-125502051D01*
X175721916Y-125309563D01*
X176034890Y-125228738D01*
X176352206Y-125267395D01*
X176463510Y-125314165D01*
X176627275Y-125384637D01*
X176707653Y-125375588D01*
X176724947Y-125345657D01*
X176857249Y-125151416D01*
X177076403Y-125024698D01*
X177264542Y-124993351D01*
X177434299Y-124987004D01*
X177496932Y-124945926D01*
X177467638Y-124837070D01*
X177399275Y-124700332D01*
X177337819Y-124551892D01*
X177348159Y-124444599D01*
X177448708Y-124356309D01*
X177657875Y-124264877D01*
X177804905Y-124212459D01*
X178179224Y-124083094D01*
X178328623Y-124264352D01*
X178470563Y-124391177D01*
X178610267Y-124403126D01*
X178627653Y-124398119D01*
X178745977Y-124335457D01*
X178777285Y-124286194D01*
X178837236Y-124214616D01*
X178990206Y-124117351D01*
X179195866Y-124013665D01*
X179413889Y-123922829D01*
X179603948Y-123864109D01*
X179685260Y-123852367D01*
X179904551Y-123900953D01*
X180152754Y-124035763D01*
X180383351Y-124224223D01*
X180549822Y-124433762D01*
X180569550Y-124471547D01*
X180671589Y-124650396D01*
X180760412Y-124703077D01*
X180859126Y-124639371D01*
X180888088Y-124606371D01*
X181040518Y-124509088D01*
X181255562Y-124516776D01*
X181541101Y-124631409D01*
X181905018Y-124854964D01*
X181919396Y-124864872D01*
X182313366Y-125159581D01*
X182627468Y-125454471D01*
X182906651Y-125796633D01*
X183139612Y-126143231D01*
X183279722Y-126349802D01*
X183402409Y-126504730D01*
X183475253Y-126570464D01*
X183580239Y-126571918D01*
X183784885Y-126543624D01*
X184052646Y-126491191D01*
X184178625Y-126462493D01*
X184721172Y-126368038D01*
X185177295Y-126366539D01*
X185566852Y-126458723D01*
X185701169Y-126518268D01*
X186067516Y-126727810D01*
X186475226Y-127000387D01*
X186881366Y-127304057D01*
X187243002Y-127606875D01*
X187496794Y-127854300D01*
X187686289Y-128055825D01*
X187840421Y-128209957D01*
X187934722Y-128292614D01*
X187949955Y-128300277D01*
X187979167Y-128238276D01*
X187993997Y-128085491D01*
X187994459Y-128049391D01*
X188028388Y-127773994D01*
X188123041Y-127592895D01*
X188267721Y-127526339D01*
X188270847Y-127526315D01*
X188400865Y-127476480D01*
X188442064Y-127420775D01*
X188542845Y-127330774D01*
X188723918Y-127329097D01*
X188959350Y-127411772D01*
X189162334Y-127531085D01*
X189360433Y-127648859D01*
X189528621Y-127717092D01*
X189597172Y-127724576D01*
X189694221Y-127652248D01*
X189811122Y-127491305D01*
X189879499Y-127364681D01*
X189989454Y-127166060D01*
X190095158Y-127025606D01*
X190144614Y-126987278D01*
X190328020Y-126988331D01*
X190562616Y-127100531D01*
X190829426Y-127313043D01*
X190977495Y-127462739D01*
X191154498Y-127647760D01*
X191287396Y-127751041D01*
X191425178Y-127796365D01*
X191616833Y-127807518D01*
X191688131Y-127807756D01*
X192050204Y-127844697D01*
X192355418Y-127946727D01*
X192576204Y-128100658D01*
X192682781Y-128283542D01*
X192783462Y-128488384D01*
X192965275Y-128697991D01*
X193186662Y-128876169D01*
X193406064Y-128986722D01*
X193511845Y-129005598D01*
X194016904Y-129075499D01*
X194471029Y-129276527D01*
X194689944Y-129435478D01*
X195030470Y-129720583D01*
X195030470Y-138579405D01*
X195030470Y-147438227D01*
X149999999Y-147438227D01*
X104969529Y-147438227D01*
X104969529Y-139174186D01*
X104969529Y-130910146D01*
X105163019Y-131005492D01*
X105515159Y-131168962D01*
X105776442Y-131264003D01*
X105974110Y-131298706D01*
X106110996Y-131287132D01*
X106271520Y-131278132D01*
X106429488Y-131342538D01*
X106583560Y-131454605D01*
X106806878Y-131596825D01*
X107088709Y-131728014D01*
X107255401Y-131785888D01*
X107486995Y-131848982D01*
X107640701Y-131868242D01*
X107773181Y-131841052D01*
X107941097Y-131764791D01*
X107964507Y-131753123D01*
X108291059Y-131648534D01*
X108581963Y-131675692D01*
X108762600Y-131775214D01*
X108878868Y-131813879D01*
X109091256Y-131841847D01*
X109355256Y-131853414D01*
X109373358Y-131853462D01*
X109648880Y-131858802D01*
X109828073Y-131882813D01*
X109955171Y-131937487D01*
X110074408Y-132034812D01*
X110087184Y-132046953D01*
X110284185Y-132188742D01*
X110513754Y-132238727D01*
X110584395Y-132240443D01*
X110888375Y-132309412D01*
X111182020Y-132510760D01*
X111455343Y-132836144D01*
X111610907Y-133097828D01*
X111813887Y-133398013D01*
X112075546Y-133661747D01*
X112366139Y-133868964D01*
X112655923Y-133999600D01*
X112915152Y-134033588D01*
X112981268Y-134022268D01*
X113145401Y-134043572D01*
X113358892Y-134166015D01*
X113372644Y-134176365D01*
X113564803Y-134299742D01*
X113728737Y-134335640D01*
X113852091Y-134320772D01*
X114158885Y-134260708D01*
X114368948Y-134233864D01*
X114523426Y-134245313D01*
X114663464Y-134300130D01*
X114830208Y-134403388D01*
X114899579Y-134449950D01*
X115206555Y-134625526D01*
X115463022Y-134699036D01*
X115535616Y-134703047D01*
X115725352Y-134687495D01*
X115910284Y-134648612D01*
X116055852Y-134598054D01*
X116127493Y-134547478D01*
X116101695Y-134512123D01*
X115963494Y-134508926D01*
X115890615Y-134530252D01*
X115627566Y-134571151D01*
X115301422Y-134506465D01*
X114935775Y-134341458D01*
X114868880Y-134302294D01*
X114621726Y-134164094D01*
X114443037Y-134098515D01*
X114290066Y-134091961D01*
X114235639Y-134100902D01*
X113932968Y-134160458D01*
X113735614Y-134188844D01*
X113611438Y-134185022D01*
X113528302Y-134147951D01*
X113454066Y-134076594D01*
X113453181Y-134075617D01*
X113262867Y-133956806D01*
X113047776Y-133929086D01*
X112793270Y-133901437D01*
X112548716Y-133834419D01*
X112537148Y-133829712D01*
X112341801Y-133717519D01*
X112130324Y-133549863D01*
X111935285Y-133358983D01*
X111789257Y-133177120D01*
X111724809Y-133036515D01*
X111724099Y-133024912D01*
X111739615Y-132948804D01*
X111809537Y-132921330D01*
X111968924Y-132934426D01*
X112058310Y-132948055D01*
X112326423Y-133007789D01*
X112628690Y-133099037D01*
X112765679Y-133149086D01*
X113013806Y-133233879D01*
X113178498Y-133252566D01*
X113275790Y-133223468D01*
X113376750Y-133148976D01*
X113397546Y-133058221D01*
X113330774Y-132927790D01*
X113169030Y-132734273D01*
X113096121Y-132655324D01*
X112900684Y-132409942D01*
X112799531Y-132206335D01*
X112788062Y-132060388D01*
X112861679Y-131987983D01*
X113015781Y-132005005D01*
X113245769Y-132127338D01*
X113248480Y-132129176D01*
X113460215Y-132259718D01*
X113600562Y-132299522D01*
X113705023Y-132249376D01*
X113789138Y-132141182D01*
X113984081Y-131966180D01*
X114277079Y-131863877D01*
X114644468Y-131836356D01*
X115062583Y-131885700D01*
X115454264Y-131994563D01*
X115727330Y-132064087D01*
X115913105Y-132039529D01*
X116034383Y-131914461D01*
X116075487Y-131819418D01*
X116206731Y-131620903D01*
X116419853Y-131466252D01*
X116666120Y-131379455D01*
X116896799Y-131384502D01*
X116933248Y-131397157D01*
X117118157Y-131444662D01*
X117259771Y-131440452D01*
X117552246Y-131371891D01*
X117910836Y-131316521D01*
X118288600Y-131278654D01*
X118638595Y-131262604D01*
X118913879Y-131272682D01*
X118980033Y-131282419D01*
X119173661Y-131356654D01*
X119396386Y-131493087D01*
X119498891Y-131574064D01*
X119673669Y-131706010D01*
X119817869Y-131778987D01*
X119874433Y-131783683D01*
X120266410Y-131700040D01*
X120668675Y-131729283D01*
X120832306Y-131778053D01*
X121095427Y-131925150D01*
X121369359Y-132151854D01*
X121602276Y-132411760D01*
X121691553Y-132547427D01*
X121803535Y-132632020D01*
X122007128Y-132694205D01*
X122069832Y-132704300D01*
X122304202Y-132753946D01*
X122504729Y-132826751D01*
X122547288Y-132850129D01*
X122654137Y-132942554D01*
X122683907Y-133065707D01*
X122666651Y-133216280D01*
X122661388Y-133425621D01*
X122742389Y-133580790D01*
X122930400Y-133709075D01*
X123096581Y-133781890D01*
X123400065Y-133973947D01*
X123632754Y-134268947D01*
X123745198Y-134539712D01*
X123841717Y-134764338D01*
X124010797Y-134957929D01*
X124161568Y-135078608D01*
X124378598Y-135247943D01*
X124573734Y-135416295D01*
X124659596Y-135500004D01*
X124770454Y-135601254D01*
X124887850Y-135647009D01*
X125062808Y-135649799D01*
X125214481Y-135636286D01*
X125609757Y-135646761D01*
X125925054Y-135770813D01*
X126167919Y-136011832D01*
X126215304Y-136085823D01*
X126302609Y-136218043D01*
X126394803Y-136288427D01*
X126537519Y-136316385D01*
X126768971Y-136321329D01*
X127058039Y-136338299D01*
X127274283Y-136400521D01*
X127442890Y-136497230D01*
X127603657Y-136603240D01*
X127707460Y-136665889D01*
X127724474Y-136673130D01*
X127787535Y-136633374D01*
X127922903Y-136532208D01*
X128012465Y-136462050D01*
X128205284Y-136335233D01*
X128383962Y-136259950D01*
X128442678Y-136250969D01*
X128620247Y-136314873D01*
X128754355Y-136484924D01*
X128825661Y-136728631D01*
X128829921Y-136901451D01*
X128831269Y-137087900D01*
X128872133Y-137140253D01*
X128886021Y-137134145D01*
X128934453Y-137039550D01*
X128960751Y-136862369D01*
X128962326Y-136804285D01*
X128930026Y-136566152D01*
X128811038Y-136373459D01*
X128756658Y-136315917D01*
X128597506Y-136185239D01*
X128506020Y-136139504D01*
X133464392Y-136139504D01*
X133562670Y-136148251D01*
X133782225Y-136145922D01*
X133839943Y-136144562D01*
X134107097Y-136131596D01*
X134278740Y-136099455D01*
X134399990Y-136034070D01*
X134500056Y-135938695D01*
X134650449Y-135807887D01*
X134796927Y-135774445D01*
X134895034Y-135787566D01*
X135094964Y-135863953D01*
X135238272Y-135968235D01*
X135434889Y-136080474D01*
X135600030Y-136097132D01*
X135831917Y-136134791D01*
X136109535Y-136244355D01*
X136383095Y-136399003D01*
X136602807Y-136571914D01*
X136697150Y-136688140D01*
X136880032Y-136911815D01*
X137094227Y-136999008D01*
X137334047Y-136955039D01*
X137481478Y-136907333D01*
X137601879Y-136921906D01*
X137754734Y-137010658D01*
X137811674Y-137050580D01*
X137983994Y-137150312D01*
X138156500Y-137215864D01*
X138294996Y-137240060D01*
X138365285Y-137215727D01*
X138354692Y-137164503D01*
X138275627Y-137120565D01*
X138253340Y-137128320D01*
X138164689Y-137114684D01*
X138012996Y-137037589D01*
X137959172Y-137002928D01*
X137727870Y-136858369D01*
X137561647Y-136795615D01*
X137418140Y-136805595D01*
X137291164Y-136859882D01*
X137174628Y-136913253D01*
X137086058Y-136913288D01*
X136987296Y-136843505D01*
X136840189Y-136687423D01*
X136807479Y-136650955D01*
X136517326Y-136376285D01*
X136199984Y-136157038D01*
X136073999Y-136098816D01*
X138973364Y-136098816D01*
X139048020Y-136101809D01*
X139225698Y-136059436D01*
X139340443Y-136026446D01*
X139533560Y-135971833D01*
X139670600Y-135937273D01*
X139692243Y-135933131D01*
X139774828Y-135974817D01*
X139917345Y-136093450D01*
X140054005Y-136227621D01*
X140278278Y-136431350D01*
X140464401Y-136517615D01*
X140641162Y-136492731D01*
X140802024Y-136391689D01*
X141045093Y-136271416D01*
X141321906Y-136275327D01*
X141621237Y-136388675D01*
X141795693Y-136463348D01*
X141915019Y-136488198D01*
X141936366Y-136481177D01*
X141903154Y-136434036D01*
X141776181Y-136357686D01*
X141594363Y-136269814D01*
X141396614Y-136188109D01*
X141221850Y-136130259D01*
X141126524Y-136113075D01*
X140993827Y-136152362D01*
X140834196Y-136250804D01*
X140833986Y-136250969D01*
X140625633Y-136369572D01*
X140432566Y-136369525D01*
X140230520Y-136245833D01*
X140082473Y-136096305D01*
X139825520Y-135806755D01*
X146500677Y-135806755D01*
X146517117Y-135853799D01*
X146630823Y-135844460D01*
X146726261Y-135820380D01*
X146954793Y-135787030D01*
X147160776Y-135842031D01*
X147203856Y-135862552D01*
X147369427Y-135931814D01*
X147496029Y-135927063D01*
X147648772Y-135855925D01*
X147797597Y-135785916D01*
X147914854Y-135778171D01*
X148066399Y-135834701D01*
X148141647Y-135870986D01*
X148365730Y-136025576D01*
X148503121Y-136248900D01*
X148517443Y-136286149D01*
X148617165Y-136512817D01*
X148722758Y-136630989D01*
X148864127Y-136670825D01*
X148900129Y-136672052D01*
X149031226Y-136717088D01*
X149204625Y-136828964D01*
X149270810Y-136883194D01*
X149463449Y-137023592D01*
X149653387Y-137118576D01*
X149702259Y-137132653D01*
X150053229Y-137214639D01*
X150291529Y-137297723D01*
X150444801Y-137393717D01*
X150521556Y-137482769D01*
X150663467Y-137620046D01*
X150848824Y-137646002D01*
X151096790Y-137561357D01*
X151197577Y-137508179D01*
X151466141Y-137405011D01*
X151711532Y-137425194D01*
X151965649Y-137572969D01*
X152019513Y-137617508D01*
X152174535Y-137733256D01*
X152242924Y-137750191D01*
X152213854Y-137675664D01*
X152112460Y-137554396D01*
X151925783Y-137407688D01*
X151711853Y-137302421D01*
X151532094Y-137261805D01*
X151378625Y-137290982D01*
X151225656Y-137370739D01*
X150963092Y-137492252D01*
X150767713Y-137501534D01*
X150628973Y-137406769D01*
X150516728Y-137310478D01*
X150348262Y-137204250D01*
X150167679Y-137111074D01*
X150019086Y-137053935D01*
X149949064Y-137052412D01*
X149858366Y-137055066D01*
X149692135Y-136996518D01*
X149490607Y-136895563D01*
X149294022Y-136770994D01*
X149214350Y-136709272D01*
X149044397Y-136593531D01*
X148894192Y-136534390D01*
X148872132Y-136532410D01*
X148744502Y-136462358D01*
X148616560Y-136253408D01*
X148607524Y-136233379D01*
X148502352Y-136030545D01*
X148395064Y-135874975D01*
X148360731Y-135840073D01*
X148190079Y-135755528D01*
X147963498Y-135708671D01*
X147740609Y-135705556D01*
X147581035Y-135752237D01*
X147570850Y-135759880D01*
X147455219Y-135814330D01*
X147312690Y-135769911D01*
X147302167Y-135764352D01*
X147139758Y-135716365D01*
X146928726Y-135700813D01*
X146718562Y-135715079D01*
X146558756Y-135756544D01*
X146500677Y-135806755D01*
X139825520Y-135806755D01*
X139820343Y-135800921D01*
X139418804Y-135897249D01*
X139196766Y-135958395D01*
X139036188Y-136017312D01*
X138981211Y-136051913D01*
X138973364Y-136098816D01*
X136073999Y-136098816D01*
X135891629Y-136014537D01*
X135651453Y-135969529D01*
X135427760Y-135924882D01*
X135243575Y-135828809D01*
X135008048Y-135709796D01*
X134755933Y-135685049D01*
X134532350Y-135752272D01*
X134403839Y-135871507D01*
X134297880Y-135994541D01*
X134165889Y-136031576D01*
X134028815Y-136020744D01*
X133792113Y-136021090D01*
X133572561Y-136069164D01*
X133566903Y-136071433D01*
X133471201Y-136115344D01*
X133464392Y-136139504D01*
X128506020Y-136139504D01*
X128455843Y-136114420D01*
X128426802Y-136110249D01*
X128301052Y-136145682D01*
X128132529Y-136232030D01*
X127969012Y-136339369D01*
X127858276Y-136437774D01*
X127837045Y-136479640D01*
X127786672Y-136530266D01*
X127637704Y-136481108D01*
X127413153Y-136347330D01*
X127198977Y-136227983D01*
X127003047Y-136187892D01*
X126813350Y-136198333D01*
X126557061Y-136201212D01*
X126382129Y-136123238D01*
X126241121Y-135940260D01*
X126215469Y-135893912D01*
X126110435Y-135780497D01*
X125931396Y-135654399D01*
X125850974Y-135609817D01*
X125615210Y-135514382D01*
X125382030Y-135489025D01*
X125197831Y-135503142D01*
X124977789Y-135521526D01*
X124835145Y-135496873D01*
X124708277Y-135407954D01*
X124595335Y-135295562D01*
X124399126Y-135112076D01*
X124195859Y-134950769D01*
X124133795Y-134909140D01*
X123935740Y-134716893D01*
X123897677Y-134621979D01*
X132948764Y-134621979D01*
X132956237Y-134724557D01*
X132995966Y-134702547D01*
X133056311Y-134549177D01*
X133081560Y-134457676D01*
X133135146Y-134262906D01*
X133178230Y-134134474D01*
X133190935Y-134110174D01*
X133259673Y-134058596D01*
X133409618Y-133952742D01*
X133570914Y-133841244D01*
X133872079Y-133674808D01*
X134135861Y-133626183D01*
X134394863Y-133691103D01*
X134462583Y-133724517D01*
X134571093Y-133756330D01*
X134591135Y-133722956D01*
X134527490Y-133625316D01*
X134363303Y-133548408D01*
X134138695Y-133508975D01*
X134073458Y-133506925D01*
X133784450Y-133575044D01*
X133618925Y-133682825D01*
X133468167Y-133796313D01*
X133357845Y-133856034D01*
X133342991Y-133858725D01*
X133219989Y-133922481D01*
X133099352Y-134090400D01*
X133004163Y-134327457D01*
X132985184Y-134401587D01*
X132948764Y-134621979D01*
X123897677Y-134621979D01*
X123869799Y-134552461D01*
X123731734Y-134184379D01*
X123475666Y-133885847D01*
X123156811Y-133679301D01*
X122912309Y-133535153D01*
X122792323Y-133404148D01*
X122784533Y-133266594D01*
X122834238Y-133163652D01*
X122896688Y-133108442D01*
X123000254Y-133124331D01*
X123125411Y-133181242D01*
X123340343Y-133257592D01*
X123566833Y-133292008D01*
X123756859Y-133281603D01*
X123861218Y-133225484D01*
X123977469Y-133153710D01*
X124152991Y-133186985D01*
X124363423Y-133317188D01*
X124494459Y-133436565D01*
X124725051Y-133637228D01*
X124914345Y-133711095D01*
X125082139Y-133658136D01*
X125248230Y-133478318D01*
X125277571Y-133435358D01*
X125464399Y-133227672D01*
X125671833Y-133111552D01*
X125870792Y-133091094D01*
X126032198Y-133170395D01*
X126117465Y-133317034D01*
X126243424Y-133569143D01*
X126418462Y-133692962D01*
X126625985Y-133684604D01*
X126849399Y-133540182D01*
X126891129Y-133498259D01*
X127191412Y-133254742D01*
X127543787Y-133121173D01*
X127930356Y-133084764D01*
X128222900Y-133061702D01*
X128430432Y-132984027D01*
X128495550Y-132938895D01*
X128656310Y-132844314D01*
X128791802Y-132814928D01*
X128796904Y-132815765D01*
X128887317Y-132886166D01*
X129010210Y-133047914D01*
X129131061Y-133251756D01*
X129319573Y-133543079D01*
X129539871Y-133782319D01*
X129763027Y-133943176D01*
X129953484Y-133999446D01*
X130146594Y-133940103D01*
X130326785Y-133788561D01*
X130467274Y-133584548D01*
X130541279Y-133367795D01*
X130522016Y-133178031D01*
X130515744Y-133165392D01*
X130482682Y-133060173D01*
X130530449Y-132965423D01*
X130670121Y-132845958D01*
X130701244Y-132826668D01*
X163720722Y-132826668D01*
X163737427Y-132951751D01*
X163797796Y-133081713D01*
X163918088Y-133237594D01*
X164114562Y-133440434D01*
X164403476Y-133711273D01*
X164406232Y-133713796D01*
X164550087Y-133831275D01*
X164618443Y-133840854D01*
X164627237Y-133741599D01*
X164622206Y-133701134D01*
X164550926Y-133564659D01*
X164465616Y-133517961D01*
X164336102Y-133455224D01*
X164165341Y-133326667D01*
X164091620Y-133259401D01*
X163940104Y-133091514D01*
X163876525Y-132943931D01*
X163873926Y-132758716D01*
X163906950Y-132581261D01*
X163992988Y-132448224D01*
X164166233Y-132310354D01*
X164202085Y-132286059D01*
X164381791Y-132155499D01*
X164464943Y-132053883D01*
X164477441Y-131940817D01*
X164466543Y-131873575D01*
X164460970Y-131673425D01*
X164501600Y-131522981D01*
X164625271Y-131425290D01*
X164819618Y-131416432D01*
X165050524Y-131491322D01*
X165276284Y-131638435D01*
X165491774Y-131769380D01*
X165743929Y-131857747D01*
X165783256Y-131865236D01*
X166052659Y-131955825D01*
X166278521Y-132117261D01*
X166426013Y-132318165D01*
X166464265Y-132478843D01*
X166517248Y-132658463D01*
X166649950Y-132861932D01*
X166823004Y-133042764D01*
X166997043Y-133154473D01*
X167048117Y-133168264D01*
X167198679Y-133258646D01*
X167352049Y-133484357D01*
X167363698Y-133506925D01*
X167474602Y-133815705D01*
X167461801Y-134074445D01*
X167329946Y-134295641D01*
X167255349Y-134469837D01*
X167298045Y-134663546D01*
X167446336Y-134840032D01*
X167519149Y-134889833D01*
X167698967Y-135055705D01*
X167845029Y-135298261D01*
X167852958Y-135317076D01*
X167932291Y-135487981D01*
X167980129Y-135530324D01*
X167998867Y-135483112D01*
X167982827Y-135326242D01*
X167913752Y-135138969D01*
X167911979Y-135135517D01*
X167775516Y-134945623D01*
X167596449Y-134778021D01*
X167591089Y-134774163D01*
X167424626Y-134604882D01*
X167386740Y-134435536D01*
X167481215Y-134283631D01*
X167484487Y-134280886D01*
X167565628Y-134132044D01*
X167585707Y-133900970D01*
X167546469Y-133631359D01*
X167449658Y-133366908D01*
X167447877Y-133363402D01*
X167309216Y-133159065D01*
X167149242Y-133074437D01*
X167016214Y-133074213D01*
X166935334Y-133024559D01*
X166823028Y-132888188D01*
X166706532Y-132706294D01*
X166613082Y-132520071D01*
X166575686Y-132407938D01*
X166449695Y-132140666D01*
X166217114Y-131920071D01*
X165911015Y-131775601D01*
X165846994Y-131759125D01*
X165589193Y-131668432D01*
X165337688Y-131530803D01*
X165296748Y-131501417D01*
X165043050Y-131352587D01*
X164787300Y-131276620D01*
X164566769Y-131279555D01*
X164424567Y-131360044D01*
X164357821Y-131506888D01*
X164320658Y-131715283D01*
X164318676Y-131755689D01*
X164294203Y-131951300D01*
X164208833Y-132087001D01*
X164060027Y-132203143D01*
X163855722Y-132368002D01*
X163752898Y-132539393D01*
X163721212Y-132773079D01*
X163720722Y-132826668D01*
X130701244Y-132826668D01*
X130837938Y-132741946D01*
X131032241Y-132682197D01*
X131303882Y-132652658D01*
X131384364Y-132648585D01*
X131704965Y-132619008D01*
X131897623Y-132555882D01*
X131973551Y-132446597D01*
X131943959Y-132278544D01*
X131862061Y-132111316D01*
X131744715Y-131877573D01*
X131713164Y-131739160D01*
X131765423Y-131681422D01*
X131803296Y-131677562D01*
X131925230Y-131627879D01*
X131992290Y-131566625D01*
X132042750Y-131469216D01*
X132019763Y-131347508D01*
X131957871Y-131220814D01*
X131875361Y-131021748D01*
X131898487Y-130897469D01*
X132036347Y-130820382D01*
X132095323Y-130803853D01*
X132395077Y-130797312D01*
X132723001Y-130909342D01*
X133051841Y-131129169D01*
X133155334Y-131222967D01*
X133383927Y-131423378D01*
X133560206Y-131518381D01*
X133711881Y-131518317D01*
X133815108Y-131469247D01*
X133877624Y-131401556D01*
X133872254Y-131289179D01*
X133832698Y-131166299D01*
X133760562Y-130919842D01*
X133765345Y-130768266D01*
X133850842Y-130686224D01*
X133907372Y-130667478D01*
X134037835Y-130582921D01*
X134198967Y-130403157D01*
X134311942Y-130240769D01*
X134598212Y-129906680D01*
X134953868Y-129691120D01*
X135367094Y-129597688D01*
X135826076Y-129629985D01*
X136086288Y-129700128D01*
X136256079Y-129769324D01*
X136331192Y-129858581D01*
X136349825Y-130022028D01*
X136350138Y-130074021D01*
X136309036Y-130339563D01*
X136202129Y-130592585D01*
X136054012Y-130787262D01*
X135922903Y-130870031D01*
X135749072Y-130888540D01*
X135590374Y-130871539D01*
X135481243Y-130863593D01*
X135368205Y-130902238D01*
X135222784Y-131004322D01*
X135016503Y-131186693D01*
X134945197Y-131253276D01*
X134750788Y-131440879D01*
X134610283Y-131586028D01*
X134543843Y-131667406D01*
X134543946Y-131677562D01*
X134637599Y-131640227D01*
X134789193Y-131548641D01*
X134954915Y-131433433D01*
X135090951Y-131325231D01*
X135153489Y-131254665D01*
X135154016Y-131251077D01*
X135215847Y-131118814D01*
X135368104Y-131025100D01*
X135560929Y-130997385D01*
X135604592Y-131003009D01*
X135880058Y-130989565D01*
X136124843Y-130857140D01*
X136320497Y-130626943D01*
X136448570Y-130320182D01*
X136490858Y-129984223D01*
X136544817Y-129623769D01*
X136693615Y-129309791D01*
X136917635Y-129082155D01*
X136942568Y-129066194D01*
X137184616Y-128953114D01*
X137350179Y-128956671D01*
X137440720Y-129074238D01*
X137508961Y-129198912D01*
X137568382Y-129198855D01*
X137583381Y-129087486D01*
X137571602Y-129024912D01*
X137510661Y-128615017D01*
X137557076Y-128286806D01*
X137712511Y-128029062D01*
X137720431Y-128020672D01*
X137892153Y-127885279D01*
X138056545Y-127825224D01*
X138178844Y-127846713D01*
X138223476Y-127930886D01*
X138238327Y-128055447D01*
X138241066Y-128073836D01*
X138307689Y-128124388D01*
X138466754Y-128190180D01*
X138567581Y-128222647D01*
X138763897Y-128274941D01*
X138878785Y-128274604D01*
X138965019Y-128211345D01*
X139030028Y-128132467D01*
X139206544Y-127985502D01*
X139411757Y-127948476D01*
X139612681Y-127924437D01*
X139692729Y-127857954D01*
X139643818Y-127757479D01*
X139617267Y-127733565D01*
X139458882Y-127560606D01*
X139432540Y-127395584D01*
X139534964Y-127207840D01*
X139558030Y-127179613D01*
X139770798Y-127000529D01*
X139996184Y-126958380D01*
X140239400Y-127053540D01*
X140466204Y-127244875D01*
X140639598Y-127401184D01*
X140792782Y-127503374D01*
X140863475Y-127526315D01*
X140999472Y-127466483D01*
X141125055Y-127322253D01*
X141198961Y-127146524D01*
X141204986Y-127088499D01*
X141258884Y-126988088D01*
X141404515Y-126968582D01*
X141617787Y-127030971D01*
X141696181Y-127068289D01*
X141989687Y-127142413D01*
X142202798Y-127131976D01*
X142410596Y-127117366D01*
X142547275Y-127158232D01*
X142677223Y-127273382D01*
X142882072Y-127422038D01*
X143111776Y-127442077D01*
X143360516Y-127350849D01*
X143663879Y-127247774D01*
X143963755Y-127264161D01*
X144272842Y-127404437D01*
X144603835Y-127673027D01*
X144767275Y-127841247D01*
X144942488Y-128020594D01*
X145079533Y-128116189D01*
X145228562Y-128153830D01*
X145386043Y-128159556D01*
X145651750Y-128135303D01*
X145908463Y-128074978D01*
X145965146Y-128054016D01*
X146225282Y-127966575D01*
X146408377Y-127964673D01*
X146550146Y-128049663D01*
X146576629Y-128077146D01*
X146680851Y-128266392D01*
X146656082Y-128475325D01*
X146563891Y-128641216D01*
X146429457Y-128842324D01*
X146369721Y-128954078D01*
X146374284Y-128999202D01*
X146397912Y-129003878D01*
X146483778Y-128947054D01*
X146598763Y-128806066D01*
X146714382Y-128625136D01*
X146802144Y-128448487D01*
X146833794Y-128327249D01*
X146785314Y-128191385D01*
X146664543Y-128026819D01*
X146620162Y-127981211D01*
X146406530Y-127776539D01*
X146065428Y-127897688D01*
X145792326Y-127971555D01*
X145509456Y-128013869D01*
X145417149Y-128017844D01*
X145249769Y-128007684D01*
X145114340Y-127963952D01*
X144972072Y-127864868D01*
X144784181Y-127688652D01*
X144724381Y-127628834D01*
X144417857Y-127350816D01*
X144148454Y-127186032D01*
X143884392Y-127125020D01*
X143593891Y-127158316D01*
X143373984Y-127226721D01*
X142959759Y-127377583D01*
X142716668Y-127164146D01*
X142545121Y-127031104D01*
X142400492Y-126981633D01*
X142216030Y-126994289D01*
X142197463Y-126997358D01*
X141890075Y-126998523D01*
X141707381Y-126933361D01*
X141457258Y-126832773D01*
X141280082Y-126840367D01*
X141151290Y-126962861D01*
X141083112Y-127104155D01*
X140967475Y-127311458D01*
X140837194Y-127378910D01*
X140690447Y-127306697D01*
X140565693Y-127156925D01*
X140430388Y-126980410D01*
X140242084Y-126760295D01*
X140090607Y-126596065D01*
X139912802Y-126399003D01*
X139812655Y-126240252D01*
X139763665Y-126063505D01*
X139742389Y-125856229D01*
X139712902Y-125448582D01*
X140037793Y-125361687D01*
X140402420Y-125294728D01*
X140768265Y-125279600D01*
X141087303Y-125315694D01*
X141269515Y-125377317D01*
X141423571Y-125440854D01*
X141531774Y-125424677D01*
X141600232Y-125379555D01*
X141762157Y-125308947D01*
X141970024Y-125277120D01*
X141976339Y-125277030D01*
X142121236Y-125292104D01*
X142255790Y-125355016D01*
X142414978Y-125487839D01*
X142585936Y-125661773D01*
X142802983Y-125882125D01*
X142951494Y-126003548D01*
X143052246Y-126035855D01*
X143126021Y-125988859D01*
X143162032Y-125933827D01*
X143242551Y-125859336D01*
X143387683Y-125857045D01*
X143464559Y-125872049D01*
X143740951Y-125909209D01*
X144089223Y-125923190D01*
X144443391Y-125913964D01*
X144737470Y-125881505D01*
X144781681Y-125872580D01*
X144996195Y-125858477D01*
X145183072Y-125943775D01*
X145207502Y-125961346D01*
X145298342Y-126020294D01*
X145406774Y-126067391D01*
X145556724Y-126107680D01*
X145772121Y-126146201D01*
X146076892Y-126187998D01*
X146494964Y-126238113D01*
X146552354Y-126244749D01*
X146916389Y-126320698D01*
X147278119Y-126454284D01*
X147596093Y-126625713D01*
X147828860Y-126815189D01*
X147880343Y-126878928D01*
X148013283Y-127061028D01*
X148135456Y-127218210D01*
X148276177Y-127392435D01*
X148514670Y-127215953D01*
X148825104Y-127052167D01*
X149158093Y-126985632D01*
X149468524Y-127022847D01*
X149568435Y-127064112D01*
X149728258Y-127200559D01*
X149903995Y-127435711D01*
X150073962Y-127732669D01*
X150216472Y-128054533D01*
X150294909Y-128300277D01*
X150344607Y-128496028D01*
X150382073Y-128643117D01*
X150384366Y-128652077D01*
X150412106Y-128779003D01*
X150416777Y-128810387D01*
X150456497Y-128870056D01*
X150542882Y-128812797D01*
X150643902Y-128676770D01*
X153131024Y-128676770D01*
X153375585Y-128705247D01*
X153616400Y-128672570D01*
X153790521Y-128530590D01*
X153868284Y-128305700D01*
X153869806Y-128265508D01*
X153926169Y-128115792D01*
X154013742Y-128067968D01*
X154157679Y-128030328D01*
X154016935Y-127767731D01*
X153928656Y-127522244D01*
X153964842Y-127333539D01*
X154128761Y-127186882D01*
X154148233Y-127176127D01*
X154351639Y-127119232D01*
X154580193Y-127129500D01*
X154791709Y-127194542D01*
X154944003Y-127301971D01*
X154995567Y-127424944D01*
X155038474Y-127538298D01*
X155143086Y-127689660D01*
X155156157Y-127705165D01*
X155264887Y-127808816D01*
X155398108Y-127872060D01*
X155598633Y-127909611D01*
X155806988Y-127928870D01*
X156079978Y-127956492D01*
X156258506Y-127999896D01*
X156388828Y-128075895D01*
X156497301Y-128179805D01*
X156697373Y-128393734D01*
X156908769Y-128167541D01*
X157076979Y-128013751D01*
X157201449Y-127981841D01*
X157312127Y-128073804D01*
X157390104Y-128199588D01*
X157468474Y-128316066D01*
X157569290Y-128383562D01*
X157735045Y-128420815D01*
X157937539Y-128440997D01*
X158188434Y-128469460D01*
X158360745Y-128523214D01*
X158513643Y-128630253D01*
X158681122Y-128792797D01*
X158960236Y-129031521D01*
X159205020Y-129140706D01*
X159227306Y-129144598D01*
X159445364Y-129227295D01*
X159532889Y-129338088D01*
X159651102Y-129467555D01*
X159817395Y-129485199D01*
X159992623Y-129389625D01*
X160026315Y-129355678D01*
X160210091Y-129228305D01*
X160394528Y-129226010D01*
X160557349Y-129335037D01*
X160676277Y-129541627D01*
X160726566Y-129788167D01*
X160742440Y-129988199D01*
X160754708Y-130125673D01*
X160757413Y-130149705D01*
X160814674Y-130165390D01*
X160901191Y-130132115D01*
X161122442Y-130063106D01*
X161290016Y-130113779D01*
X161364063Y-130213345D01*
X161475208Y-130357952D01*
X161632528Y-130477195D01*
X161792214Y-130618915D01*
X161955747Y-130853831D01*
X162019509Y-130973961D01*
X162131596Y-131190157D01*
X162224223Y-131309203D01*
X162333395Y-131363277D01*
X162477322Y-131383136D01*
X162646994Y-131410022D01*
X162754700Y-131480064D01*
X162845444Y-131630547D01*
X162887772Y-131723194D01*
X162987977Y-131920475D01*
X163055047Y-131995478D01*
X163080744Y-131946268D01*
X163056831Y-131770910D01*
X163054993Y-131762461D01*
X162942310Y-131499095D01*
X162753849Y-131321058D01*
X162518287Y-131255402D01*
X162517486Y-131255401D01*
X162391308Y-131241208D01*
X162299471Y-131178082D01*
X162211316Y-131035207D01*
X162135433Y-130871358D01*
X161960302Y-130561732D01*
X161769277Y-130385876D01*
X161762773Y-130382434D01*
X161575917Y-130247502D01*
X161442344Y-130098056D01*
X161278748Y-129949148D01*
X161123105Y-129918559D01*
X160984269Y-129899701D01*
X160912229Y-129815815D01*
X160873804Y-129664438D01*
X160791314Y-129438085D01*
X160657846Y-129242113D01*
X160652932Y-129237117D01*
X160499302Y-129118340D01*
X160338939Y-129097679D01*
X160253024Y-129112089D01*
X160055005Y-129178186D01*
X159907619Y-129264861D01*
X159770150Y-129328627D01*
X159667538Y-129281226D01*
X159639335Y-129180367D01*
X159571495Y-129079704D01*
X159374779Y-129004939D01*
X159159799Y-128969741D01*
X158991832Y-128900970D01*
X158806505Y-128750940D01*
X158762233Y-128703023D01*
X158534105Y-128476268D01*
X158308799Y-128351776D01*
X158214189Y-128335457D01*
X164283102Y-128335457D01*
X164318282Y-128370637D01*
X164353462Y-128335457D01*
X164318282Y-128300277D01*
X164283102Y-128335457D01*
X158214189Y-128335457D01*
X158030684Y-128303805D01*
X157891840Y-128300277D01*
X157680066Y-128293048D01*
X157591420Y-128265097D01*
X164142382Y-128265097D01*
X164177562Y-128300277D01*
X164212742Y-128265097D01*
X164177562Y-128229917D01*
X164142382Y-128265097D01*
X157591420Y-128265097D01*
X157564066Y-128256472D01*
X157518600Y-128194736D01*
X164283102Y-128194736D01*
X164318282Y-128229917D01*
X164353462Y-128194736D01*
X164494182Y-128194736D01*
X164529362Y-128229917D01*
X164564542Y-128194736D01*
X164529362Y-128159556D01*
X164494182Y-128194736D01*
X164353462Y-128194736D01*
X164318282Y-128159556D01*
X164283102Y-128194736D01*
X157518600Y-128194736D01*
X157499068Y-128168215D01*
X157468714Y-128089196D01*
X157449557Y-128054016D01*
X164423822Y-128054016D01*
X164459002Y-128089196D01*
X164494182Y-128054016D01*
X164459002Y-128018836D01*
X164423822Y-128054016D01*
X157449557Y-128054016D01*
X157411244Y-127983656D01*
X164212742Y-127983656D01*
X164247922Y-128018836D01*
X164283102Y-127983656D01*
X164564542Y-127983656D01*
X164599722Y-128018836D01*
X164634902Y-127983656D01*
X164599722Y-127948476D01*
X164564542Y-127983656D01*
X164283102Y-127983656D01*
X164247922Y-127948476D01*
X164212742Y-127983656D01*
X157411244Y-127983656D01*
X157383898Y-127933437D01*
X157250348Y-127879992D01*
X157202516Y-127878116D01*
X157011430Y-127926054D01*
X156848041Y-128030174D01*
X156686182Y-128182233D01*
X156523135Y-128006302D01*
X156399365Y-127900859D01*
X156245514Y-127843971D01*
X156012122Y-127819466D01*
X155943395Y-127816756D01*
X155574657Y-127769439D01*
X155311054Y-127658325D01*
X155164696Y-127488765D01*
X155157202Y-127469446D01*
X155031630Y-127261195D01*
X154838223Y-127096861D01*
X154615473Y-126995025D01*
X154401869Y-126974265D01*
X154256015Y-127034435D01*
X154171460Y-127081552D01*
X154151246Y-127065325D01*
X154107608Y-127069463D01*
X154000127Y-127151792D01*
X153975346Y-127174515D01*
X153844104Y-127364246D01*
X153800588Y-127575295D01*
X153852626Y-127756594D01*
X153880896Y-127790702D01*
X153923139Y-127887385D01*
X153866585Y-127987536D01*
X153774561Y-128155048D01*
X153748555Y-128248847D01*
X153675674Y-128446870D01*
X153512123Y-128570569D01*
X153358117Y-128620764D01*
X153131024Y-128676770D01*
X150643902Y-128676770D01*
X150664046Y-128649645D01*
X150751905Y-128499262D01*
X150892459Y-128274173D01*
X151041708Y-128085344D01*
X151125761Y-128006414D01*
X151313648Y-127926321D01*
X151537544Y-127945864D01*
X151813231Y-128069589D01*
X152156494Y-128302040D01*
X152158931Y-128303878D01*
X152355277Y-128444010D01*
X152505271Y-128535952D01*
X152577483Y-128560515D01*
X152578257Y-128559877D01*
X152577299Y-128471108D01*
X152507912Y-128308708D01*
X152391522Y-128107347D01*
X152249552Y-127901691D01*
X152103429Y-127726409D01*
X152009858Y-127640131D01*
X151850234Y-127499282D01*
X151791560Y-127381928D01*
X151800479Y-127280015D01*
X151789275Y-127071595D01*
X151730490Y-126951603D01*
X151627493Y-126727777D01*
X151637499Y-126646814D01*
X164212742Y-126646814D01*
X164247922Y-126681994D01*
X164283102Y-126646814D01*
X164247922Y-126611634D01*
X164212742Y-126646814D01*
X151637499Y-126646814D01*
X151650371Y-126542666D01*
X151797018Y-126412107D01*
X151802519Y-126409557D01*
X151931116Y-126325621D01*
X151958483Y-126204667D01*
X151945152Y-126117593D01*
X151927992Y-125894831D01*
X151998613Y-125733180D01*
X152179276Y-125588117D01*
X152223172Y-125561526D01*
X152382424Y-125447904D01*
X152444019Y-125328171D01*
X152445559Y-125188893D01*
X152442727Y-125036440D01*
X152493629Y-124976811D01*
X152637655Y-124974234D01*
X152678632Y-124977230D01*
X152856843Y-124970340D01*
X153000686Y-124898784D01*
X153155269Y-124748559D01*
X153317421Y-124584512D01*
X153446584Y-124515471D01*
X153597790Y-124526654D01*
X153770918Y-124583177D01*
X153955033Y-124628789D01*
X154099936Y-124594222D01*
X154176797Y-124548790D01*
X154339992Y-124476535D01*
X154507964Y-124492289D01*
X154720392Y-124602738D01*
X154795348Y-124653000D01*
X154974040Y-124732572D01*
X155195299Y-124774733D01*
X155408549Y-124776502D01*
X155563212Y-124734900D01*
X155600704Y-124700463D01*
X155650378Y-124576215D01*
X155695930Y-124401432D01*
X155736854Y-124264244D01*
X155814357Y-124201039D01*
X155973939Y-124182817D01*
X156040547Y-124181819D01*
X156236890Y-124165631D01*
X156368555Y-124127945D01*
X156389224Y-124111459D01*
X156511202Y-123988942D01*
X156693024Y-123898991D01*
X156966206Y-123828805D01*
X157173313Y-123792979D01*
X157552362Y-123711601D01*
X157839648Y-123592970D01*
X157971544Y-123508773D01*
X158179402Y-123386548D01*
X158378906Y-123313673D01*
X158448371Y-123304709D01*
X158631966Y-123259658D01*
X158827029Y-123149174D01*
X158852542Y-123128809D01*
X159106648Y-122979958D01*
X159356534Y-122969396D01*
X159504465Y-123026400D01*
X159653129Y-123058967D01*
X159796936Y-122991220D01*
X160045470Y-122895508D01*
X160323471Y-122906618D01*
X160571729Y-123022103D01*
X160573215Y-123023268D01*
X160818393Y-123139054D01*
X161093100Y-123153125D01*
X161341652Y-123065481D01*
X161398337Y-123023268D01*
X161526099Y-122923705D01*
X161604528Y-122882548D01*
X161740432Y-122940833D01*
G37*
%TO.C,SW1*%
D13*
X171515000Y-123515000D02*
X185485000Y-123515000D01*
X171515000Y-137485000D02*
X171515000Y-123515000D01*
X185485000Y-123515000D02*
X185485000Y-137485000D01*
X185485000Y-137485000D02*
X171515000Y-137485000D01*
%TO.C,SW2*%
X133435000Y-123515000D02*
X147405000Y-123515000D01*
X133435000Y-137485000D02*
X133435000Y-123515000D01*
X147405000Y-123515000D02*
X147405000Y-137485000D01*
X147405000Y-137485000D02*
X133435000Y-137485000D01*
%TO.C,SW4*%
X152515000Y-123515000D02*
X166485000Y-123515000D01*
X152515000Y-137485000D02*
X152515000Y-123515000D01*
X166485000Y-123515000D02*
X166485000Y-137485000D01*
X166485000Y-137485000D02*
X152515000Y-137485000D01*
%TO.C,SW3*%
X114435000Y-123515000D02*
X128405000Y-123515000D01*
X114435000Y-137485000D02*
X114435000Y-123515000D01*
X128405000Y-123515000D02*
X128405000Y-137485000D01*
X128405000Y-137485000D02*
X114435000Y-137485000D01*
%TD*%
M02*
